<?xml version="1.0" standalone="no"?>
<!DOCTYPE svg PUBLIC "-//W3C//DTD SVG 1.1//EN" "http://www.w3.org/Graphics/SVG/1.1/DTD/svg11.dtd" >
<svg xmlns="http://www.w3.org/2000/svg" xmlns:xlink="http://www.w3.org/1999/xlink" version="1.1">
<metadata>
Created by FontForge 20170731 at Sun Apr 30 20:17:57 2017
 By Aleksey,,,
Digitized data copyright (c) 2010-2012 Google Corporation.
</metadata>
<defs>
<font id="Arimo-BoldItalic" horiz-adv-x="1251" >
  <font-face 
    font-family="Arimo"
    font-weight="700"
    font-style="italic"
    font-stretch="normal"
    units-per-em="2048"
    panose-1="2 11 7 4 2 2 2 9 2 4"
    ascent="1638"
    descent="-410"
    x-height="1082"
    cap-height="1409"
    bbox="-977 -771 2780 2109"
    underline-thickness="215"
    underline-position="-538"
    slope="-12"
    unicode-range="U+0020-FFFC"
  />
<missing-glyph horiz-adv-x="1536" 
d="M205 1409h1125v-1409h-1125v1409zM281 1333v-1257h973v1257h-973z" />
    <glyph glyph-name=".notdef" horiz-adv-x="1536" 
d="M205 1409h1125v-1409h-1125v1409zM281 1333v-1257h973v1257h-973z" />
    <glyph glyph-name=".null" horiz-adv-x="0" 
 />
    <glyph glyph-name="nonmarkingreturn" horiz-adv-x="569" 
 />
    <glyph glyph-name="space" unicode=" " horiz-adv-x="569" 
 />
    <glyph glyph-name="space" unicode="&#xa0;" horiz-adv-x="569" 
 />
    <glyph glyph-name="exclam" unicode="!" horiz-adv-x="682" 
d="M423 426h-230l160 983h294zM79 0l52 270h288l-52 -270h-288z" />
    <glyph glyph-name="quotedbl" unicode="&#x22;" horiz-adv-x="971" 
d="M864 898h-219l72 511h275zM438 898h-219l72 511h273z" />
    <glyph glyph-name="numbersign" unicode="#" horiz-adv-x="1139" 
d="M939 862l-69 -332h215v-149h-246l-82 -381h-156l80 381h-307l-80 -381h-153l79 381h-155v149h188l70 332h-207v148h238l84 385h153l-82 -385h307l84 385h156l-84 -385h164v-148h-197zM479 862l-72 -332h309l70 332h-307z" />
    <glyph glyph-name="dollar" unicode="$" horiz-adv-x="1139" 
d="M1080 474q0 -213 -141 -327.5t-423 -125.5l-33 -173h-112l32 175q-176 0 -289 93.5t-125 249.5l262 42q14 -177 194 -177l73 388q-180 45 -277 140t-97 229q0 123 62.5 213.5t186.5 141.5t279 51l24 126l110 -4l-27 -130q162 0 263.5 -79t114.5 -218l-261 -57
q-14 77 -54.5 117.5t-100.5 40.5l-67 -353q209 -50 307.5 -138.5t98.5 -224.5zM810 413q0 77 -44 117.5t-139 62.5l-73 -362q115 0 185.5 49t70.5 133zM412 1006q0 -49 32.5 -81.5t121.5 -61.5l67 331q-99 0 -160 -53t-61 -135z" />
    <glyph glyph-name="percent" unicode="%" horiz-adv-x="1821" 
d="M546 1421q150 0 229.5 -79.5t79.5 -228.5q0 -82 -26 -178q-29 -137 -90 -227t-144.5 -137t-187.5 -47q-142 0 -218.5 84t-76.5 233q0 89 24 174q84 406 410 406zM545 1270q-78 0 -123 -60t-71 -184.5t-26 -198.5q0 -142 86 -142q79 0 127.5 64.5t74.5 195.5
q28 109 28 186q0 139 -96 139zM1455 882q150 0 229.5 -79.5t79.5 -228.5q0 -82 -26 -178q-29 -137 -90 -227t-144.5 -137t-187.5 -47q-142 0 -218.5 84t-76.5 233q0 89 24 174q84 406 410 406zM1454 731q-78 0 -123 -60t-71 -184.5t-26 -198.5q0 -142 86 -142
q79 0 127.5 64.5t74.5 195.5q28 109 28 186q0 139 -96 139zM486 0h-197l1086 1409h199z" />
    <glyph glyph-name="ampersand" unicode="&#x26;" horiz-adv-x="1479" 
d="M49 354q0 309 426 457q-15 48 -25 111t-10 115q0 172 114.5 276t313.5 104q159 0 247.5 -67.5t88.5 -189.5q0 -91 -45.5 -161.5t-131 -129t-291.5 -142.5q43 -119 81 -190t91 -142q133 142 234 365l187 -83q-45 -104 -120 -217.5t-158 -198.5q75 -64 184 -64q63 0 111 16
l-39 -203q-66 -22 -139 -22q-174 0 -305 117q-71 -55 -123 -77.5t-121 -35t-155 -12.5q-201 0 -308 96.5t-107 277.5zM493 170q63 0 125 22.5t107 56.5q-124 164 -200 382q-124 -56 -172.5 -122t-48.5 -149q0 -85 52 -137.5t137 -52.5zM667 1041q0 -81 20 -145
q142 54 192 85.5t75.5 70.5t25.5 90t-33.5 78t-91.5 27q-85 0 -136.5 -55t-51.5 -151z" />
    <glyph glyph-name="quotesingle" unicode="'" horiz-adv-x="487" 
d="M417 898h-219l73 511h272z" />
    <glyph glyph-name="parenleft" unicode="(" horiz-adv-x="682" 
d="M874 1484q-524 -500 -524 -1204q0 -399 147 -705h-275q-148 316 -148 721q0 363 132 666t387 522h281z" />
    <glyph glyph-name="parenright" unicode=")" horiz-adv-x="682" 
d="M-180 -425q525 513 525 1234q0 170 -40 351t-109 324h265q161 -320 161 -691q0 -375 -134 -686t-387 -532h-281z" />
    <glyph glyph-name="asterisk" unicode="*" horiz-adv-x="797" 
d="M574 1135l235 104l68 -197l-250 -61l186 -213l-184 -121l-146 252l-149 -252l-186 123l190 211l-250 61l68 197l239 -104l-18 274h215z" />
    <glyph glyph-name="plus" unicode="+" horiz-adv-x="1196" 
d="M750 569v-408h-226v408h-399v224h399v408h226v-408h402v-224h-402z" />
    <glyph glyph-name="comma" unicode="," horiz-adv-x="569" 
d="M165 -317h-185q78 78 129.5 161t65.5 156h-129l59 305h289l-47 -239q-23 -120 -66 -211.5t-116 -171.5z" />
    <glyph glyph-name="hyphen" unicode="-" horiz-adv-x="682" 
d="M56 409l47 244h520l-47 -244h-520z" />
    <glyph glyph-name="hyphen" unicode="&#xad;" horiz-adv-x="682" 
d="M56 409l47 244h520l-47 -244h-520z" />
    <glyph glyph-name="period" unicode="." horiz-adv-x="569" 
d="M46 0l59 305h289l-59 -305h-289z" />
    <glyph glyph-name="slash" unicode="/" horiz-adv-x="569" 
d="M-76 -41l587 1525h238l-583 -1525h-242z" />
    <glyph glyph-name="zero" unicode="0" horiz-adv-x="1139" 
d="M724 1430q395 0 395 -466q0 -115 -38 -299q-144 -685 -603 -685q-200 0 -296.5 117.5t-96.5 356.5q0 139 44.5 344t123.5 346t195 213.5t276 72.5zM497 201q117 0 187.5 107.5t116 346.5t45.5 322q0 233 -152 233q-86 0 -139.5 -47t-91 -151.5t-71.5 -309t-34 -287.5
q0 -214 139 -214z" />
    <glyph glyph-name="one" unicode="1" horiz-adv-x="1139" 
d="M33 0l43 231h349l179 921l-381 -214l47 242l396 229h270l-230 -1178h323l-44 -231h-952z" />
    <glyph glyph-name="two" unicode="2" horiz-adv-x="1139" 
d="M-32 0l37 195q49 85 113 156t139.5 135.5t256.5 190.5q148 104 202 158t83.5 110t29.5 118q0 143 -162 143q-88 0 -142 -44t-81 -140l-266 59q53 179 181 264t328 85q210 0 320.5 -87.5t110.5 -259.5q0 -96 -42 -183t-126.5 -168.5t-273.5 -208.5q-132 -90 -210.5 -158
t-122.5 -134h654l-44 -231h-985z" />
    <glyph glyph-name="three" unicode="3" horiz-adv-x="1139" 
d="M535 829q149 0 222.5 58t73.5 164q0 72 -38.5 113.5t-118.5 41.5q-186 0 -237 -184l-267 52q102 356 515 356q203 0 317 -91t114 -253q0 -156 -97 -251t-264 -110l-1 -4q135 -21 205.5 -99.5t70.5 -203.5q0 -124 -65 -225.5t-183 -157t-271 -55.5q-226 0 -352.5 93
t-142.5 270l282 38q11 -90 63 -132.5t163 -42.5q104 0 162.5 56t58.5 154q0 186 -220 186h-107l44 227h73z" />
    <glyph glyph-name="four" unicode="4" horiz-adv-x="1139" 
d="M874 286l-54 -286h-268l54 286h-640l41 207l717 916h370l-178 -913h188l-42 -210h-188zM800 1206q-46 -78 -117 -170l-424 -540h389l102 524q18 90 50 186z" />
    <glyph glyph-name="five" unicode="5" horiz-adv-x="1139" 
d="M316 1409h847l-43 -231h-594l-87 -334q18 16 42.5 32t55.5 29t70 21t87 8q167 0 268.5 -113t101.5 -303q0 -161 -70.5 -283.5t-202.5 -188.5t-305 -66q-199 0 -318.5 88.5t-147.5 260.5l283 45q18 -93 65.5 -130.5t141.5 -37.5q125 0 196.5 76.5t71.5 203.5
q0 105 -49.5 163t-139.5 58q-123 0 -202 -91h-274z" />
    <glyph glyph-name="six" unicode="6" horiz-adv-x="1139" 
d="M533 -20q-210 0 -324 133t-114 374q0 269 83.5 486.5t233 337t333.5 119.5q180 0 283.5 -83.5t121.5 -240.5l-266 -41q-14 73 -51 108t-103 35q-115 0 -200 -115t-124 -347q53 72 134.5 116.5t184.5 44.5q164 0 258.5 -100t94.5 -274q0 -151 -70 -279t-194.5 -201
t-280.5 -73zM369 429q0 -105 49 -167t140 -62q107 0 170.5 81.5t63.5 217.5q0 97 -47.5 149t-130.5 52q-67 0 -124 -34t-89 -96t-32 -141z" />
    <glyph glyph-name="seven" unicode="7" horiz-adv-x="1139" 
d="M188 1409h1031l-44 -223l-162 -194q-259 -306 -374 -523t-167 -469h-298q35 182 103.5 335.5t162 293.5t209 273.5t244.5 275.5h-750z" />
    <glyph glyph-name="eight" unicode="8" horiz-adv-x="1139" 
d="M707 1429q199 0 314 -91.5t115 -246.5q0 -140 -85.5 -234t-230.5 -114l-1 -4q111 -33 170.5 -114t59.5 -193q0 -208 -148.5 -330t-407.5 -122q-222 0 -344 100.5t-122 279.5q0 147 94.5 245t264.5 132v4q-92 41 -139.5 121.5t-47.5 189.5q0 177 137 277t371 100zM648 840
q94 0 148.5 59.5t54.5 164.5q0 168 -172 168q-95 0 -149 -55.5t-54 -156.5q0 -87 45 -133.5t127 -46.5zM561 640q-116 0 -180 -71t-64 -192q0 -95 53.5 -147t149.5 -52q108 0 174 72t66 194q0 95 -53 145.5t-146 50.5z" />
    <glyph glyph-name="nine" unicode="9" horiz-adv-x="1139" 
d="M817 653q-65 -77 -139 -113.5t-178 -36.5q-161 0 -257 107t-96 283q0 149 71 273.5t196.5 194t277.5 69.5q200 0 319 -128.5t119 -344.5q0 -172 -48.5 -364.5t-135.5 -332t-205 -210t-262 -70.5q-182 0 -293 86t-138 245l274 48q29 -157 176 -157q233 0 319 451z
M855 1009q0 87 -50 144t-127 57q-114 0 -180 -84t-66 -226q0 -85 48 -137.5t131 -52.5q114 0 179 80t65 219z" />
    <glyph glyph-name="colon" unicode=":" horiz-adv-x="682" 
d="M235 752l55 282h288l-55 -282h-288zM89 0l55 281h288l-55 -281h-288z" />
    <glyph glyph-name="semicolon" unicode=";" horiz-adv-x="682" 
d="M235 752l55 282h288l-55 -282h-288zM207 -317h-184q78 78 129.5 161t65.5 156h-129l55 281h288l-42 -215q-23 -120 -65.5 -211t-117.5 -172z" />
    <glyph glyph-name="semicolon" unicode="&#x37e;" horiz-adv-x="682" 
d="M235 752l55 282h288l-55 -282h-288zM207 -317h-184q78 78 129.5 161t65.5 156h-129l55 281h288l-42 -215q-23 -120 -65.5 -211t-117.5 -172z" />
    <glyph glyph-name="less" unicode="&#x3c;" horiz-adv-x="1196" 
d="M124 516v322l1027 391v-228l-833 -325l833 -324v-227z" />
    <glyph glyph-name="equal" unicode="=" horiz-adv-x="1196" 
d="M123 842v223h1027v-223h-1027zM123 291v221h1027v-221h-1027z" />
    <glyph glyph-name="greater" unicode="&#x3e;" horiz-adv-x="1196" 
d="M124 125v227l832 324l-832 325v228l1027 -391v-322z" />
    <glyph glyph-name="question" unicode="?" 
d="M745 1430q214 0 339 -94t125 -261q0 -90 -37.5 -161t-105.5 -131.5t-225 -147.5q-78 -51 -106.5 -78t-45.5 -58t-23 -73h-267q14 77 45 134.5t79.5 104t166.5 119.5q69 43 114.5 76t72.5 63.5t38 61.5t11 70q0 63 -48 104.5t-149 41.5q-227 0 -279 -193l-266 40
q117 382 561 382zM309 0l52 270h289l-52 -270h-289z" />
    <glyph glyph-name="at" unicode="@" horiz-adv-x="1997" 
d="M1911 755q0 -182 -63.5 -332t-175.5 -234.5t-242 -84.5q-92 0 -141.5 45.5t-49.5 126.5q0 37 6 67h-6q-50 -105 -148.5 -172t-201.5 -67q-157 0 -243.5 101.5t-86.5 283.5q0 163 64.5 306t179 224.5t256.5 81.5q195 0 264 -174h6l39 152h156l-117 -506q-37 -172 -37 -240
q0 -50 23.5 -71t54.5 -21q80 0 153 69.5t115.5 186t42.5 256.5q0 175 -76.5 309.5t-220.5 207.5t-335 73q-240 0 -423 -105t-287.5 -303t-104.5 -444q0 -195 79.5 -342.5t223.5 -223t338 -75.5q294 0 589 155l62 -122q-168 -95 -328.5 -136t-329.5 -41q-236 0 -415.5 95.5
t-280 276t-100.5 413.5q0 283 126.5 512t349.5 355t499 126q243 0 421 -90.5t271.5 -255.5t93.5 -383zM1264 751q0 95 -59.5 155t-153.5 60t-168.5 -62.5t-116 -177t-41.5 -235.5q0 -114 48.5 -180t148.5 -66q66 0 128.5 42t111.5 121.5t75.5 181t26.5 161.5z" />
    <glyph glyph-name="A" unicode="A" horiz-adv-x="1479" 
d="M1039 0l-55 360h-537l-195 -360h-294l787 1409h348l238 -1409h-292zM876 1192q-21 -64 -98 -212l-212 -398h395l-67 452q-18 135 -18 158z" />
    <glyph glyph-name="B" unicode="B" horiz-adv-x="1479" 
d="M310 1409h584q251 0 380 -82.5t129 -243.5q0 -137 -82.5 -224.5t-241.5 -120.5q136 -23 212.5 -105.5t76.5 -201.5q0 -211 -156.5 -321t-470.5 -110h-705zM494 841h294q175 0 248.5 46t73.5 151q0 80 -57 116t-191 36h-301zM373 219h328q209 0 290 50.5t81 167.5
q0 90 -68 138t-222 48h-330z" />
    <glyph glyph-name="C" unicode="C" horiz-adv-x="1479" 
d="M401 573q0 -173 85.5 -267.5t244.5 -94.5q266 0 418 258l227 -117q-210 -372 -665 -372q-191 0 -329.5 72t-210 205.5t-71.5 311.5q0 252 105 450.5t293.5 304.5t428.5 106q230 0 377.5 -98.5t198.5 -293.5l-274 -71q-29 107 -111 169t-200 62q-242 0 -379.5 -168
t-137.5 -457z" />
    <glyph glyph-name="D" unicode="D" horiz-adv-x="1479" 
d="M734 1409q333 0 510 -155t177 -447q0 -236 -99 -417t-287 -285.5t-421 -104.5h-578l274 1409h424zM375 228h230q160 0 283.5 68.5t190 197.5t66.5 300q0 189 -105.5 288t-303.5 99h-176z" />
    <glyph glyph-name="E" unicode="E" horiz-adv-x="1366" 
d="M36 0l273 1409h1108l-44 -228h-813l-69 -354h752l-44 -228h-752l-72 -371h854l-45 -228h-1148z" />
    <glyph glyph-name="F" unicode="F" 
d="M560 1181l-85 -436h668l-44 -228h-668l-101 -517h-294l273 1409h986l-44 -228h-691z" />
    <glyph glyph-name="G" unicode="G" horiz-adv-x="1593" 
d="M740 -19q-300 0 -470 158.5t-170 443.5q0 250 104.5 444t296 298.5t441.5 104.5q228 0 381.5 -103t206.5 -288l-282 -78q-29 113 -112 175t-210 62q-159 0 -279 -75t-184 -213t-64 -318q0 -178 95.5 -279.5t269.5 -101.5q108 0 210 26t174 70l46 228h-342l39 208h614
l-105 -568q-156 -107 -312 -150.5t-348 -43.5z" />
    <glyph glyph-name="H" unicode="H" horiz-adv-x="1479" 
d="M956 0l118 604h-626l-118 -604h-294l273 1409h295l-109 -561h626l109 561h284l-274 -1409h-284z" />
    <glyph glyph-name="I" unicode="I" horiz-adv-x="569" 
d="M36 0l273 1409h295l-274 -1409h-294z" />
    <glyph glyph-name="J" unicode="J" horiz-adv-x="1139" 
d="M480 -20q-190 0 -303.5 96t-151.5 303l267 58q46 -226 207 -226q54 0 91 24t61 68t42 137l143 738h-281l44 231h575l-193 -986q-45 -231 -165 -337t-336 -106z" />
    <glyph glyph-name="K" unicode="K" horiz-adv-x="1479" 
d="M995 0l-355 640l-211 -123l-101 -517h-292l273 1409h295l-130 -639l760 639h369l-747 -616l465 -793h-326z" />
    <glyph glyph-name="L" unicode="L" 
d="M36 0l273 1409h295l-229 -1181h756l-45 -228h-1050z" />
    <glyph glyph-name="M" unicode="M" horiz-adv-x="1706" 
d="M1206 0l172 884q26 130 74 322l-69 -151q-79 -174 -114 -239l-412 -816h-210l-94 819q-31 291 -40 387q-28 -244 -43 -319l-172 -887h-262l274 1409h395l88 -788l25 -276q36 80 67 145t464 919h393l-274 -1409h-262z" />
    <glyph glyph-name="N" unicode="N" horiz-adv-x="1479" 
d="M884 0l-374 1131q-23 -162 -38 -239l-174 -892h-262l274 1409h350l377 -1141l12 82q11 83 29 174l174 885h262l-274 -1409h-356z" />
    <glyph glyph-name="O" unicode="O" horiz-adv-x="1593" 
d="M928 1430q293 0 462 -155.5t169 -423.5q0 -247 -105.5 -450.5t-294.5 -312t-432 -108.5q-193 0 -335.5 72t-217 206.5t-74.5 314.5q0 235 105.5 438.5t292.5 311t430 107.5zM914 1197q-162 0 -276 -75t-176 -226t-62 -315q0 -184 90 -276.5t251 -92.5t275 75t176.5 223
t62.5 317q0 176 -87.5 273t-253.5 97z" />
    <glyph glyph-name="P" unicode="P" horiz-adv-x="1366" 
d="M850 1409q246 0 382.5 -112t136.5 -310q0 -225 -153.5 -358t-410.5 -133h-377l-98 -496h-294l273 1409h541zM471 723h289q155 0 232.5 58t77.5 190q0 102 -64 155.5t-184 53.5h-262z" />
    <glyph glyph-name="Q" unicode="Q" horiz-adv-x="1593" 
d="M928 1430q293 0 462 -155.5t169 -423.5q0 -106 -20 -202q-27 -135 -84.5 -246.5t-141.5 -196t-192.5 -139t-238.5 -75.5q19 -98 64.5 -142t134.5 -44q80 0 150 14l-45 -195q-72 -25 -169 -25q-197 0 -303.5 94t-129.5 297q-118 19 -208.5 69.5t-152 126t-92.5 173.5
t-31 213q0 235 105.5 438.5t292.5 311t430 107.5zM914 1197q-162 0 -276 -75t-176 -226t-62 -315q0 -184 90 -276.5t251 -92.5t275 75t176.5 223t62.5 317q0 176 -87.5 273t-253.5 97z" />
    <glyph glyph-name="R" unicode="R" horiz-adv-x="1479" 
d="M1010 0l-230 534h-346l-103 -534h-295l274 1409h651q159 0 272.5 -49t172.5 -140t59 -214q0 -165 -108.5 -280t-294.5 -143l274 -583h-326zM872 764q145 0 219.5 58.5t74.5 166.5q0 93 -63.5 142t-178.5 49h-364l-81 -416h393z" />
    <glyph glyph-name="S" unicode="S" horiz-adv-x="1366" 
d="M600 -20q-267 0 -407 94.5t-168 290.5l289 49q21 -111 93.5 -162t212.5 -51q345 0 345 199q0 80 -60 126.5t-238 91.5q-184 49 -272.5 102t-135 129.5t-46.5 187.5q0 177 157 285t416 108q238 0 382 -86.5t177 -252.5l-288 -67q-22 90 -95.5 143.5t-191.5 53.5
q-124 0 -195 -46.5t-71 -127.5q0 -47 26 -80t76 -57.5t198 -64.5q159 -44 235 -82.5t121.5 -86.5t69.5 -110t24 -143q0 -216 -166 -329.5t-488 -113.5z" />
    <glyph glyph-name="T" unicode="T" 
d="M895 1181l-230 -1181h-295l230 1181h-455l44 228h1206l-44 -228h-456z" />
    <glyph glyph-name="U" unicode="U" horiz-adv-x="1479" 
d="M688 211q165 0 250.5 76t119.5 254l168 868h295l-171 -879q-55 -281 -220 -415.5t-458 -134.5q-264 0 -408.5 117.5t-144.5 333.5q0 44 7.5 105.5t15.5 98.5l148 774h295l-153 -810q-18 -87 -18 -172q0 -103 73 -159.5t201 -56.5z" />
    <glyph glyph-name="V" unicode="V" horiz-adv-x="1366" 
d="M737 0h-339l-227 1409h305l114 -905q16 -147 22 -266q47 106 75.5 167t513.5 1004h308z" />
    <glyph glyph-name="W" unicode="W" horiz-adv-x="1933" 
d="M1441 0h-350l-27 812l-4 220l-1 84q-60 -160 -91.5 -239t-373.5 -877h-355l-89 1409h280l36 -815q7 -168 7 -346l57 144l76 185l355 832h316l42 -1161q27 73 78.5 204.5t390.5 956.5h291z" />
    <glyph glyph-name="X" unicode="X" horiz-adv-x="1366" 
d="M220 1409h309l224 -471l402 471h313l-600 -677l367 -732h-307l-253 532l-455 -532h-314l652 736z" />
    <glyph glyph-name="Y" unicode="Y" horiz-adv-x="1366" 
d="M724 0h-294l112 578l-370 831h292l259 -605l474 605h323l-684 -831z" />
    <glyph glyph-name="Z" unicode="Z" 
d="M1082 0h-1130l40 209l927 969h-663l45 231h1014l-40 -205l-930 -973h782z" />
    <glyph glyph-name="bracketleft" unicode="[" horiz-adv-x="682" 
d="M-54 -425l370 1909h542l-37 -190h-276l-297 -1528h276l-37 -191h-541z" />
    <glyph glyph-name="backslash" unicode="\" horiz-adv-x="569" 
d="M289 -41l-178 1526h238l183 -1526h-243z" />
    <glyph glyph-name="bracketright" unicode="]" horiz-adv-x="682" 
d="M-174 -425l37 191h277l297 1528h-278l37 190h542l-371 -1909h-541z" />
    <glyph glyph-name="asciicircum" unicode="^" horiz-adv-x="1196" 
d="M962 514l-326 752l-324 -752h-227l391 895h322l393 -895h-229z" />
    <glyph glyph-name="underscore" unicode="_" horiz-adv-x="1139" 
d="M-120 -250v78h1177v-78h-1177z" />
    <glyph glyph-name="grave" unicode="`" horiz-adv-x="682" 
d="M596 1183l-307 276l8 43h258l195 -288l-6 -31h-148z" />
    <glyph glyph-name="a" unicode="a" horiz-adv-x="1139" 
d="M892 -10q-100 0 -154 42t-54 111q0 37 5 64h-6q-84 -130 -166 -178.5t-200 -48.5q-140 0 -223.5 83.5t-83.5 214.5q0 185 127.5 279.5t413.5 99.5l191 3q21 95 21 131q0 128 -127 128q-94 0 -140 -36.5t-63 -105.5l-263 31q34 144 153.5 219t317.5 75q207 0 303.5 -73
t96.5 -222q0 -37 -24 -157l-71 -353q-8 -45 -8 -72q0 -24 10 -37t23 -19t26 -7.5t20 -1.5q30 0 62 7l-14 -155q-42 -16 -85 -19t-88 -3zM711 503h-162q-117 -2 -184.5 -48t-67.5 -130q0 -70 39.5 -109.5t106.5 -39.5q83 0 151 64.5t95 170.5z" />
    <glyph glyph-name="b" unicode="b" 
d="M855 1102q159 0 248 -94.5t89 -259.5v-14q0 -188 -62 -379.5t-174.5 -283t-286.5 -91.5q-125 0 -203 52t-110 146h-2l-28 -111l-20 -67h-271q5 15 19.5 82t29.5 141l246 1261h281l-84 -427q-28 -144 -32 -144h4q56 84 145.5 136.5t210.5 52.5zM735 907q-126 0 -201.5 -88
t-109.5 -265q-17 -93 -17 -153q0 -107 53 -167.5t148 -60.5q101 0 158 62.5t95 212t38 246.5q0 105 -35.5 159t-128.5 54z" />
    <glyph glyph-name="c" unicode="c" horiz-adv-x="1139" 
d="M536 173q83 0 137 52.5t86 155.5l271 -50q-107 -351 -510 -351q-220 0 -338.5 112.5t-118.5 312.5q0 195 79 366t210.5 251t327.5 80q189 0 302 -95.5t127 -265.5l-284 -23q-11 191 -167 191q-107 0 -167.5 -73.5t-109.5 -260.5q-23 -115 -23 -168q0 -234 178 -234z" />
    <glyph glyph-name="d" unicode="d" 
d="M749 160q-71 -93 -153.5 -137t-203.5 -44q-154 0 -244 102t-90 273q0 191 64 374t179.5 278.5t278.5 95.5q256 0 314 -198h5q2 20 8 60t18 102l84 418h277l-238 -1253q-20 -112 -29 -231h-281q0 63 15 160h-4zM515 172q81 0 139 34.5t99 106t65 179.5t24 189
q0 120 -47 174.5t-141 54.5q-102 0 -166.5 -69t-98.5 -202t-34 -246q0 -221 160 -221z" />
    <glyph glyph-name="e" unicode="e" horiz-adv-x="1139" 
d="M358 476q-7 -38 -7 -89q0 -106 46.5 -162.5t137.5 -56.5q147 0 213 169l245 -74q-75 -159 -186 -221t-291 -62q-213 0 -333 115.5t-120 322.5t72 362.5t204.5 238.5t306.5 83q209 0 322.5 -107.5t113.5 -303.5q0 -99 -24 -215h-700zM822 663l3 56q0 107 -49.5 156
t-129.5 49q-96 0 -161.5 -66.5t-93.5 -194.5h431z" />
    <glyph glyph-name="f" unicode="f" horiz-adv-x="682" 
d="M528 892l-174 -892h-280l174 892h-158l37 190h158l22 113q30 155 124.5 222t266.5 67q73 0 155 -17l-36 -181q-11 2 -43 6t-53 4q-67 0 -97 -32t-43 -97l-16 -85h213l-37 -190h-213z" />
    <glyph glyph-name="g" unicode="g" 
d="M431 -425q-199 0 -306 69t-132 214l283 30q27 -127 188 -127q110 0 171 59t95 207q20 96 31 174h-2q-63 -89 -110.5 -128t-107 -60t-136.5 -21q-155 0 -247.5 100t-92.5 264q0 201 63.5 385.5t175 272t282.5 87.5q118 0 203 -56t112 -152h2q6 29 24.5 105t23.5 84h265
l-19 -83l-30 -146l-165 -843q-47 -233 -182 -334t-389 -101zM846 686q0 104 -52 163.5t-146 59.5q-76 0 -125.5 -32t-84 -103.5t-57 -188t-22.5 -189.5q0 -199 173 -199q89 0 162 67t112.5 182.5t39.5 239.5z" />
    <glyph glyph-name="h" unicode="h" 
d="M601 1484l-79 -405l-39 -182h3q75 104 165.5 154t207.5 50q152 0 229 -73t77 -211q0 -25 -7 -79.5t-14 -84.5l-127 -653h-279l118 595q26 124 26 165q0 129 -152 129q-101 0 -187 -82t-108 -201l-118 -606h-282l286 1484h280z" />
    <glyph glyph-name="i" unicode="i" horiz-adv-x="569" 
d="M282 1277l41 207h281l-41 -207h-281zM35 0l210 1082h281l-211 -1082h-280z" />
    <glyph glyph-name="j" unicode="j" horiz-adv-x="569" 
d="M283 1277l40 207h281l-40 -207h-281zM-54 -425q-95 0 -166 19l36 188l58 -4q67 0 98.5 34.5t49.5 127.5l223 1142h281l-236 -1210q-29 -144 -116.5 -220.5t-227.5 -76.5z" />
    <glyph glyph-name="k" unicode="k" horiz-adv-x="1139" 
d="M728 0l-188 497l-140 -75l-85 -422h-280l288 1484h281l-167 -850l465 448h322l-473 -422l275 -660h-298z" />
    <glyph glyph-name="l" unicode="l" horiz-adv-x="569" 
d="M35 0l288 1484h281l-289 -1484h-280z" />
    <glyph glyph-name="m" unicode="m" horiz-adv-x="1821" 
d="M1322 892q-91 0 -158 -77t-93 -208l-119 -607h-279l123 635q17 91 17 136q0 121 -126 121q-88 0 -156.5 -75.5t-95.5 -212.5l-118 -604h-282l166 851q20 95 39 231h272q0 -11 -10.5 -77.5t-17.5 -107.5h3q77 116 151.5 160t176.5 44q124 0 196 -59.5t86 -172.5
q80 125 162.5 178.5t191.5 53.5q138 0 211.5 -73t73.5 -211q0 -64 -21 -164l-128 -653h-279l122 627q18 90 18 139v5q-3 121 -126 121z" />
    <glyph glyph-name="n" unicode="n" 
d="M738 0l118 595q26 124 26 165q0 129 -152 129q-101 0 -187 -82t-108 -201l-118 -606h-282l166 851q16 79 38 231h268q0 -9 -9.5 -84t-14.5 -101h3q75 104 165.5 154t207.5 50q152 0 229 -73t77 -211q0 -25 -7 -79.5t-14 -84.5l-127 -653h-279z" />
    <glyph glyph-name="o" unicode="o" 
d="M1185 683q0 -207 -81.5 -368t-231 -248t-337.5 -87q-218 0 -345 117.5t-127 321.5q0 201 79.5 356t226.5 240.5t335 85.5q235 0 358 -109.5t123 -308.5zM891 662q0 247 -208 247q-114 0 -181.5 -60t-105.5 -182.5t-38 -235.5q0 -259 208 -259q112 0 177.5 56.5t103 171.5
t44.5 262z" />
    <glyph glyph-name="p" unicode="p" 
d="M728 907q-126 0 -201.5 -88t-109.5 -265q-17 -93 -17 -153q0 -107 53 -167.5t148 -60.5q102 0 161 64t93 206t34 251q0 106 -38.5 159.5t-122.5 53.5zM493 913q72 100 154.5 144.5t200.5 44.5q159 0 248 -94.5t89 -259.5q0 -202 -62 -393.5t-174.5 -283t-286.5 -91.5
q-125 0 -203 52t-110 146h-2q-7 -62 -32 -188l-80 -415h-280l243 1258l20 110l19 139h275q0 -14 -7.5 -77.5t-15.5 -91.5h4z" />
    <glyph glyph-name="q" unicode="q" 
d="M898 903q25 123 47 179h270q-8 -27 -30 -133t-267 -1374h-281l85 432l36 156h-4q-75 -98 -159.5 -141t-200.5 -43q-152 0 -243.5 98t-91.5 271q0 196 64 379t180 279t277 96q130 0 201 -45.5t112 -153.5h5zM518 172q127 0 202 88.5t107 266.5q16 88 16 153
q0 230 -174 230q-110 0 -176 -64.5t-101.5 -200.5t-35.5 -259q0 -104 40.5 -159t121.5 -55z" />
    <glyph glyph-name="r" unicode="r" horiz-adv-x="797" 
d="M844 853q-69 15 -114 15q-123 0 -200.5 -87t-112.5 -267l-101 -514h-281l161 830q24 120 42 252h268l-22 -172l-8 -49h4q73 134 144 187.5t163 53.5q47 0 103 -14z" />
    <glyph glyph-name="s" unicode="s" horiz-adv-x="1139" 
d="M1000 334q0 -174 -128.5 -264t-374.5 -90q-201 0 -317 71t-157 220l251 36q21 -75 77 -108t166 -33q109 0 165.5 35t56.5 101q0 52 -41.5 79.5t-182.5 57.5q-199 45 -280.5 124.5t-81.5 205.5q0 160 125.5 245t358.5 85q206 0 307 -70.5t125 -217.5l-251 -29
q-17 69 -66 100t-134 31q-205 0 -205 -120q0 -33 20 -55t57 -38t178 -49q182 -41 257 -117t75 -200z" />
    <glyph glyph-name="t" unicode="t" horiz-adv-x="682" 
d="M376 -16q-124 0 -192 58.5t-68 166.5q0 71 16 157l102 526h-148l37 190h162l137 254h176l-48 -254h202l-35 -190h-205l-104 -535q-11 -56 -11 -89q0 -46 23.5 -68.5t63.5 -22.5q32 0 108 13l-32 -182q-81 -24 -184 -24z" />
    <glyph glyph-name="u" unicode="u" 
d="M512 1082l-118 -595q-26 -123 -26 -165q0 -129 152 -129q101 0 186.5 81t108.5 202l118 606h282l-166 -851q-16 -79 -38 -231h-268q0 9 9.5 84t14.5 101h-3q-76 -107 -166.5 -155.5t-206.5 -48.5q-152 0 -229 73t-77 211q0 25 7 80.5t14 83.5l127 653h279z" />
    <glyph glyph-name="v" unicode="v" horiz-adv-x="1139" 
d="M622 0h-336l-176 1082h289l71 -605q4 -30 13 -138t9 -131q61 143 122 266l316 608h302z" />
    <glyph glyph-name="w" unicode="w" horiz-adv-x="1593" 
d="M1207 0h-297l-43 660l-5 230q-53 -142 -95 -232l-302 -658h-297l-69 1082h258l14 -696v-131l27 68l52 123l294 636h301l42 -636l5 -191l53 132l291 695h266z" />
    <glyph glyph-name="x" unicode="x" horiz-adv-x="1139" 
d="M724 0l-186 383l-327 -383h-301l508 562l-279 520h292l173 -347l296 347h308l-483 -525l294 -557h-295z" />
    <glyph glyph-name="y" unicode="y" horiz-adv-x="1139" 
d="M88 -425q-97 0 -173 18l38 196q40 -9 87 -9q78 0 137.5 46t118.5 150l28 48l-212 1058h291l71 -497q6 -31 21.5 -178t13.5 -156l17 37l139 293l259 501h300l-654 -1139q-107 -167 -174.5 -235t-141 -100.5t-166.5 -32.5z" />
    <glyph glyph-name="z" unicode="z" horiz-adv-x="1024" 
d="M-10 0l38 199l613 680h-440l40 203h769l-39 -201l-610 -676h527l-40 -205h-858z" />
    <glyph glyph-name="braceleft" unicode="{" horiz-adv-x="797" 
d="M388 -425q-119 0 -187.5 60.5t-68.5 162.5q0 44 11 101l61 308q7 35 7 68q0 154 -192 158l38 192q231 4 274 227l67 338q29 146 112.5 220t237.5 74h194l-37 -190h-76q-82 0 -125 -46.5t-65 -158.5l-60 -310q-19 -94 -89 -160.5t-167 -86.5l-1 -4q74 -19 118.5 -69.5
t44.5 -125.5q0 -29 -5 -52l-65 -334q-9 -42 -9 -76q0 -53 33 -79t89 -26h80l-37 -191h-183z" />
    <glyph glyph-name="bar" unicode="|" horiz-adv-x="573" 
d="M191 -425v1909h262v-1909h-262z" />
    <glyph glyph-name="braceright" unicode="}" horiz-adv-x="797" 
d="M399 1485q119 0 187.5 -60.5t68.5 -162.5q0 -46 -11 -101l-61 -308q-7 -33 -7 -68q0 -77 46.5 -116.5t145.5 -41.5l-38 -192q-118 -2 -185 -58.5t-89 -169.5l-67 -337q-31 -152 -115.5 -223.5t-234.5 -71.5h-194l37 190h76q82 0 125 46.5t65 158.5l60 310q19 95 89 161.5
t167 86.5l1 3q-75 19 -119 70.5t-44 125.5q0 29 5 52l65 333q9 45 9 77q0 53 -33 79t-89 26h-80l37 191h183z" />
    <glyph glyph-name="asciitilde" unicode="~" horiz-adv-x="1196" 
d="M889 516q-75 0 -147.5 21t-147.5 47q-135 47 -221 47q-71 0 -130.5 -21.5t-124.5 -66.5v213q113 84 271 84q80 0 156.5 -22t150.5 -48q134 -47 212 -47q134 0 248 92v-219q-64 -44 -122.5 -62t-144.5 -18z" />
    <glyph glyph-name="exclamdown" unicode="&#xa1;" horiz-adv-x="682" 
d="M247 812l53 270h288l-53 -270h-288zM20 -327l222 981h230l-158 -981h-294z" />
    <glyph glyph-name="cent" unicode="&#xa2;" horiz-adv-x="1139" 
d="M549 328q83 0 137 52.5t86 155.5l271 -50q-52 -169 -167.5 -254t-291.5 -96l-32 -167h-162l32 174q-165 26 -255.5 134t-90.5 283q0 105 18 179q56 244 190 374.5t354 141.5l31 154h162l-32 -161q142 -23 227 -116t96 -236l-284 -23q-11 191 -167 191
q-107 0 -167.5 -73.5t-109.5 -260.5q-23 -115 -23 -168q0 -234 178 -234z" />
    <glyph glyph-name="sterling" unicode="&#xa3;" horiz-adv-x="1139" 
d="M1104 363q-42 -179 -156 -271t-285 -92h-714l39 205q94 38 151 104.5t78 171.5l25 123h-187l32 170h178l51 260q39 207 149 301.5t307 94.5q176 0 280.5 -79.5t121.5 -220.5l-245 -48q-15 84 -56.5 120.5t-112.5 36.5q-78 0 -120 -46t-62 -151l-53 -268h286l-33 -170
h-286l-27 -126q-42 -195 -232 -268h408q95 0 154.5 45t83.5 147z" />
    <glyph glyph-name="currency" unicode="&#xa4;" horiz-adv-x="1139" 
d="M149 684q0 120 60 221l-133 133l157 156l131 -133q101 59 220 59q121 0 219 -59l135 135l158 -158l-136 -135q60 -99 60 -219q0 -118 -58 -217l134 -133l-158 -160l-133 135q-100 -59 -221 -59q-122 0 -220 57l-135 -137l-157 158l135 137q-58 99 -58 219zM375 686
q0 -86 61 -147.5t148 -61.5q85 0 146.5 62t61.5 147q0 86 -61 147.5t-147 61.5t-147.5 -61t-61.5 -148z" />
    <glyph glyph-name="yen" unicode="&#xa5;" horiz-adv-x="1139" 
d="M797 691h276l-28 -146h-338l-32 -162h338l-28 -147h-338l-46 -236h-272l46 236h-336l28 147h337l32 162h-337l28 146h276l-224 718h284l154 -596l390 596h294z" />
    <glyph glyph-name="brokenbar" unicode="&#xa6;" horiz-adv-x="573" 
d="M192 736v748h262v-748h-262zM192 -425v749h262v-749h-262z" />
    <glyph glyph-name="section" unicode="&#xa7;" horiz-adv-x="1139" 
d="M718 1427q204 0 313.5 -70t116.5 -204l-244 -25q-12 68 -68 98.5t-139 30.5q-228 0 -228 -133q0 -38 26 -66t72 -48.5t155 -46.5q357 -82 357 -295q0 -112 -58 -185t-191 -115q63 -35 97.5 -93t34.5 -133q0 -182 -138.5 -276.5t-398.5 -94.5q-220 0 -334 69.5t-133 218.5
l244 37q14 -83 72 -119t164 -36q136 0 207 40t71 114q0 48 -25.5 79t-72 52t-202.5 57q-321 71 -321 302q0 209 271 276q-71 39 -108 100t-37 139q0 165 123 246t374 81zM571 780q-103 -6 -164 -45t-61 -109q0 -42 24.5 -71.5t68 -51t161.5 -49.5q111 9 170.5 45.5
t59.5 98.5q0 69 -54.5 108.5t-204.5 73.5z" />
    <glyph glyph-name="dieresis" unicode="&#xa8;" horiz-adv-x="682" 
d="M568 1199l43 219h217l-43 -219h-217zM135 1199l42 219h214l-43 -219h-213z" />
    <glyph glyph-name="copyright" unicode="&#xa9;" horiz-adv-x="1509" 
d="M1508 707q0 -193 -96.5 -361.5t-265 -265t-361.5 -96.5q-197 0 -366.5 100.5t-263 267t-93.5 355.5q0 193 97 361t265 265t361 97q194 0 362.5 -97.5t264.5 -264.5t96 -361zM1396 707q0 163 -82 303.5t-224 222.5t-305 82q-157 0 -297 -78t-225.5 -219.5t-85.5 -310.5
q0 -163 81.5 -305t222 -224t304.5 -82t306 82t223.5 224t81.5 305zM798 285q-193 0 -298.5 111t-105.5 313q0 203 102 309t293 106q130 0 217.5 -56t135.5 -173l-156 -41q-26 61 -74.5 95t-117.5 34q-109 0 -164.5 -70t-55.5 -204q0 -135 59 -209t165 -74q66 0 117 37
t79 106l160 -47q-58 -125 -145 -181t-211 -56z" />
    <glyph glyph-name="ordfeminine" unicode="&#xaa;" horiz-adv-x="758" 
d="M679 697q-66 0 -101.5 26t-35.5 72l3 41h-3q-56 -87 -109 -117t-129 -30q-89 0 -144.5 54t-55.5 141q0 117 83 179t270 65l123 2l5 26q9 36 9 61q0 82 -82 82q-60 0 -90 -23t-42 -68l-171 19q20 88 94 139.5t212 51.5q135 0 197.5 -46.5t62.5 -144.5q0 -13 -2 -28.5
t-61 -303.5l-5 -47q0 -43 52 -43q17 0 41 6l-10 -102q-35 -12 -111 -12zM561 1029l-98 -2q-77 -2 -121 -30.5t-44 -82.5q0 -51 25.5 -74.5t63.5 -23.5q52 0 96 41t62 112z" />
    <glyph glyph-name="guillemotleft" unicode="&#xab;" horiz-adv-x="1139" 
d="M722 139l-192 361l14 71l323 367h239l-6 -41l-329 -366l188 -353l-5 -39h-232zM264 139l-192 361l14 71l323 367h239l-6 -41l-329 -366l188 -353l-5 -39h-232z" />
    <glyph glyph-name="logicalnot" unicode="&#xac;" horiz-adv-x="1196" 
d="M878 141v428h-803v224h1027v-652h-224z" />
    <glyph glyph-name="registered" unicode="&#xae;" horiz-adv-x="1509" 
d="M1508 707q0 -193 -96.5 -361.5t-265 -265t-361.5 -96.5q-197 0 -366.5 100.5t-263 267t-93.5 355.5q0 193 97 361t265 265t361 97q194 0 362.5 -97.5t264.5 -264.5t96 -361zM1396 707q0 163 -82 303.5t-224 222.5t-305 82q-157 0 -297 -78t-225.5 -219.5t-85.5 -310.5
q0 -163 81.5 -305t222 -224t304.5 -82t306 82t223.5 224t81.5 305zM953 297l-178 313h-117v-313h-178v815h330q153 0 229 -64.5t76 -177.5q0 -94 -48 -153t-126 -84l213 -336h-201zM935 868q0 57 -37.5 87t-106.5 30h-133v-246h144q66 0 99.5 35.5t33.5 93.5z" />
    <glyph glyph-name="overscore" unicode="&#xaf;" horiz-adv-x="1131" 
d="M1148 1452h-1165v94h1165v-94z" />
    <glyph glyph-name="degree" unicode="&#xb0;" horiz-adv-x="819" 
d="M830 1110q0 -130 -93.5 -222.5t-227.5 -92.5q-132 0 -226 91t-94 224q0 86 42.5 159t116 114.5t161.5 41.5q135 0 228 -92.5t93 -222.5zM672 1110q0 70 -46.5 118t-116.5 48q-71 0 -118.5 -48.5t-47.5 -117.5t49 -118.5t117 -49.5q67 0 115 49t48 119z" />
    <glyph glyph-name="plusminus" unicode="&#xb1;" horiz-adv-x="1124" 
d="M712 707v-341h-224v341h-401v223h401v340h224v-340h402v-223h-402zM87 0v223h1027v-223h-1027z" />
    <glyph glyph-name="twosuperior" unicode="&#xb2;" horiz-adv-x="682" 
d="M71 696l24 120q40 63 104 115t174 114q92 50 130.5 92.5t38.5 93.5q0 29 -22 48.5t-57 19.5q-88 0 -114 -97l-162 34q31 99 100 144.5t192 45.5q115 0 181 -50.5t66 -136.5q0 -60 -25 -104.5t-63.5 -79t-86.5 -61.5t-94 -51.5t-85 -49t-61 -54.5h349l-25 -143h-564z" />
    <glyph glyph-name="threesuperior" unicode="&#xb3;" horiz-adv-x="682" 
d="M496 915q0 85 -111 85h-68l24 126h60q62 0 100 25t38 70q0 83 -83 83q-90 0 -115 -94l-163 24q26 98 96 145t202 47q118 0 184 -44.5t66 -134.5q0 -71 -50.5 -122t-132.5 -58l-1 -2q64 -12 103 -50.5t39 -101.5q0 -101 -85 -163t-230 -62q-246 0 -273 197l181 25
q17 -99 108 -99q46 0 78.5 26.5t32.5 77.5z" />
    <glyph glyph-name="acute" unicode="&#xb4;" horiz-adv-x="682" 
d="M255 1183l6 31l247 288h277l-8 -43l-376 -276h-146z" />
    <glyph glyph-name="mu1" unicode="&#xb5;" horiz-adv-x="1180" 
d="M875 -20q-88 0 -126.5 32.5t-38.5 109.5v21l2 21h-4q-42 -87 -95 -135.5t-134 -48.5q-59 0 -97.5 24.5t-53.5 65.5h-6l-16 -115l-73 -380h-280l291 1507h281l-118 -605q-11 -59 -13 -119q0 -165 125 -165q81 0 141 80t86 231l112 578h281l-147 -757q-9 -45 -9 -65
q0 -69 50 -69q23 0 46 7l-16 -193q-106 -25 -188 -25z" />
    <glyph glyph-name="paragraph" unicode="&#xb6;" horiz-adv-x="1139" 
d="M975 1266v-1530h-156v1530h-195v-1530h-155v958q-169 0 -266 92.5t-97 262.5q0 169 98.5 264.5t272.5 95.5h629v-143h-131z" />
    <glyph glyph-name="middot" unicode="&#xb7;" horiz-adv-x="682" 
d="M189 531l59 305h288l-59 -305h-288z" />
    <glyph glyph-name="cedilla" unicode="&#xb8;" horiz-adv-x="682" 
d="M194 -425q-50 0 -106 6l29 117q42 -7 82 -7q81 0 118 17.5t37 59.5q0 63 -110 63h-25l-28 -2l98 171h141l-48 -83q70 -1 113.5 -33.5t43.5 -98.5q0 -97 -84 -153.5t-261 -56.5z" />
    <glyph glyph-name="onesuperior" unicode="&#xb9;" horiz-adv-x="682" 
d="M98 693l23 121h184l91 468l-194 -108l24 122l202 117h175l-116 -599h170l-23 -121h-536z" />
    <glyph glyph-name="ordmasculine" unicode="&#xba;" horiz-adv-x="748" 
d="M828 1142q0 -203 -116.5 -328t-302.5 -125q-142 0 -224.5 78.5t-82.5 212.5q0 197 114 317.5t299 120.5q153 0 233 -73.5t80 -202.5zM625 1128q0 73 -31.5 112.5t-92.5 39.5q-52 0 -86 -19t-58.5 -58t-37.5 -101.5t-13 -114.5q0 -79 31.5 -120t91.5 -41q50 0 76 12
t46.5 37t34 56.5t24 77.5t15.5 119z" />
    <glyph glyph-name="guillemotright" unicode="&#xbb;" horiz-adv-x="1139" 
d="M422 938l192 -361l-14 -71l-323 -367h-239l6 41l329 366l-188 353l5 39h232zM880 938l192 -361l-14 -71l-323 -367h-239l6 41l329 366l-188 353l5 39h232z" />
    <glyph glyph-name="onequarter" unicode="&#xbc;" horiz-adv-x="1708" 
d="M98 693l23 121h184l91 468l-194 -108l24 122l202 117h175l-116 -599h170l-23 -121h-536zM429 0h-197l1086 1409h199zM1420 141l-27 -140h-183l27 140h-347l28 148l395 432h219l-84 -437h103l-28 -143h-103zM1063 284h202l62 299l-17 -22q-37 -52 -69 -86z" />
    <glyph glyph-name="onehalf" unicode="&#xbd;" horiz-adv-x="1708" 
d="M98 693l23 121h184l91 468l-194 -108l24 122l202 117h175l-116 -599h170l-23 -121h-536zM429 0h-197l1086 1409h199zM949 1l24 120q40 63 104 115t174 114q92 50 130.5 92.5t38.5 93.5q0 29 -22 48.5t-57 19.5q-88 0 -114 -97l-162 34q31 99 100 144.5t192 45.5
q115 0 181 -50.5t66 -136.5q0 -60 -25 -104.5t-63.5 -79t-86.5 -61.5t-94 -51.5t-85 -49t-61 -54.5h349l-25 -143h-564z" />
    <glyph glyph-name="threequarters" unicode="&#xbe;" horiz-adv-x="1708" 
d="M510 915q0 85 -111 85h-68l24 126h60q62 0 100 25t38 70q0 83 -83 83q-90 0 -115 -94l-163 24q26 98 96 145t202 47q118 0 184 -44.5t66 -134.5q0 -71 -50.5 -122t-132.5 -58l-1 -2q64 -12 103 -50.5t39 -101.5q0 -101 -85 -163t-230 -62q-246 0 -273 197l181 25
q17 -99 108 -99q46 0 78.5 26.5t32.5 77.5zM429 0h-197l1086 1409h199zM1420 141l-27 -140h-183l27 140h-347l28 148l395 432h219l-84 -437h103l-28 -143h-103zM1063 284h202l62 299l-17 -22q-37 -52 -69 -86z" />
    <glyph glyph-name="questiondown" unicode="&#xbf;" 
d="M490 -348q-214 0 -339 94t-125 261q0 90 37.5 161t105.5 131.5t225 147.5q83 55 110 81.5t43.5 57t21.5 70.5h267q-14 -77 -45 -134.5t-79.5 -104t-166.5 -119.5q-69 -43 -114.5 -76t-72.5 -63.5t-38 -61.5t-11 -70q0 -63 48 -104.5t149 -41.5q227 0 279 193l266 -40
q-117 -382 -561 -382zM926 1082l-52 -270h-289l52 270h289z" />
    <glyph glyph-name="Agrave" unicode="&#xc0;" horiz-adv-x="1479" 
d="M1039 0l-55 360h-537l-195 -360h-294l787 1409h348l238 -1409h-292zM876 1192q-21 -64 -98 -212l-212 -398h395l-67 452q-18 135 -18 158zM954 1530l-304 235l9 43h238l203 -247l-7 -31h-139z" />
    <glyph glyph-name="Aacute" unicode="&#xc1;" horiz-adv-x="1479" 
d="M1039 0l-55 360h-537l-195 -360h-294l787 1409h348l238 -1409h-292zM876 1192q-21 -64 -98 -212l-212 -398h395l-67 452q-18 135 -18 158zM764 1530l7 31l270 247h267l-9 -43l-386 -235h-149z" />
    <glyph glyph-name="Acircumflex" unicode="&#xc2;" horiz-adv-x="1479" 
d="M1039 0l-55 360h-537l-195 -360h-294l787 1409h348l238 -1409h-292zM876 1192q-21 -64 -98 -212l-212 -398h395l-67 452q-18 135 -18 158zM1288 1559l-5 -29h-149l-174 151h-4l-240 -151h-169l5 29l311 276h229z" />
    <glyph glyph-name="Atilde" unicode="&#xc3;" horiz-adv-x="1479" 
d="M1039 0l-55 360h-537l-195 -360h-294l787 1409h348l238 -1409h-292zM876 1192q-21 -64 -98 -212l-212 -398h395l-67 452q-18 135 -18 158zM1067 1530q-44 0 -84.5 19t-78 42.5t-71.5 42.5t-64 19q-42 0 -69.5 -25.5t-52.5 -97.5h-136q39 158 108.5 225.5t172.5 67.5
q45 0 86.5 -19t78.5 -42.5t70 -42.5t62 -19q43 0 71 28t52 95h135q-39 -158 -108.5 -225.5t-171.5 -67.5z" />
    <glyph glyph-name="Adieresis" unicode="&#xc4;" horiz-adv-x="1479" 
d="M1039 0l-55 360h-537l-195 -360h-294l787 1409h348l238 -1409h-292zM876 1192q-21 -64 -98 -212l-212 -398h395l-67 452q-18 135 -18 158zM1040 1530l43 219h217l-43 -219h-217zM607 1530l42 219h214l-43 -219h-213z" />
    <glyph glyph-name="Aring" unicode="&#xc5;" horiz-adv-x="1479" 
d="M1039 0l-55 360h-537l-195 -360h-294l787 1409h348l238 -1409h-292zM876 1192q-21 -64 -98 -212l-212 -398h395l-67 452q-18 135 -18 158zM1180 1538q0 -105 -73.5 -179.5t-180.5 -74.5t-180.5 74.5t-73.5 179.5t74.5 179.5t179.5 74.5t179.5 -74.5t74.5 -179.5z
M1053 1538q0 51 -36.5 88t-90.5 37q-51 0 -88 -36t-37 -89q0 -56 37 -92t88 -36q53 0 90 37t37 91z" />
    <glyph glyph-name="AE" unicode="&#xc6;" horiz-adv-x="2048" 
d="M837 0l70 360h-450l-242 -360h-312l965 1409h1231l-45 -227h-701l-69 -355h639l-43 -221h-639l-73 -379h742l-44 -227h-1029zM1068 1192h-61l-136 -209l-269 -401h348z" />
    <glyph glyph-name="Ccedilla" unicode="&#xc7;" horiz-adv-x="1479" 
d="M382 573q0 -173 85.5 -267.5t244.5 -94.5q266 0 418 258l227 -117q-210 -372 -665 -372q-191 0 -329.5 72t-210 205.5t-71.5 311.5q0 252 105 450.5t293.5 304.5t428.5 106q230 0 377.5 -98.5t198.5 -293.5l-274 -71q-29 107 -111 169t-200 62q-242 0 -379.5 -168
t-137.5 -457zM543 -425q-50 0 -106 6l29 117q42 -7 82 -7q81 0 118 17.5t37 59.5q0 63 -110 63h-25l-28 -2l98 171h141l-48 -83q70 -1 113.5 -33.5t43.5 -98.5q0 -97 -84 -153.5t-261 -56.5z" />
    <glyph glyph-name="Egrave" unicode="&#xc8;" horiz-adv-x="1366" 
d="M36 0l273 1409h1108l-44 -228h-813l-69 -354h752l-44 -228h-752l-72 -371h854l-45 -228h-1148zM860 1530l-304 235l9 43h238l203 -247l-7 -31h-139z" />
    <glyph glyph-name="Eacute" unicode="&#xc9;" horiz-adv-x="1366" 
d="M36 0l273 1409h1108l-44 -228h-813l-69 -354h752l-44 -228h-752l-72 -371h854l-45 -228h-1148zM714 1530l7 31l270 247h267l-9 -43l-386 -235h-149z" />
    <glyph glyph-name="Ecircumflex" unicode="&#xca;" horiz-adv-x="1366" 
d="M36 0l273 1409h1108l-44 -228h-813l-69 -354h752l-44 -228h-752l-72 -371h854l-45 -228h-1148zM1254 1559l-5 -29h-149l-174 151h-4l-240 -151h-169l5 29l311 276h229z" />
    <glyph glyph-name="Edieresis" unicode="&#xcb;" horiz-adv-x="1366" 
d="M36 0l273 1409h1108l-44 -228h-813l-69 -354h752l-44 -228h-752l-72 -371h854l-45 -228h-1148zM995 1530l43 219h217l-43 -219h-217zM562 1530l42 219h214l-43 -219h-213z" />
    <glyph glyph-name="Igrave" unicode="&#xcc;" horiz-adv-x="569" 
d="M36 0l273 1409h295l-274 -1409h-294zM482 1530l-304 235l9 43h238l203 -247l-7 -31h-139z" />
    <glyph glyph-name="Iacute" unicode="&#xcd;" horiz-adv-x="569" 
d="M36 0l273 1409h295l-274 -1409h-294zM326 1530l7 31l270 247h267l-9 -43l-386 -235h-149z" />
    <glyph glyph-name="Icircumflex" unicode="&#xce;" horiz-adv-x="569" 
d="M36 0l273 1409h295l-274 -1409h-294zM846 1559l-5 -29h-149l-174 151h-4l-240 -151h-169l5 29l311 276h229z" />
    <glyph glyph-name="Idieresis" unicode="&#xcf;" horiz-adv-x="569" 
d="M36 0l273 1409h295l-274 -1409h-294zM584 1530l43 219h217l-43 -219h-217zM151 1530l42 219h214l-43 -219h-213z" />
    <glyph glyph-name="Eth" unicode="&#xd0;" horiz-adv-x="1479" 
d="M734 1409q333 0 510 -155t177 -447q0 -236 -99 -417t-287 -285.5t-421 -104.5h-578l115 594h-128l42 219h129l116 596h424zM488 813h357l-44 -219h-355l-71 -366h230q160 0 283.5 68.5t190 197.5t66.5 300q0 189 -105.5 288t-303.5 99h-176z" />
    <glyph glyph-name="Ntilde" unicode="&#xd1;" horiz-adv-x="1479" 
d="M884 0l-374 1131q-23 -162 -38 -239l-174 -892h-262l274 1409h350l377 -1141l12 82q11 83 29 174l174 885h262l-274 -1409h-356zM1100 1530q-44 0 -84.5 19t-78 42.5t-71.5 42.5t-64 19q-42 0 -69.5 -25.5t-52.5 -97.5h-136q39 158 108.5 225.5t172.5 67.5q45 0 86.5 -19
t78.5 -42.5t70 -42.5t62 -19q43 0 71 28t52 95h135q-39 -158 -108.5 -225.5t-171.5 -67.5z" />
    <glyph glyph-name="Ograve" unicode="&#xd2;" horiz-adv-x="1593" 
d="M928 1430q293 0 462 -155.5t169 -423.5q0 -247 -105.5 -450.5t-294.5 -312t-432 -108.5q-193 0 -335.5 72t-217 206.5t-74.5 314.5q0 235 105.5 438.5t292.5 311t430 107.5zM914 1197q-162 0 -276 -75t-176 -226t-62 -315q0 -184 90 -276.5t251 -92.5t275 75t176.5 223
t62.5 317q0 176 -87.5 273t-253.5 97zM988 1530l-304 235l9 43h238l203 -247l-7 -31h-139z" />
    <glyph glyph-name="Oacute" unicode="&#xd3;" horiz-adv-x="1593" 
d="M928 1430q293 0 462 -155.5t169 -423.5q0 -247 -105.5 -450.5t-294.5 -312t-432 -108.5q-193 0 -335.5 72t-217 206.5t-74.5 314.5q0 235 105.5 438.5t292.5 311t430 107.5zM914 1197q-162 0 -276 -75t-176 -226t-62 -315q0 -184 90 -276.5t251 -92.5t275 75t176.5 223
t62.5 317q0 176 -87.5 273t-253.5 97zM857 1530l7 31l270 247h267l-9 -43l-386 -235h-149z" />
    <glyph glyph-name="Ocircumflex" unicode="&#xd4;" horiz-adv-x="1593" 
d="M928 1430q293 0 462 -155.5t169 -423.5q0 -247 -105.5 -450.5t-294.5 -312t-432 -108.5q-193 0 -335.5 72t-217 206.5t-74.5 314.5q0 235 105.5 438.5t292.5 311t430 107.5zM914 1197q-162 0 -276 -75t-176 -226t-62 -315q0 -184 90 -276.5t251 -92.5t275 75t176.5 223
t62.5 317q0 176 -87.5 273t-253.5 97zM1317 1559l-5 -29h-149l-174 151h-4l-240 -151h-169l5 29l311 276h229z" />
    <glyph glyph-name="Otilde" unicode="&#xd5;" horiz-adv-x="1593" 
d="M928 1430q293 0 462 -155.5t169 -423.5q0 -247 -105.5 -450.5t-294.5 -312t-432 -108.5q-193 0 -335.5 72t-217 206.5t-74.5 314.5q0 235 105.5 438.5t292.5 311t430 107.5zM914 1197q-162 0 -276 -75t-176 -226t-62 -315q0 -184 90 -276.5t251 -92.5t275 75t176.5 223
t62.5 317q0 176 -87.5 273t-253.5 97zM1136 1530q-44 0 -84.5 19t-78 42.5t-71.5 42.5t-64 19q-42 0 -69.5 -25.5t-52.5 -97.5h-136q39 158 108.5 225.5t172.5 67.5q45 0 86.5 -19t78.5 -42.5t70 -42.5t62 -19q43 0 71 28t52 95h135q-39 -158 -108.5 -225.5t-171.5 -67.5z
" />
    <glyph glyph-name="Odieresis" unicode="&#xd6;" horiz-adv-x="1593" 
d="M928 1430q293 0 462 -155.5t169 -423.5q0 -247 -105.5 -450.5t-294.5 -312t-432 -108.5q-193 0 -335.5 72t-217 206.5t-74.5 314.5q0 235 105.5 438.5t292.5 311t430 107.5zM914 1197q-162 0 -276 -75t-176 -226t-62 -315q0 -184 90 -276.5t251 -92.5t275 75t176.5 223
t62.5 317q0 176 -87.5 273t-253.5 97zM1082 1530l43 219h217l-43 -219h-217zM649 1530l42 219h214l-43 -219h-213z" />
    <glyph glyph-name="multiply" unicode="&#xd7;" horiz-adv-x="1196" 
d="M126 326l356 358l-352 352l158 156l352 -350l352 352l158 -158l-352 -354l352 -350l-158 -160l-352 354l-356 -358z" />
    <glyph glyph-name="Oslash" unicode="&#xd8;" horiz-adv-x="1593" 
d="M928 1430q237 0 396 -104l131 140h203l-223 -239q124 -148 124 -376q0 -247 -105.5 -450.5t-294.5 -312t-432 -108.5q-222 0 -370 91l-115 -124h-207l205 220q-140 158 -140 406q0 235 105.5 438.5t292.5 311t430 107.5zM914 1197q-162 0 -276 -75t-176 -226t-62 -315
q0 -121 39 -202l699 748q-87 70 -224 70zM1255 827q0 100 -29 175l-688 -738q79 -52 203 -52q161 0 275 75t176.5 223t62.5 317z" />
    <glyph glyph-name="Ugrave" unicode="&#xd9;" horiz-adv-x="1479" 
d="M688 211q165 0 250.5 76t119.5 254l168 868h295l-171 -879q-55 -281 -220 -415.5t-458 -134.5q-264 0 -408.5 117.5t-144.5 333.5q0 44 7.5 105.5t15.5 98.5l148 774h295l-153 -810q-18 -87 -18 -172q0 -103 73 -159.5t201 -56.5zM927 1530l-304 235l9 43h238l203 -247
l-7 -31h-139z" />
    <glyph glyph-name="Uacute" unicode="&#xda;" horiz-adv-x="1479" 
d="M688 211q165 0 250.5 76t119.5 254l168 868h295l-171 -879q-55 -281 -220 -415.5t-458 -134.5q-264 0 -408.5 117.5t-144.5 333.5q0 44 7.5 105.5t15.5 98.5l148 774h295l-153 -810q-18 -87 -18 -172q0 -103 73 -159.5t201 -56.5zM789 1530l7 31l270 247h267l-9 -43
l-386 -235h-149z" />
    <glyph glyph-name="Ucircumflex" unicode="&#xdb;" horiz-adv-x="1479" 
d="M688 211q165 0 250.5 76t119.5 254l168 868h295l-171 -879q-55 -281 -220 -415.5t-458 -134.5q-264 0 -408.5 117.5t-144.5 333.5q0 44 7.5 105.5t15.5 98.5l148 774h295l-153 -810q-18 -87 -18 -172q0 -103 73 -159.5t201 -56.5zM1290 1559l-5 -29h-149l-174 151h-4
l-240 -151h-169l5 29l311 276h229z" />
    <glyph glyph-name="Udieresis" unicode="&#xdc;" horiz-adv-x="1479" 
d="M688 211q165 0 250.5 76t119.5 254l168 868h295l-171 -879q-55 -281 -220 -415.5t-458 -134.5q-264 0 -408.5 117.5t-144.5 333.5q0 44 7.5 105.5t15.5 98.5l148 774h295l-153 -810q-18 -87 -18 -172q0 -103 73 -159.5t201 -56.5zM1033 1530l43 219h217l-43 -219h-217z
M600 1530l42 219h214l-43 -219h-213z" />
    <glyph glyph-name="Yacute" unicode="&#xdd;" horiz-adv-x="1366" 
d="M724 0h-294l112 578l-370 831h292l259 -605l474 605h323l-684 -831zM716 1530l7 31l270 247h267l-9 -43l-386 -235h-149z" />
    <glyph glyph-name="Thorn" unicode="&#xde;" horiz-adv-x="1366" 
d="M331 0h-295l274 1409h295l-44 -225h246q246 0 382.5 -112t136.5 -310q0 -225 -153.5 -358t-410.5 -133h-378zM428 498h289q155 0 232.5 58t77.5 190q0 102 -64 155.5t-184 53.5h-262z" />
    <glyph glyph-name="germandbls" unicode="&#xdf;" 
d="M35 0l200 1027q50 237 188.5 347t373.5 110q181 0 285.5 -77t104.5 -211q0 -165 -143 -272q-86 -64 -115 -96t-29 -69q0 -40 27 -72.5t99 -85.5q126 -94 126 -256q0 -167 -110.5 -266t-292.5 -99q-203 0 -321 57l68 186q78 -36 126 -46.5t98 -10.5q80 0 121.5 42
t41.5 114q0 51 -28 90.5t-94 88.5q-64 46 -93.5 97.5t-29.5 119.5t34.5 122.5t112.5 112.5q78 59 112 108t34 107q0 53 -36.5 83t-106.5 30q-116 0 -182.5 -64t-92.5 -196l-197 -1021h-281z" />
    <glyph glyph-name="agrave" unicode="&#xe0;" horiz-adv-x="1139" 
d="M892 -10q-100 0 -154 42t-54 111q0 37 5 64h-6q-84 -130 -166 -178.5t-200 -48.5q-140 0 -223.5 83.5t-83.5 214.5q0 185 127.5 279.5t413.5 99.5l191 3q21 95 21 131q0 128 -127 128q-94 0 -140 -36.5t-63 -105.5l-263 31q34 144 153.5 219t317.5 75q207 0 303.5 -73
t96.5 -222q0 -37 -24 -157l-71 -353q-8 -45 -8 -72q0 -24 10 -37t23 -19t26 -7.5t20 -1.5q30 0 62 7l-14 -155q-42 -16 -85 -19t-88 -3zM711 503h-162q-117 -2 -184.5 -48t-67.5 -130q0 -70 39.5 -109.5t106.5 -39.5q83 0 151 64.5t95 170.5zM700 1183l-307 276l8 43h258
l195 -288l-6 -31h-148z" />
    <glyph glyph-name="aacute" unicode="&#xe1;" horiz-adv-x="1139" 
d="M892 -10q-100 0 -154 42t-54 111q0 37 5 64h-6q-84 -130 -166 -178.5t-200 -48.5q-140 0 -223.5 83.5t-83.5 214.5q0 185 127.5 279.5t413.5 99.5l191 3q21 95 21 131q0 128 -127 128q-94 0 -140 -36.5t-63 -105.5l-263 31q34 144 153.5 219t317.5 75q207 0 303.5 -73
t96.5 -222q0 -37 -24 -157l-71 -353q-8 -45 -8 -72q0 -24 10 -37t23 -19t26 -7.5t20 -1.5q30 0 62 7l-14 -155q-42 -16 -85 -19t-88 -3zM711 503h-162q-117 -2 -184.5 -48t-67.5 -130q0 -70 39.5 -109.5t106.5 -39.5q83 0 151 64.5t95 170.5zM542 1183l6 31l247 288h277
l-8 -43l-376 -276h-146z" />
    <glyph glyph-name="acircumflex" unicode="&#xe2;" horiz-adv-x="1139" 
d="M892 -10q-100 0 -154 42t-54 111q0 37 5 64h-6q-84 -130 -166 -178.5t-200 -48.5q-140 0 -223.5 83.5t-83.5 214.5q0 185 127.5 279.5t413.5 99.5l191 3q21 95 21 131q0 128 -127 128q-94 0 -140 -36.5t-63 -105.5l-263 31q34 144 153.5 219t317.5 75q207 0 303.5 -73
t96.5 -222q0 -37 -24 -157l-71 -353q-8 -45 -8 -72q0 -24 10 -37t23 -19t26 -7.5t20 -1.5q30 0 62 7l-14 -155q-42 -16 -85 -19t-88 -3zM711 503h-162q-117 -2 -184.5 -48t-67.5 -130q0 -70 39.5 -109.5t106.5 -39.5q83 0 151 64.5t95 170.5zM1049 1211l-5 -28h-150
l-166 192h-4l-248 -192h-169l5 28l320 318h229z" />
    <glyph glyph-name="atilde" unicode="&#xe3;" horiz-adv-x="1139" 
d="M892 -10q-100 0 -154 42t-54 111q0 37 5 64h-6q-84 -130 -166 -178.5t-200 -48.5q-140 0 -223.5 83.5t-83.5 214.5q0 185 127.5 279.5t413.5 99.5l191 3q21 95 21 131q0 128 -127 128q-94 0 -140 -36.5t-63 -105.5l-263 31q34 144 153.5 219t317.5 75q207 0 303.5 -73
t96.5 -222q0 -37 -24 -157l-71 -353q-8 -45 -8 -72q0 -24 10 -37t23 -19t26 -7.5t20 -1.5q30 0 62 7l-14 -155q-42 -16 -85 -19t-88 -3zM711 503h-162q-117 -2 -184.5 -48t-67.5 -130q0 -70 39.5 -109.5t106.5 -39.5q83 0 151 64.5t95 170.5zM828 1183q-44 0 -84.5 19
t-78 42.5t-71.5 42.5t-64 19q-42 0 -69.5 -25.5t-52.5 -97.5h-136q39 158 108.5 225.5t172.5 67.5q45 0 86.5 -19t78.5 -42.5t70 -42.5t62 -19q43 0 71 28t52 95h135q-39 -158 -108.5 -225.5t-171.5 -67.5z" />
    <glyph glyph-name="adieresis" unicode="&#xe4;" horiz-adv-x="1139" 
d="M892 -10q-100 0 -154 42t-54 111q0 37 5 64h-6q-84 -130 -166 -178.5t-200 -48.5q-140 0 -223.5 83.5t-83.5 214.5q0 185 127.5 279.5t413.5 99.5l191 3q21 95 21 131q0 128 -127 128q-94 0 -140 -36.5t-63 -105.5l-263 31q34 144 153.5 219t317.5 75q207 0 303.5 -73
t96.5 -222q0 -37 -24 -157l-71 -353q-8 -45 -8 -72q0 -24 10 -37t23 -19t26 -7.5t20 -1.5q30 0 62 7l-14 -155q-42 -16 -85 -19t-88 -3zM711 503h-162q-117 -2 -184.5 -48t-67.5 -130q0 -70 39.5 -109.5t106.5 -39.5q83 0 151 64.5t95 170.5zM784 1199l43 219h217l-43 -219
h-217zM351 1199l42 219h214l-43 -219h-213z" />
    <glyph glyph-name="aring" unicode="&#xe5;" horiz-adv-x="1139" 
d="M892 -10q-100 0 -154 42t-54 111q0 37 5 64h-6q-84 -130 -166 -178.5t-200 -48.5q-140 0 -223.5 83.5t-83.5 214.5q0 185 127.5 279.5t413.5 99.5l191 3q21 95 21 131q0 128 -127 128q-94 0 -140 -36.5t-63 -105.5l-263 31q34 144 153.5 219t317.5 75q207 0 303.5 -73
t96.5 -222q0 -37 -24 -157l-71 -353q-8 -45 -8 -72q0 -24 10 -37t23 -19t26 -7.5t20 -1.5q30 0 62 7l-14 -155q-42 -16 -85 -19t-88 -3zM711 503h-162q-117 -2 -184.5 -48t-67.5 -130q0 -70 39.5 -109.5t106.5 -39.5q83 0 151 64.5t95 170.5zM961 1431q0 -105 -73.5 -179.5
t-180.5 -74.5t-180.5 74.5t-73.5 179.5t74.5 179.5t179.5 74.5t179.5 -74.5t74.5 -179.5zM834 1431q0 51 -36.5 88t-90.5 37q-51 0 -88 -36t-37 -89q0 -56 37 -92t88 -36q53 0 90 37t37 91z" />
    <glyph glyph-name="ae" unicode="&#xe6;" horiz-adv-x="1821" 
d="M1027 476q-7 -38 -7 -89q0 -106 46.5 -162.5t137.5 -56.5q147 0 213 169l245 -74q-75 -159 -186 -221t-291 -62q-297 0 -394 219q-51 -80 -113.5 -127.5t-136 -69.5t-192.5 -22q-140 0 -223.5 83.5t-83.5 214.5q0 382 541 382h191q21 95 21 131q0 128 -127 128
q-94 0 -140 -36.5t-63 -105.5l-263 31q34 144 153.5 219t317.5 75q207 0 300 -113q140 113 342 113q209 0 322.5 -107.5t113.5 -303.5q0 -99 -24 -215h-700zM743 500h-161q-113 0 -177 -46t-64 -129q0 -72 34.5 -110.5t99.5 -38.5q83 0 151 64.5t95 170.5zM1491 663l3 56
q0 107 -49.5 156t-129.5 49q-96 0 -161.5 -66.5t-93.5 -194.5h431z" />
    <glyph glyph-name="ccedilla" unicode="&#xe7;" horiz-adv-x="1139" 
d="M536 173q83 0 137 52.5t86 155.5l271 -50q-107 -351 -510 -351q-220 0 -338.5 112.5t-118.5 312.5q0 195 79 366t210.5 251t327.5 80q189 0 302 -95.5t127 -265.5l-284 -23q-11 191 -167 191q-107 0 -167.5 -73.5t-109.5 -260.5q-23 -115 -23 -168q0 -234 178 -234z
M386 -425q-50 0 -106 6l29 117q42 -7 82 -7q81 0 118 17.5t37 59.5q0 63 -110 63h-25l-28 -2l98 171h141l-48 -83q70 -1 113.5 -33.5t43.5 -98.5q0 -97 -84 -153.5t-261 -56.5z" />
    <glyph glyph-name="egrave" unicode="&#xe8;" horiz-adv-x="1139" 
d="M358 476q-7 -38 -7 -89q0 -106 46.5 -162.5t137.5 -56.5q147 0 213 169l245 -74q-75 -159 -186 -221t-291 -62q-213 0 -333 115.5t-120 322.5t72 362.5t204.5 238.5t306.5 83q209 0 322.5 -107.5t113.5 -303.5q0 -99 -24 -215h-700zM822 663l3 56q0 107 -49.5 156
t-129.5 49q-96 0 -161.5 -66.5t-93.5 -194.5h431zM715 1183l-307 276l8 43h258l195 -288l-6 -31h-148z" />
    <glyph glyph-name="eacute" unicode="&#xe9;" horiz-adv-x="1139" 
d="M358 476q-7 -38 -7 -89q0 -106 46.5 -162.5t137.5 -56.5q147 0 213 169l245 -74q-75 -159 -186 -221t-291 -62q-213 0 -333 115.5t-120 322.5t72 362.5t204.5 238.5t306.5 83q209 0 322.5 -107.5t113.5 -303.5q0 -99 -24 -215h-700zM822 663l3 56q0 107 -49.5 156
t-129.5 49q-96 0 -161.5 -66.5t-93.5 -194.5h431zM524 1183l6 31l247 288h277l-8 -43l-376 -276h-146z" />
    <glyph glyph-name="ecircumflex" unicode="&#xea;" horiz-adv-x="1139" 
d="M358 476q-7 -38 -7 -89q0 -106 46.5 -162.5t137.5 -56.5q147 0 213 169l245 -74q-75 -159 -186 -221t-291 -62q-213 0 -333 115.5t-120 322.5t72 362.5t204.5 238.5t306.5 83q209 0 322.5 -107.5t113.5 -303.5q0 -99 -24 -215h-700zM822 663l3 56q0 107 -49.5 156
t-129.5 49q-96 0 -161.5 -66.5t-93.5 -194.5h431zM1049 1211l-5 -28h-150l-166 192h-4l-248 -192h-169l5 28l320 318h229z" />
    <glyph glyph-name="edieresis" unicode="&#xeb;" horiz-adv-x="1139" 
d="M358 476q-7 -38 -7 -89q0 -106 46.5 -162.5t137.5 -56.5q147 0 213 169l245 -74q-75 -159 -186 -221t-291 -62q-213 0 -333 115.5t-120 322.5t72 362.5t204.5 238.5t306.5 83q209 0 322.5 -107.5t113.5 -303.5q0 -99 -24 -215h-700zM822 663l3 56q0 107 -49.5 156
t-129.5 49q-96 0 -161.5 -66.5t-93.5 -194.5h431zM795 1199l43 219h217l-43 -219h-217zM362 1199l42 219h214l-43 -219h-213z" />
    <glyph glyph-name="igrave" unicode="&#xec;" horiz-adv-x="569" 
d="M35 0l210 1082h281l-211 -1082h-280zM405 1183l-307 276l8 43h258l195 -288l-6 -31h-148z" />
    <glyph glyph-name="iacute" unicode="&#xed;" horiz-adv-x="569" 
d="M35 0l210 1082h281l-211 -1082h-280zM258 1183l6 31l247 288h277l-8 -43l-376 -276h-146z" />
    <glyph glyph-name="icircumflex" unicode="&#xee;" horiz-adv-x="569" 
d="M35 0l210 1082h281l-211 -1082h-280zM769 1211l-5 -28h-150l-166 192h-4l-248 -192h-169l5 28l320 318h229z" />
    <glyph glyph-name="idieresis" unicode="&#xef;" horiz-adv-x="569" 
d="M35 0l210 1082h281l-211 -1082h-280zM514 1199l43 219h217l-43 -219h-217zM81 1199l42 219h214l-43 -219h-213z" />
    <glyph glyph-name="eth" unicode="&#xf0;" 
d="M661 1305q-124 121 -222 179h293q72 -38 141 -94l295 109l-32 -176l-145 -54q95 -123 138 -251.5t43 -289.5q0 -354 -171 -551t-474 -197q-219 0 -344 115.5t-125 314.5q0 258 159 413.5t432 155.5q61 0 128 -18.5t104 -44.5q-32 140 -125 264l-277 -111l33 179zM658 787
q-138 0 -222 -108t-84 -284q0 -102 55 -162.5t148 -60.5q87 0 159.5 57.5t113 158t40.5 218.5q0 85 -53 133t-157 48z" />
    <glyph glyph-name="ntilde" unicode="&#xf1;" 
d="M738 0l118 595q26 124 26 165q0 129 -152 129q-101 0 -187 -82t-108 -201l-118 -606h-282l166 851q16 79 38 231h268q0 -9 -9.5 -84t-14.5 -101h3q75 104 165.5 154t207.5 50q152 0 229 -73t77 -211q0 -25 -7 -79.5t-14 -84.5l-127 -653h-279zM919 1183q-44 0 -84.5 19
t-78 42.5t-71.5 42.5t-64 19q-42 0 -69.5 -25.5t-52.5 -97.5h-136q39 158 108.5 225.5t172.5 67.5q45 0 86.5 -19t78.5 -42.5t70 -42.5t62 -19q43 0 71 28t52 95h135q-39 -158 -108.5 -225.5t-171.5 -67.5z" />
    <glyph glyph-name="ograve" unicode="&#xf2;" 
d="M1185 683q0 -207 -81.5 -368t-231 -248t-337.5 -87q-218 0 -345 117.5t-127 321.5q0 201 79.5 356t226.5 240.5t335 85.5q235 0 358 -109.5t123 -308.5zM891 662q0 247 -208 247q-114 0 -181.5 -60t-105.5 -182.5t-38 -235.5q0 -259 208 -259q112 0 177.5 56.5t103 171.5
t44.5 262zM739 1183l-307 276l8 43h258l195 -288l-6 -31h-148z" />
    <glyph glyph-name="oacute" unicode="&#xf3;" 
d="M1185 683q0 -207 -81.5 -368t-231 -248t-337.5 -87q-218 0 -345 117.5t-127 321.5q0 201 79.5 356t226.5 240.5t335 85.5q235 0 358 -109.5t123 -308.5zM891 662q0 247 -208 247q-114 0 -181.5 -60t-105.5 -182.5t-38 -235.5q0 -259 208 -259q112 0 177.5 56.5t103 171.5
t44.5 262zM619 1183l6 31l247 288h277l-8 -43l-376 -276h-146z" />
    <glyph glyph-name="ocircumflex" unicode="&#xf4;" 
d="M1185 683q0 -207 -81.5 -368t-231 -248t-337.5 -87q-218 0 -345 117.5t-127 321.5q0 201 79.5 356t226.5 240.5t335 85.5q235 0 358 -109.5t123 -308.5zM891 662q0 247 -208 247q-114 0 -181.5 -60t-105.5 -182.5t-38 -235.5q0 -259 208 -259q112 0 177.5 56.5t103 171.5
t44.5 262zM1102 1211l-5 -28h-150l-166 192h-4l-248 -192h-169l5 28l320 318h229z" />
    <glyph glyph-name="otilde" unicode="&#xf5;" 
d="M1185 683q0 -207 -81.5 -368t-231 -248t-337.5 -87q-218 0 -345 117.5t-127 321.5q0 201 79.5 356t226.5 240.5t335 85.5q235 0 358 -109.5t123 -308.5zM891 662q0 247 -208 247q-114 0 -181.5 -60t-105.5 -182.5t-38 -235.5q0 -259 208 -259q112 0 177.5 56.5t103 171.5
t44.5 262zM892 1183q-44 0 -84.5 19t-78 42.5t-71.5 42.5t-64 19q-42 0 -69.5 -25.5t-52.5 -97.5h-136q39 158 108.5 225.5t172.5 67.5q45 0 86.5 -19t78.5 -42.5t70 -42.5t62 -19q43 0 71 28t52 95h135q-39 -158 -108.5 -225.5t-171.5 -67.5z" />
    <glyph glyph-name="odieresis" unicode="&#xf6;" 
d="M1185 683q0 -207 -81.5 -368t-231 -248t-337.5 -87q-218 0 -345 117.5t-127 321.5q0 201 79.5 356t226.5 240.5t335 85.5q235 0 358 -109.5t123 -308.5zM891 662q0 247 -208 247q-114 0 -181.5 -60t-105.5 -182.5t-38 -235.5q0 -259 208 -259q112 0 177.5 56.5t103 171.5
t44.5 262zM858 1199l43 219h217l-43 -219h-217zM425 1199l42 219h214l-43 -219h-213z" />
    <glyph glyph-name="divide" unicode="&#xf7;" horiz-adv-x="1124" 
d="M462 961v233h238v-233h-238zM69 569v224h1027v-224h-1027zM462 170v233h238v-233h-238z" />
    <glyph glyph-name="oslash" unicode="&#xf8;" 
d="M42 -38l131 152q-110 114 -110 305q0 201 79.5 356t226.5 240.5t335 85.5q159 0 273 -54l60 69h189l-134 -156q93 -105 93 -277q0 -207 -81.5 -368t-231 -248t-337.5 -87q-138 0 -244 49l-58 -67h-191zM358 431q0 -50 8 -93l455 527q-50 44 -138 44q-114 0 -181.5 -60
t-105.5 -182.5t-38 -235.5zM891 662q0 32 -4 60l-444 -516q49 -34 123 -34q112 0 177.5 56.5t103 171.5t44.5 262z" />
    <glyph glyph-name="ugrave" unicode="&#xf9;" 
d="M512 1082l-118 -595q-26 -123 -26 -165q0 -129 152 -129q101 0 186.5 81t108.5 202l118 606h282l-166 -851q-16 -79 -38 -231h-268q0 9 9.5 84t14.5 101h-3q-76 -107 -166.5 -155.5t-206.5 -48.5q-152 0 -229 73t-77 211q0 25 7 80.5t14 83.5l127 653h279zM733 1183
l-307 276l8 43h258l195 -288l-6 -31h-148z" />
    <glyph glyph-name="uacute" unicode="&#xfa;" 
d="M512 1082l-118 -595q-26 -123 -26 -165q0 -129 152 -129q101 0 186.5 81t108.5 202l118 606h282l-166 -851q-16 -79 -38 -231h-268q0 9 9.5 84t14.5 101h-3q-76 -107 -166.5 -155.5t-206.5 -48.5q-152 0 -229 73t-77 211q0 25 7 80.5t14 83.5l127 653h279zM604 1183l6 31
l247 288h277l-8 -43l-376 -276h-146z" />
    <glyph glyph-name="ucircumflex" unicode="&#xfb;" 
d="M512 1082l-118 -595q-26 -123 -26 -165q0 -129 152 -129q101 0 186.5 81t108.5 202l118 606h282l-166 -851q-16 -79 -38 -231h-268q0 9 9.5 84t14.5 101h-3q-76 -107 -166.5 -155.5t-206.5 -48.5q-152 0 -229 73t-77 211q0 25 7 80.5t14 83.5l127 653h279zM1111 1211
l-5 -28h-150l-166 192h-4l-248 -192h-169l5 28l320 318h229z" />
    <glyph glyph-name="udieresis" unicode="&#xfc;" 
d="M512 1082l-118 -595q-26 -123 -26 -165q0 -129 152 -129q101 0 186.5 81t108.5 202l118 606h282l-166 -851q-16 -79 -38 -231h-268q0 9 9.5 84t14.5 101h-3q-76 -107 -166.5 -155.5t-206.5 -48.5q-152 0 -229 73t-77 211q0 25 7 80.5t14 83.5l127 653h279zM853 1199
l43 219h217l-43 -219h-217zM420 1199l42 219h214l-43 -219h-213z" />
    <glyph glyph-name="yacute" unicode="&#xfd;" horiz-adv-x="1139" 
d="M88 -425q-97 0 -173 18l38 196q40 -9 87 -9q78 0 137.5 46t118.5 150l28 48l-212 1058h291l71 -497q6 -31 21.5 -178t13.5 -156l17 37l139 293l259 501h300l-654 -1139q-107 -167 -174.5 -235t-141 -100.5t-166.5 -32.5zM527 1183l6 31l247 288h277l-8 -43l-376 -276
h-146z" />
    <glyph glyph-name="thorn" unicode="&#xfe;" 
d="M728 907q-126 0 -201.5 -88t-109.5 -265q-17 -93 -17 -153q0 -107 53 -167.5t148 -60.5q102 0 161 64t93 206t34 251q0 106 -38.5 159.5t-122.5 53.5zM487 913h6q72 100 154.5 144.5t200.5 44.5q159 0 248 -94.5t89 -259.5q0 -202 -62 -393.5t-174.5 -283t-286.5 -91.5
q-125 0 -203 52t-110 146h-2l-14 -90l-18 -98l-81 -415h-280l369 1909h281l-83 -427q-18 -92 -34 -144z" />
    <glyph glyph-name="ydieresis" unicode="&#xff;" horiz-adv-x="1139" 
d="M106 -425q-97 0 -173 18l38 196q40 -9 87 -9q78 0 137.5 46t118.5 150l28 48l-212 1058h291l71 -497q6 -31 21.5 -178t13.5 -156l17 37l139 293l259 501h300l-654 -1139q-107 -167 -174.5 -235t-141 -100.5t-166.5 -32.5zM807 1196l43 219h217l-43 -219h-217zM374 1196
l42 219h214l-43 -219h-213z" />
    <glyph glyph-name="Amacron" unicode="&#x100;" horiz-adv-x="1479" 
d="M1039 0l-55 360h-537l-195 -360h-294l787 1409h348l238 -1409h-292zM876 1192q-21 -64 -98 -212l-212 -398h395l-67 452q-18 135 -18 158zM1216 1537h-586l33 168h590z" />
    <glyph glyph-name="amacron" unicode="&#x101;" horiz-adv-x="1139" 
d="M892 -10q-100 0 -154 42t-54 111q0 37 5 64h-6q-84 -130 -166 -178.5t-200 -48.5q-140 0 -223.5 83.5t-83.5 214.5q0 185 127.5 279.5t413.5 99.5l191 3q21 95 21 131q0 128 -127 128q-94 0 -140 -36.5t-63 -105.5l-263 31q34 144 153.5 219t317.5 75q207 0 303.5 -73
t96.5 -222q0 -37 -24 -157l-71 -353q-8 -45 -8 -72q0 -24 10 -37t23 -19t26 -7.5t20 -1.5q30 0 62 7l-14 -155q-42 -16 -85 -19t-88 -3zM711 503h-162q-117 -2 -184.5 -48t-67.5 -130q0 -70 39.5 -109.5t106.5 -39.5q83 0 151 64.5t95 170.5zM971 1203h-586l33 168h590z" />
    <glyph glyph-name="Abreve" unicode="&#x102;" horiz-adv-x="1479" 
d="M1039 0l-55 360h-537l-195 -360h-294l787 1409h348l238 -1409h-292zM876 1192q-21 -64 -98 -212l-212 -398h395l-67 452q-18 135 -18 158zM924 1520q-142 0 -227.5 81t-85.5 222h165q0 -75 45.5 -119.5t124.5 -44.5q78 0 131 38t80 126h164q-42 -153 -139 -228t-258 -75z
" />
    <glyph glyph-name="abreve" unicode="&#x103;" horiz-adv-x="1139" 
d="M892 -10q-100 0 -154 42t-54 111q0 37 5 64h-6q-84 -130 -166 -178.5t-200 -48.5q-140 0 -223.5 83.5t-83.5 214.5q0 185 127.5 279.5t413.5 99.5l191 3q21 95 21 131q0 128 -127 128q-94 0 -140 -36.5t-63 -105.5l-263 31q34 144 153.5 219t317.5 75q207 0 303.5 -73
t96.5 -222q0 -37 -24 -157l-71 -353q-8 -45 -8 -72q0 -24 10 -37t23 -19t26 -7.5t20 -1.5q30 0 62 7l-14 -155q-42 -16 -85 -19t-88 -3zM711 503h-162q-117 -2 -184.5 -48t-67.5 -130q0 -70 39.5 -109.5t106.5 -39.5q83 0 151 64.5t95 170.5zM706 1183q-140 0 -226.5 78.5
t-86.5 206.5l2 38h163q0 -74 45.5 -120t118.5 -46q78 0 135.5 43.5t81.5 122.5h164q-43 -164 -140 -243.5t-257 -79.5z" />
    <glyph glyph-name="Aogonek" unicode="&#x104;" horiz-adv-x="1479" 
d="M1039 0l-55 360h-537l-195 -360h-294l787 1409h348l238 -1409h-292zM876 1192q-21 -64 -98 -212l-212 -398h395l-67 452q-18 135 -18 158zM1095 -414q-90 0 -145 48t-55 131q0 73 45.5 139.5t134.5 116.5h164q-61 -38 -103.5 -102t-42.5 -119q0 -38 22 -57t57 -19
q49 0 102 23l-19 -127q-79 -34 -160 -34z" />
    <glyph glyph-name="aogonek" unicode="&#x105;" horiz-adv-x="1139" 
d="M892 -10q-100 0 -154 42t-54 111q0 37 5 64h-6q-84 -130 -166 -178.5t-200 -48.5q-140 0 -223.5 83.5t-83.5 214.5q0 185 127.5 279.5t413.5 99.5l191 3q21 95 21 131q0 128 -127 128q-94 0 -140 -36.5t-63 -105.5l-263 31q34 144 153.5 219t317.5 75q207 0 303.5 -73
t96.5 -222q0 -37 -24 -157l-71 -353q-8 -45 -8 -72q0 -24 10 -37t23 -19t26 -7.5t20 -1.5q30 0 62 7l-14 -155q-42 -16 -85 -19t-88 -3zM711 503h-162q-117 -2 -184.5 -48t-67.5 -130q0 -70 39.5 -109.5t106.5 -39.5q83 0 151 64.5t95 170.5zM808 -425q-90 0 -145 48
t-55 131q0 73 45.5 139.5t134.5 116.5h164q-61 -38 -103.5 -102t-42.5 -119q0 -38 22 -57t57 -19q49 0 102 23l-19 -127q-79 -34 -160 -34z" />
    <glyph glyph-name="Cacute" unicode="&#x106;" horiz-adv-x="1479" 
d="M401 573q0 -173 85.5 -267.5t244.5 -94.5q266 0 418 258l227 -117q-210 -372 -665 -372q-191 0 -329.5 72t-210 205.5t-71.5 311.5q0 252 105 450.5t293.5 304.5t428.5 106q230 0 377.5 -98.5t198.5 -293.5l-274 -71q-29 107 -111 169t-200 62q-242 0 -379.5 -168
t-137.5 -457zM842 1530l7 31l270 247h267l-9 -43l-386 -235h-149z" />
    <glyph glyph-name="cacute" unicode="&#x107;" horiz-adv-x="1139" 
d="M536 173q83 0 137 52.5t86 155.5l271 -50q-107 -351 -510 -351q-220 0 -338.5 112.5t-118.5 312.5q0 195 79 366t210.5 251t327.5 80q189 0 302 -95.5t127 -265.5l-284 -23q-11 191 -167 191q-107 0 -167.5 -73.5t-109.5 -260.5q-23 -115 -23 -168q0 -234 178 -234z
M603 1183l6 31l247 288h277l-8 -43l-376 -276h-146z" />
    <glyph glyph-name="Ccircumflex" unicode="&#x108;" horiz-adv-x="1479" 
d="M401 573q0 -173 85.5 -267.5t244.5 -94.5q266 0 418 258l227 -117q-210 -372 -665 -372q-191 0 -329.5 72t-210 205.5t-71.5 311.5q0 252 105 450.5t293.5 304.5t428.5 106q230 0 377.5 -98.5t198.5 -293.5l-274 -71q-29 107 -111 169t-200 62q-242 0 -379.5 -168
t-137.5 -457zM1339 1559l-5 -29h-149l-174 151h-4l-240 -151h-169l5 29l311 276h229z" />
    <glyph glyph-name="ccircumflex" unicode="&#x109;" horiz-adv-x="1139" 
d="M536 173q83 0 137 52.5t86 155.5l271 -50q-107 -351 -510 -351q-220 0 -338.5 112.5t-118.5 312.5q0 195 79 366t210.5 251t327.5 80q189 0 302 -95.5t127 -265.5l-284 -23q-11 191 -167 191q-107 0 -167.5 -73.5t-109.5 -260.5q-23 -115 -23 -168q0 -234 178 -234z
M1048 1211l-5 -28h-150l-166 192h-4l-248 -192h-169l5 28l320 318h229z" />
    <glyph glyph-name="Cdotaccent" unicode="&#x10a;" horiz-adv-x="1479" 
d="M401 573q0 -173 85.5 -267.5t244.5 -94.5q266 0 418 258l227 -117q-210 -372 -665 -372q-191 0 -329.5 72t-210 205.5t-71.5 311.5q0 252 105 450.5t293.5 304.5t428.5 106q230 0 377.5 -98.5t198.5 -293.5l-274 -71q-29 107 -111 169t-200 62q-242 0 -379.5 -168
t-137.5 -457zM776 1540l41 207h281l-41 -207h-281z" />
    <glyph glyph-name="cdotaccent" unicode="&#x10b;" horiz-adv-x="1139" 
d="M536 173q83 0 137 52.5t86 155.5l271 -50q-107 -351 -510 -351q-220 0 -338.5 112.5t-118.5 312.5q0 195 79 366t210.5 251t327.5 80q189 0 302 -95.5t127 -265.5l-284 -23q-11 191 -167 191q-107 0 -167.5 -73.5t-109.5 -260.5q-23 -115 -23 -168q0 -234 178 -234z
M570 1277l41 207h281l-41 -207h-281z" />
    <glyph glyph-name="Ccaron" unicode="&#x10c;" horiz-adv-x="1479" 
d="M401 573q0 -173 85.5 -267.5t244.5 -94.5q266 0 418 258l227 -117q-210 -372 -665 -372q-191 0 -329.5 72t-210 205.5t-71.5 311.5q0 252 105 450.5t293.5 304.5t428.5 106q230 0 377.5 -98.5t198.5 -293.5l-274 -71q-29 107 -111 169t-200 62q-242 0 -379.5 -168
t-137.5 -457zM1049 1530h-229l-204 276l5 29h150l182 -152h4l232 152h169l-6 -29z" />
    <glyph glyph-name="ccaron" unicode="&#x10d;" horiz-adv-x="1139" 
d="M536 173q83 0 137 52.5t86 155.5l271 -50q-107 -351 -510 -351q-220 0 -338.5 112.5t-118.5 312.5q0 195 79 366t210.5 251t327.5 80q189 0 302 -95.5t127 -265.5l-284 -23q-11 191 -167 191q-107 0 -167.5 -73.5t-109.5 -260.5q-23 -115 -23 -168q0 -234 178 -234z
M804 1183h-229l-197 317l6 29h150l174 -193h4l240 193h169l-6 -29z" />
    <glyph glyph-name="Dcaron" unicode="&#x10e;" horiz-adv-x="1479" 
d="M734 1409q333 0 510 -155t177 -447q0 -236 -99 -417t-287 -285.5t-421 -104.5h-578l274 1409h424zM375 228h230q160 0 283.5 68.5t190 197.5t66.5 300q0 189 -105.5 288t-303.5 99h-176zM942 1530h-229l-204 276l5 29h150l182 -152h4l232 152h169l-6 -29z" />
    <glyph glyph-name="dcaron" unicode="&#x10f;" horiz-adv-x="1515" 
d="M749 160q-71 -93 -153.5 -137t-203.5 -44q-154 0 -244 102t-90 273q0 191 64 374t179.5 278.5t278.5 95.5q256 0 314 -198h5q2 20 8 60t18 102l84 418h277l-238 -1253q-20 -112 -29 -231h-281q0 63 15 160h-4zM515 172q81 0 139 34.5t99 106t65 179.5t24 189
q0 120 -47 174.5t-141 54.5q-102 0 -166.5 -69t-98.5 -202t-34 -246q0 -221 160 -221zM1491 1087h-137q114 101 131 190h-108l40 207h245l-28 -146q-15 -70 -45 -126.5t-98 -124.5z" />
    <glyph glyph-name="Dcroat" unicode="&#x110;" horiz-adv-x="1479" 
d="M734 1409q333 0 510 -155t177 -447q0 -236 -99 -417t-287 -285.5t-421 -104.5h-578l115 594h-128l42 219h129l116 596h424zM488 813h357l-44 -219h-355l-71 -366h230q160 0 283.5 68.5t190 197.5t66.5 300q0 189 -105.5 288t-303.5 99h-176z" />
    <glyph glyph-name="dcroat" unicode="&#x111;" 
d="M749 160q-71 -93 -153.5 -137t-203.5 -44q-154 0 -244 98t-90 263q0 182 63 358.5t177.5 269.5t272.5 93q127 0 207 -48.5t109 -141.5h6q2 22 8.5 67.5t20.5 114.5l25 122h-289l33 170h290l28 139h277l-27 -139h132l-33 -170h-131l-179 -944q-20 -112 -29 -231h-281
q0 63 15 160h-4zM515 172q106 0 175 62.5t107.5 188.5t38.5 233q0 115 -47 166.5t-141 51.5q-97 0 -161 -64.5t-98 -192.5t-34 -235q0 -210 160 -210z" />
    <glyph glyph-name="Emacron" unicode="&#x112;" horiz-adv-x="1366" 
d="M36 0l273 1409h1108l-44 -228h-813l-69 -354h752l-44 -228h-752l-72 -371h854l-45 -228h-1148zM1176 1537h-586l33 168h590z" />
    <glyph glyph-name="emacron" unicode="&#x113;" horiz-adv-x="1139" 
d="M358 476q-7 -38 -7 -89q0 -106 46.5 -162.5t137.5 -56.5q147 0 213 169l245 -74q-75 -159 -186 -221t-291 -62q-213 0 -333 115.5t-120 322.5t72 362.5t204.5 238.5t306.5 83q209 0 322.5 -107.5t113.5 -303.5q0 -99 -24 -215h-700zM822 663l3 56q0 107 -49.5 156
t-129.5 49q-96 0 -161.5 -66.5t-93.5 -194.5h431zM967 1203h-586l33 168h590z" />
    <glyph glyph-name="Ebreve" unicode="&#x114;" horiz-adv-x="1366" 
d="M36 0l273 1409h1108l-44 -228h-813l-69 -354h752l-44 -228h-752l-72 -371h854l-45 -228h-1148zM876 1520q-142 0 -227.5 81t-85.5 222h165q0 -75 45.5 -119.5t124.5 -44.5q78 0 131 38t80 126h164q-42 -153 -139 -228t-258 -75z" />
    <glyph glyph-name="ebreve" unicode="&#x115;" horiz-adv-x="1139" 
d="M358 476q-7 -38 -7 -89q0 -106 46.5 -162.5t137.5 -56.5q147 0 213 169l245 -74q-75 -159 -186 -221t-291 -62q-213 0 -333 115.5t-120 322.5t72 362.5t204.5 238.5t306.5 83q209 0 322.5 -107.5t113.5 -303.5q0 -99 -24 -215h-700zM822 663l3 56q0 107 -49.5 156
t-129.5 49q-96 0 -161.5 -66.5t-93.5 -194.5h431zM694 1183q-140 0 -226.5 78.5t-86.5 206.5l2 38h163q0 -74 45.5 -120t118.5 -46q78 0 135.5 43.5t81.5 122.5h164q-43 -164 -140 -243.5t-257 -79.5z" />
    <glyph glyph-name="Edotaccent" unicode="&#x116;" horiz-adv-x="1366" 
d="M36 0l273 1409h1108l-44 -228h-813l-69 -354h752l-44 -228h-752l-72 -371h854l-45 -228h-1148zM734 1547l41 207h281l-41 -207h-281z" />
    <glyph glyph-name="edotaccent" unicode="&#x117;" horiz-adv-x="1139" 
d="M358 476q-7 -38 -7 -89q0 -106 46.5 -162.5t137.5 -56.5q147 0 213 169l245 -74q-75 -159 -186 -221t-291 -62q-213 0 -333 115.5t-120 322.5t72 362.5t204.5 238.5t306.5 83q209 0 322.5 -107.5t113.5 -303.5q0 -99 -24 -215h-700zM822 663l3 56q0 107 -49.5 156
t-129.5 49q-96 0 -161.5 -66.5t-93.5 -194.5h431zM551 1277l41 207h281l-41 -207h-281z" />
    <glyph glyph-name="Eogonek" unicode="&#x118;" horiz-adv-x="1366" 
d="M36 0l273 1409h1108l-44 -228h-813l-69 -354h752l-44 -228h-752l-72 -371h854l-45 -228h-1148zM887 -425q-90 0 -145 48t-55 131q0 73 45.5 139.5t134.5 116.5h164q-61 -38 -103.5 -102t-42.5 -119q0 -38 22 -57t57 -19q49 0 102 23l-19 -127q-79 -34 -160 -34z" />
    <glyph glyph-name="eogonek" unicode="&#x119;" horiz-adv-x="1139" 
d="M358 476q-7 -38 -7 -89q0 -106 46.5 -162.5t137.5 -56.5q147 0 213 169l245 -74q-75 -159 -186 -221t-291 -62q-213 0 -333 115.5t-120 322.5t72 362.5t204.5 238.5t306.5 83q209 0 322.5 -107.5t113.5 -303.5q0 -99 -24 -215h-700zM822 663l3 56q0 107 -49.5 156
t-129.5 49q-96 0 -161.5 -66.5t-93.5 -194.5h431zM641 -404q-90 0 -145 48t-55 131q0 73 45.5 139.5t134.5 116.5h164q-61 -38 -103.5 -102t-42.5 -119q0 -38 22 -57t57 -19q49 0 102 23l-19 -127q-79 -34 -160 -34z" />
    <glyph glyph-name="Ecaron" unicode="&#x11a;" horiz-adv-x="1366" 
d="M36 0l273 1409h1108l-44 -228h-813l-69 -354h752l-44 -228h-752l-72 -371h854l-45 -228h-1148zM971 1530h-229l-204 276l5 29h150l182 -152h4l232 152h169l-6 -29z" />
    <glyph glyph-name="ecaron" unicode="&#x11b;" horiz-adv-x="1139" 
d="M358 476q-7 -38 -7 -89q0 -106 46.5 -162.5t137.5 -56.5q147 0 213 169l245 -74q-75 -159 -186 -221t-291 -62q-213 0 -333 115.5t-120 322.5t72 362.5t204.5 238.5t306.5 83q209 0 322.5 -107.5t113.5 -303.5q0 -99 -24 -215h-700zM822 663l3 56q0 107 -49.5 156
t-129.5 49q-96 0 -161.5 -66.5t-93.5 -194.5h431zM789 1183h-229l-197 317l6 29h150l174 -193h4l240 193h169l-6 -29z" />
    <glyph glyph-name="Gcircumflex" unicode="&#x11c;" horiz-adv-x="1593" 
d="M740 -19q-300 0 -470 158.5t-170 443.5q0 250 104.5 444t296 298.5t441.5 104.5q228 0 381.5 -103t206.5 -288l-282 -78q-29 113 -112 175t-210 62q-159 0 -279 -75t-184 -213t-64 -318q0 -178 95.5 -279.5t269.5 -101.5q108 0 210 26t174 70l46 228h-342l39 208h614
l-105 -568q-156 -107 -312 -150.5t-348 -43.5zM1329 1559l-5 -29h-149l-174 151h-4l-240 -151h-169l5 29l311 276h229z" />
    <glyph glyph-name="gcircumflex" unicode="&#x11d;" 
d="M431 -425q-199 0 -306 69t-132 214l283 30q27 -127 188 -127q110 0 171 59t95 207q20 96 31 174h-2q-63 -89 -110.5 -128t-107 -60t-136.5 -21q-155 0 -247.5 100t-92.5 264q0 201 63.5 385.5t175 272t282.5 87.5q118 0 203 -56t112 -152h2q6 29 24.5 105t23.5 84h265
l-19 -83l-30 -146l-165 -843q-47 -233 -182 -334t-389 -101zM846 686q0 104 -52 163.5t-146 59.5q-76 0 -125.5 -32t-84 -103.5t-57 -188t-22.5 -189.5q0 -199 173 -199q89 0 162 67t112.5 182.5t39.5 239.5zM1079 1211l-5 -28h-150l-166 192h-4l-248 -192h-169l5 28
l320 318h229z" />
    <glyph glyph-name="Gbreve" unicode="&#x11e;" horiz-adv-x="1593" 
d="M740 -19q-300 0 -470 158.5t-170 443.5q0 250 104.5 444t296 298.5t441.5 104.5q228 0 381.5 -103t206.5 -288l-282 -78q-29 113 -112 175t-210 62q-159 0 -279 -75t-184 -213t-64 -318q0 -178 95.5 -279.5t269.5 -101.5q108 0 210 26t174 70l46 228h-342l39 208h614
l-105 -568q-156 -107 -312 -150.5t-348 -43.5zM981 1520q-142 0 -227.5 81t-85.5 222h165q0 -75 45.5 -119.5t124.5 -44.5q78 0 131 38t80 126h164q-42 -153 -139 -228t-258 -75z" />
    <glyph glyph-name="gbreve" unicode="&#x11f;" 
d="M431 -425q-199 0 -306 69t-132 214l283 30q27 -127 188 -127q110 0 171 59t95 207q20 96 31 174h-2q-63 -89 -110.5 -128t-107 -60t-136.5 -21q-155 0 -247.5 100t-92.5 264q0 201 63.5 385.5t175 272t282.5 87.5q118 0 203 -56t112 -152h2q6 29 24.5 105t23.5 84h265
l-19 -83l-30 -146l-165 -843q-47 -233 -182 -334t-389 -101zM846 686q0 104 -52 163.5t-146 59.5q-76 0 -125.5 -32t-84 -103.5t-57 -188t-22.5 -189.5q0 -199 173 -199q89 0 162 67t112.5 182.5t39.5 239.5zM715 1183q-140 0 -226.5 78.5t-86.5 206.5l2 38h163
q0 -74 45.5 -120t118.5 -46q78 0 135.5 43.5t81.5 122.5h164q-43 -164 -140 -243.5t-257 -79.5z" />
    <glyph glyph-name="Gdotaccent" unicode="&#x120;" horiz-adv-x="1593" 
d="M740 -19q-300 0 -470 158.5t-170 443.5q0 250 104.5 444t296 298.5t441.5 104.5q228 0 381.5 -103t206.5 -288l-282 -78q-29 113 -112 175t-210 62q-159 0 -279 -75t-184 -213t-64 -318q0 -178 95.5 -279.5t269.5 -101.5q108 0 210 26t174 70l46 228h-342l39 208h614
l-105 -568q-156 -107 -312 -150.5t-348 -43.5zM813 1547l41 207h281l-41 -207h-281z" />
    <glyph glyph-name="gdotaccent" unicode="&#x121;" 
d="M431 -425q-199 0 -306 69t-132 214l283 30q27 -127 188 -127q110 0 171 59t95 207q20 96 31 174h-2q-63 -89 -110.5 -128t-107 -60t-136.5 -21q-155 0 -247.5 100t-92.5 264q0 201 63.5 385.5t175 272t282.5 87.5q118 0 203 -56t112 -152h2q6 29 24.5 105t23.5 84h265
l-19 -83l-30 -146l-165 -843q-47 -233 -182 -334t-389 -101zM846 686q0 104 -52 163.5t-146 59.5q-76 0 -125.5 -32t-84 -103.5t-57 -188t-22.5 -189.5q0 -199 173 -199q89 0 162 67t112.5 182.5t39.5 239.5zM596 1277l41 207h281l-41 -207h-281z" />
    <glyph glyph-name="Gcommaaccent" unicode="&#x122;" horiz-adv-x="1593" 
d="M740 -19q-300 0 -470 158.5t-170 443.5q0 250 104.5 444t296 298.5t441.5 104.5q228 0 381.5 -103t206.5 -288l-282 -78q-29 113 -112 175t-210 62q-159 0 -279 -75t-184 -213t-64 -318q0 -178 95.5 -279.5t269.5 -101.5q108 0 210 26t174 70l46 228h-342l39 208h614
l-105 -568q-156 -107 -312 -150.5t-348 -43.5zM735 -455h-137q112 100 127 170h-108l40 207h245l-24 -126q-14 -70 -45 -127t-98 -124z" />
    <glyph glyph-name="gcommaaccent" unicode="&#x123;" 
d="M431 -425q-199 0 -306 69t-132 214l283 30q27 -127 188 -127q110 0 171 59t95 207q20 96 31 174h-2q-63 -89 -110.5 -128t-107 -60t-136.5 -21q-155 0 -247.5 100t-92.5 264q0 201 63.5 385.5t175 272t282.5 87.5q118 0 203 -56t112 -152h2q6 29 24.5 105t23.5 84h265
l-19 -83l-30 -146l-165 -843q-47 -233 -182 -334t-389 -101zM846 686q0 104 -52 163.5t-146 59.5q-76 0 -125.5 -32t-84 -103.5t-57 -188t-22.5 -189.5q0 -199 173 -199q89 0 162 67t112.5 182.5t39.5 239.5zM743 1609h147q-114 -101 -131 -190h108l-40 -207h-245l28 146
q17 87 50.5 145.5t82.5 105.5z" />
    <glyph glyph-name="Hcircumflex" unicode="&#x124;" horiz-adv-x="1479" 
d="M956 0l118 604h-626l-118 -604h-294l273 1409h295l-109 -561h626l109 561h284l-274 -1409h-284zM1310 1559l-5 -29h-149l-174 151h-4l-240 -151h-169l5 29l311 276h229z" />
    <glyph glyph-name="hcircumflex" unicode="&#x125;" 
d="M601 1484l-79 -405l-39 -182h3q75 104 165.5 154t207.5 50q152 0 229 -73t77 -211q0 -25 -7 -79.5t-14 -84.5l-127 -653h-279l118 595q26 124 26 165q0 129 -152 129q-101 0 -187 -82t-108 -201l-118 -606h-282l286 1484h280zM1198 1638l-5 -29h-149l-174 151h-4
l-240 -151h-169l5 29l311 276h229z" />
    <glyph glyph-name="Hbar" unicode="&#x126;" horiz-adv-x="1479" 
d="M956 0l118 604h-626l-118 -604h-294l202 1045h-123l33 170h123l38 194h295l-38 -194h626l38 194h284l-38 -194h123l-33 -170h-123l-203 -1045h-284zM1121 848l38 197h-626l-38 -197h626z" />
    <glyph glyph-name="hbar" unicode="&#x127;" 
d="M601 1484l-27 -139h313l-33 -170h-314q-35 -183 -65 -318h3q75 104 165.5 154t207.5 50q152 0 229 -73t77 -211q0 -25 -7 -79.5t-14 -84.5l-119 -613h-279l110 555q26 124 26 165q0 129 -152 129q-101 0 -187 -82t-108 -201l-110 -566h-282l226 1175h-137l33 170h137
l27 139h280z" />
    <glyph glyph-name="Itilde" unicode="&#x128;" horiz-adv-x="569" 
d="M36 0l273 1409h295l-274 -1409h-294zM625 1529q-44 0 -84.5 19t-78 42.5t-71.5 42.5t-64 19q-42 0 -69.5 -25.5t-52.5 -97.5h-136q39 158 108.5 225.5t172.5 67.5q45 0 86.5 -19t78.5 -42.5t70 -42.5t62 -19q43 0 71 28t52 95h135q-39 -158 -108.5 -225.5t-171.5 -67.5z
" />
    <glyph glyph-name="itilde" unicode="&#x129;" horiz-adv-x="569" 
d="M35 0l210 1082h281l-211 -1082h-280zM541 1183q-44 0 -84.5 19t-78 42.5t-71.5 42.5t-64 19q-42 0 -69.5 -25.5t-52.5 -97.5h-136q39 158 108.5 225.5t172.5 67.5q45 0 86.5 -19t78.5 -42.5t70 -42.5t62 -19q43 0 71 28t52 95h135q-39 -158 -108.5 -225.5t-171.5 -67.5z
" />
    <glyph glyph-name="Imacron" unicode="&#x12a;" horiz-adv-x="569" 
d="M36 0l273 1409h295l-274 -1409h-294zM756 1537h-586l33 168h590z" />
    <glyph glyph-name="imacron" unicode="&#x12b;" horiz-adv-x="569" 
d="M35 0l210 1082h281l-211 -1082h-280zM697 1203h-586l33 168h590z" />
    <glyph glyph-name="Ibreve" unicode="&#x12c;" horiz-adv-x="569" 
d="M36 0l273 1409h295l-274 -1409h-294zM470 1520q-142 0 -227.5 81t-85.5 222h165q0 -75 45.5 -119.5t124.5 -44.5q78 0 131 38t80 126h164q-42 -153 -139 -228t-258 -75z" />
    <glyph glyph-name="ibreve" unicode="&#x12d;" horiz-adv-x="569" 
d="M35 0l210 1082h281l-211 -1082h-280zM411 1183q-140 0 -226.5 78.5t-86.5 206.5l2 38h163q0 -74 45.5 -120t118.5 -46q78 0 135.5 43.5t81.5 122.5h164q-43 -164 -140 -243.5t-257 -79.5z" />
    <glyph glyph-name="Iogonek" unicode="&#x12e;" horiz-adv-x="569" 
d="M36 0l273 1409h295l-274 -1409h-294zM177 -425q-90 0 -145 48t-55 131q0 73 45.5 139.5t134.5 116.5h164q-61 -38 -103.5 -102t-42.5 -119q0 -38 22 -57t57 -19q49 0 102 23l-19 -127q-79 -34 -160 -34z" />
    <glyph glyph-name="iogonek" unicode="&#x12f;" horiz-adv-x="569" 
d="M282 1277l41 207h281l-41 -207h-281zM35 0l210 1082h281l-211 -1082h-280zM163 -425q-90 0 -145 48t-55 131q0 73 45.5 139.5t134.5 116.5h164q-61 -38 -103.5 -102t-42.5 -119q0 -38 22 -57t57 -19q49 0 102 23l-19 -127q-79 -34 -160 -34z" />
    <glyph glyph-name="Idotaccent" unicode="&#x130;" horiz-adv-x="569" 
d="M36 0l273 1409h295l-274 -1409h-294zM339 1547l41 207h281l-41 -207h-281z" />
    <glyph glyph-name="dotlessi" unicode="&#x131;" horiz-adv-x="569" 
d="M35 0l210 1082h281l-211 -1082h-280z" />
    <glyph glyph-name="IJ" unicode="&#x132;" horiz-adv-x="1602" 
d="M36 0l273 1409h295l-274 -1409h-294zM944 -20q-190 0 -303.5 96t-151.5 303l267 58q46 -226 207 -226q54 0 91 24t61 68t42 137l143 738h-281l44 231h575l-193 -986q-45 -231 -165 -337t-336 -106z" />
    <glyph glyph-name="ij" unicode="&#x133;" horiz-adv-x="1139" 
d="M282 1277l41 207h281l-41 -207h-281zM35 0l210 1082h281l-211 -1082h-280zM852 1277l40 207h281l-40 -207h-281zM515 -425q-95 0 -166 19l36 188l58 -4q67 0 98.5 34.5t49.5 127.5l223 1142h281l-236 -1210q-29 -144 -116.5 -220.5t-227.5 -76.5z" />
    <glyph glyph-name="Jcircumflex" unicode="&#x134;" horiz-adv-x="1139" 
d="M480 -20q-190 0 -303.5 96t-151.5 303l267 58q46 -226 207 -226q54 0 91 24t61 68t42 137l143 738h-281l44 231h575l-193 -986q-45 -231 -165 -337t-336 -106zM1282 1559l-5 -29h-149l-174 151h-4l-240 -151h-169l5 29l311 276h229z" />
    <glyph glyph-name="jcircumflex" unicode="&#x135;" horiz-adv-x="569" 
d="M-54 -425q-95 0 -166 19l36 188l58 -4q67 0 98.5 34.5t49.5 127.5l223 1142h281l-236 -1210q-29 -144 -116.5 -220.5t-227.5 -76.5zM755 1211l-5 -28h-150l-166 192h-4l-248 -192h-169l5 28l320 318h229z" />
    <glyph glyph-name="Kcommaaccent" unicode="&#x136;" horiz-adv-x="1479" 
d="M995 0l-355 640l-211 -123l-101 -517h-292l273 1409h295l-130 -639l760 639h369l-747 -616l465 -793h-326zM605 -455h-137q112 100 127 170h-108l40 207h245l-24 -126q-14 -70 -45 -127t-98 -124z" />
    <glyph glyph-name="kcommaaccent" unicode="&#x137;" horiz-adv-x="1139" 
d="M728 0l-188 497l-140 -75l-85 -422h-280l288 1484h281l-167 -850l465 448h322l-473 -422l275 -660h-298zM470 -455h-137q112 100 127 170h-108l40 207h245l-24 -126q-14 -70 -45 -127t-98 -124z" />
    <glyph glyph-name="kgreenlandic" unicode="&#x138;" horiz-adv-x="1139" 
d="M728 0l-188 497l-140 -75l-85 -422h-280l210 1082h281l-88 -448l464 448h322l-473 -422l275 -660h-298z" />
    <glyph glyph-name="Lacute" unicode="&#x139;" 
d="M36 0l273 1409h295l-229 -1181h756l-45 -228h-1050zM450 1530l7 31l270 247h267l-9 -43l-386 -235h-149z" />
    <glyph glyph-name="lacute" unicode="&#x13a;" horiz-adv-x="569" 
d="M35 0l288 1484h281l-289 -1484h-280zM327 1609l7 31l270 247h267l-9 -43l-386 -235h-149z" />
    <glyph glyph-name="Lcommaaccent" unicode="&#x13b;" 
d="M36 0l273 1409h295l-229 -1181h756l-45 -228h-1050zM535 -455h-137q112 100 127 170h-108l40 207h245l-24 -126q-14 -70 -45 -127t-98 -124z" />
    <glyph glyph-name="lcommaaccent" unicode="&#x13c;" horiz-adv-x="569" 
d="M35 0l288 1484h281l-289 -1484h-280zM121 -455h-137q112 100 127 170h-108l40 207h245l-24 -126q-14 -70 -45 -127t-98 -124z" />
    <glyph glyph-name="Lcaron" unicode="&#x13d;" 
d="M36 0l273 1409h295l-229 -1181h756l-45 -228h-1050zM967 1012h-137q114 101 131 190h-108l40 207h245l-28 -146q-15 -70 -45 -126.5t-98 -124.5z" />
    <glyph glyph-name="lcaron" unicode="&#x13e;" horiz-adv-x="811" 
d="M35 0l288 1484h281l-289 -1484h-280zM809 1087h-137q114 101 131 190h-108l40 207h245l-28 -146q-15 -70 -45 -126.5t-98 -124.5z" />
    <glyph glyph-name="Ldot" unicode="&#x13f;" 
d="M36 0l273 1409h295l-229 -1181h756l-45 -228h-1050zM720 651l41 207h281l-41 -207h-281z" />
    <glyph glyph-name="ldot" unicode="&#x140;" horiz-adv-x="981" 
d="M35 0l288 1484h281l-289 -1484h-280zM616 651l41 207h281l-41 -207h-281z" />
    <glyph glyph-name="Lslash" unicode="&#x141;" 
d="M36 0l93 482l-148 -64l44 225l148 65l136 701h295l-109 -561l336 149l-43 -223l-336 -149l-77 -397h756l-45 -228h-1050z" />
    <glyph glyph-name="lslash" unicode="&#x142;" horiz-adv-x="569" 
d="M315 0h-280l108 561l-137 -69l41 215l138 69l138 708h281l-108 -552l144 74l-42 -213l-143 -76z" />
    <glyph glyph-name="Nacute" unicode="&#x143;" horiz-adv-x="1479" 
d="M884 0l-374 1131q-23 -162 -38 -239l-174 -892h-262l274 1409h350l377 -1141l12 82q11 83 29 174l174 885h262l-274 -1409h-356zM764 1530l7 31l270 247h267l-9 -43l-386 -235h-149z" />
    <glyph glyph-name="nacute" unicode="&#x144;" 
d="M738 0l118 595q26 124 26 165q0 129 -152 129q-101 0 -187 -82t-108 -201l-118 -606h-282l166 851q16 79 38 231h268q0 -9 -9.5 -84t-14.5 -101h3q75 104 165.5 154t207.5 50q152 0 229 -73t77 -211q0 -25 -7 -79.5t-14 -84.5l-127 -653h-279zM618 1183l6 31l247 288h277
l-8 -43l-376 -276h-146z" />
    <glyph glyph-name="Ncommaaccent" unicode="&#x145;" horiz-adv-x="1479" 
d="M884 0l-374 1131q-23 -162 -38 -239l-174 -892h-262l274 1409h350l377 -1141l12 82q11 83 29 174l174 885h262l-274 -1409h-356zM609 -455h-137q112 100 127 170h-108l40 207h245l-24 -126q-14 -70 -45 -127t-98 -124z" />
    <glyph glyph-name="ncommaaccent" unicode="&#x146;" 
d="M738 0l118 595q26 124 26 165q0 129 -152 129q-101 0 -187 -82t-108 -201l-118 -606h-282l166 851q16 79 38 231h268q0 -9 -9.5 -84t-14.5 -101h3q75 104 165.5 154t207.5 50q152 0 229 -73t77 -211q0 -25 -7 -79.5t-14 -84.5l-127 -653h-279zM485 -455h-137
q112 100 127 170h-108l40 207h245l-24 -126q-14 -70 -45 -127t-98 -124z" />
    <glyph glyph-name="Ncaron" unicode="&#x147;" horiz-adv-x="1479" 
d="M884 0l-374 1131q-23 -162 -38 -239l-174 -892h-262l274 1409h350l377 -1141l12 82q11 83 29 174l174 885h262l-274 -1409h-356zM1036 1530h-229l-204 276l5 29h150l182 -152h4l232 152h169l-6 -29z" />
    <glyph glyph-name="ncaron" unicode="&#x148;" 
d="M738 0l118 595q26 124 26 165q0 129 -152 129q-101 0 -187 -82t-108 -201l-118 -606h-282l166 851q16 79 38 231h268q0 -9 -9.5 -84t-14.5 -101h3q75 104 165.5 154t207.5 50q152 0 229 -73t77 -211q0 -25 -7 -79.5t-14 -84.5l-127 -653h-279zM846 1183h-229l-197 317
l6 29h150l174 -193h4l240 193h169l-6 -29z" />
    <glyph glyph-name="napostrophe" unicode="&#x149;" horiz-adv-x="1451" 
d="M938 0l118 595q26 124 26 165q0 129 -152 129q-101 0 -187 -82t-108 -201l-118 -606h-282l166 851q16 79 38 231h268q0 -9 -9.5 -84t-14.5 -101h3q75 104 165.5 154t207.5 50q152 0 229 -73t77 -211q0 -25 -7 -79.5t-14 -84.5l-127 -653h-279zM190 831h-182
q163 168 193 318h-127l51 260h287l-38 -195q-23 -117 -65.5 -208t-118.5 -175z" />
    <glyph glyph-name="Eng" unicode="&#x14a;" horiz-adv-x="1481" 
d="M844 -20q-268 0 -383 234l247 117q36 -62 75.5 -90.5t90.5 -28.5q84 0 128.5 67.5t84.5 273.5l56 288q25 119 25 177q0 86 -58.5 134t-178.5 48q-96 0 -189 -41t-157.5 -114t-80.5 -154l-174 -891h-294l211 1092l57 317h290q-9 -67 -42 -251h4q95 133 223 202t278 69
q399 0 399 -364q0 -70 -20 -177l-67 -346q-46 -240 -107 -351.5t-162.5 -161t-255.5 -49.5z" />
    <glyph glyph-name="eng" unicode="&#x14b;" 
d="M649 -425q-95 0 -166 19l36 188l58 -4q67 0 98.5 35.5t49.5 126.5l131 655q26 124 26 165q0 129 -152 129q-101 0 -187 -82t-108 -201l-118 -606h-282l166 851q16 79 38 231h268q0 -5 -2.5 -27t-6 -50.5t-7.5 -58t-8 -49.5h3q75 104 165.5 154t207.5 50q152 0 229 -73
t77 -211q0 -25 -7 -79.5t-14 -84.5l-151 -781q-25 -138 -112.5 -217.5t-231.5 -79.5z" />
    <glyph glyph-name="Omacron" unicode="&#x14c;" horiz-adv-x="1593" 
d="M928 1430q293 0 462 -155.5t169 -423.5q0 -247 -105.5 -450.5t-294.5 -312t-432 -108.5q-193 0 -335.5 72t-217 206.5t-74.5 314.5q0 235 105.5 438.5t292.5 311t430 107.5zM914 1197q-162 0 -276 -75t-176 -226t-62 -315q0 -184 90 -276.5t251 -92.5t275 75t176.5 223
t62.5 317q0 176 -87.5 273t-253.5 97zM1232 1537h-586l33 168h590z" />
    <glyph glyph-name="omacron" unicode="&#x14d;" 
d="M1185 683q0 -207 -81.5 -368t-231 -248t-337.5 -87q-218 0 -345 117.5t-127 321.5q0 201 79.5 356t226.5 240.5t335 85.5q235 0 358 -109.5t123 -308.5zM891 662q0 247 -208 247q-114 0 -181.5 -60t-105.5 -182.5t-38 -235.5q0 -259 208 -259q112 0 177.5 56.5t103 171.5
t44.5 262zM1016 1203h-586l33 168h590z" />
    <glyph glyph-name="Obreve" unicode="&#x14e;" horiz-adv-x="1593" 
d="M928 1430q293 0 462 -155.5t169 -423.5q0 -247 -105.5 -450.5t-294.5 -312t-432 -108.5q-193 0 -335.5 72t-217 206.5t-74.5 314.5q0 235 105.5 438.5t292.5 311t430 107.5zM914 1197q-162 0 -276 -75t-176 -226t-62 -315q0 -184 90 -276.5t251 -92.5t275 75t176.5 223
t62.5 317q0 176 -87.5 273t-253.5 97zM958 1520q-142 0 -227.5 81t-85.5 222h165q0 -75 45.5 -119.5t124.5 -44.5q78 0 131 38t80 126h164q-42 -153 -139 -228t-258 -75z" />
    <glyph glyph-name="obreve" unicode="&#x14f;" 
d="M1185 683q0 -207 -81.5 -368t-231 -248t-337.5 -87q-218 0 -345 117.5t-127 321.5q0 201 79.5 356t226.5 240.5t335 85.5q235 0 358 -109.5t123 -308.5zM891 662q0 247 -208 247q-114 0 -181.5 -60t-105.5 -182.5t-38 -235.5q0 -259 208 -259q112 0 177.5 56.5t103 171.5
t44.5 262zM758 1183q-140 0 -226.5 78.5t-86.5 206.5l2 38h163q0 -74 45.5 -120t118.5 -46q78 0 135.5 43.5t81.5 122.5h164q-43 -164 -140 -243.5t-257 -79.5z" />
    <glyph glyph-name="Ohungarumlaut" unicode="&#x150;" horiz-adv-x="1593" 
d="M928 1430q293 0 462 -155.5t169 -423.5q0 -247 -105.5 -450.5t-294.5 -312t-432 -108.5q-193 0 -335.5 72t-217 206.5t-74.5 314.5q0 235 105.5 438.5t292.5 311t430 107.5zM914 1197q-162 0 -276 -75t-176 -226t-62 -315q0 -184 90 -276.5t251 -92.5t275 75t176.5 223
t62.5 317q0 176 -87.5 273t-253.5 97zM642 1530l10 31l227 248h261l-10 -43l-352 -236h-136zM1047 1530v31l237 248h261l-10 -43l-352 -236h-136z" />
    <glyph glyph-name="ohungarumlaut" unicode="&#x151;" 
d="M1185 683q0 -207 -81.5 -368t-231 -248t-337.5 -87q-218 0 -345 117.5t-127 321.5q0 201 79.5 356t226.5 240.5t335 85.5q235 0 358 -109.5t123 -308.5zM891 662q0 247 -208 247q-114 0 -181.5 -60t-105.5 -182.5t-38 -235.5q0 -259 208 -259q112 0 177.5 56.5t103 171.5
t44.5 262zM371 1183l10 31l257 288h261l-10 -43l-372 -276h-146zM776 1183l10 31l257 288h261l-10 -43l-372 -276h-146z" />
    <glyph glyph-name="OE" unicode="&#x152;" horiz-adv-x="2048" 
d="M917 0q-63 -10 -211 -10q-286 0 -444.5 152.5t-158.5 430.5q0 170 58.5 327.5t173 276t272.5 181t342 62.5q79 0 138 -5l63 -6h949l-44 -227h-667l-69 -355h606l-43 -221h-606l-73 -375h708l-45 -231h-949zM736 222q102 0 173 20l180 927q-31 10 -80 14.5t-70 4.5
q-127 0 -224.5 -41.5t-167.5 -126.5t-107 -207.5t-37 -249.5q0 -164 86 -252.5t247 -88.5z" />
    <glyph glyph-name="oe" unicode="&#x153;" horiz-adv-x="1933" 
d="M1163 476q-7 -38 -7 -89q0 -106 46.5 -162.5t137.5 -56.5q147 0 213 169l245 -74q-75 -159 -186 -221t-291 -62q-247 0 -366 152q-68 -75 -177.5 -113.5t-247.5 -38.5q-218 0 -345 117.5t-127 321.5q0 201 79.5 356t226.5 240.5t335 85.5q125 0 212 -33.5t157 -107.5
q152 142 383 142q209 0 322.5 -107.5t113.5 -303.5q0 -99 -24 -215h-700zM886 662q0 247 -208 247q-114 0 -181.5 -60t-105.5 -182.5t-38 -235.5q0 -124 52 -191.5t157 -67.5q114 0 179 58.5t102 175.5t43 256zM1627 663l3 56q0 107 -49.5 156t-129.5 49q-96 0 -161.5 -66.5
t-93.5 -194.5h431z" />
    <glyph glyph-name="Racute" unicode="&#x154;" horiz-adv-x="1479" 
d="M1010 0l-230 534h-346l-103 -534h-295l274 1409h651q159 0 272.5 -49t172.5 -140t59 -214q0 -165 -108.5 -280t-294.5 -143l274 -583h-326zM872 764q145 0 219.5 58.5t74.5 166.5q0 93 -63.5 142t-178.5 49h-364l-81 -416h393zM738 1530l7 31l270 247h267l-9 -43
l-386 -235h-149z" />
    <glyph glyph-name="racute" unicode="&#x155;" horiz-adv-x="797" 
d="M844 853q-69 15 -114 15q-123 0 -200.5 -87t-112.5 -267l-101 -514h-281l161 830q24 120 42 252h268l-22 -172l-8 -49h4q73 134 144 187.5t163 53.5q47 0 103 -14zM437 1183l6 31l247 288h277l-8 -43l-376 -276h-146z" />
    <glyph glyph-name="Rcommaaccent" unicode="&#x156;" horiz-adv-x="1479" 
d="M1010 0l-230 534h-346l-103 -534h-295l274 1409h651q159 0 272.5 -49t172.5 -140t59 -214q0 -165 -108.5 -280t-294.5 -143l274 -583h-326zM872 764q145 0 219.5 58.5t74.5 166.5q0 93 -63.5 142t-178.5 49h-364l-81 -416h393zM622 -455h-137q112 100 127 170h-108
l40 207h245l-24 -126q-14 -70 -45 -127t-98 -124z" />
    <glyph glyph-name="rcommaaccent" unicode="&#x157;" horiz-adv-x="797" 
d="M844 853q-69 15 -114 15q-123 0 -200.5 -87t-112.5 -267l-101 -514h-281l161 830q24 120 42 252h268l-22 -172l-8 -49h4q73 134 144 187.5t163 53.5q47 0 103 -14zM119 -455h-137q112 100 127 170h-108l40 207h245l-24 -126q-14 -70 -45 -127t-98 -124z" />
    <glyph glyph-name="Rcaron" unicode="&#x158;" horiz-adv-x="1479" 
d="M1010 0l-230 534h-346l-103 -534h-295l274 1409h651q159 0 272.5 -49t172.5 -140t59 -214q0 -165 -108.5 -280t-294.5 -143l274 -583h-326zM872 764q145 0 219.5 58.5t74.5 166.5q0 93 -63.5 142t-178.5 49h-364l-81 -416h393zM931 1530h-229l-204 276l5 29h150l182 -152
h4l232 152h169l-6 -29z" />
    <glyph glyph-name="rcaron" unicode="&#x159;" horiz-adv-x="797" 
d="M844 853q-69 15 -114 15q-123 0 -200.5 -87t-112.5 -267l-101 -514h-281l161 830q24 120 42 252h268l-22 -172l-8 -49h4q73 134 144 187.5t163 53.5q47 0 103 -14zM674 1183h-229l-197 317l6 29h150l174 -193h4l240 193h169l-6 -29z" />
    <glyph glyph-name="Sacute" unicode="&#x15a;" horiz-adv-x="1366" 
d="M600 -20q-267 0 -407 94.5t-168 290.5l289 49q21 -111 93.5 -162t212.5 -51q345 0 345 199q0 80 -60 126.5t-238 91.5q-184 49 -272.5 102t-135 129.5t-46.5 187.5q0 177 157 285t416 108q238 0 382 -86.5t177 -252.5l-288 -67q-22 90 -95.5 143.5t-191.5 53.5
q-124 0 -195 -46.5t-71 -127.5q0 -47 26 -80t76 -57.5t198 -64.5q159 -44 235 -82.5t121.5 -86.5t69.5 -110t24 -143q0 -216 -166 -329.5t-488 -113.5zM713 1530l7 31l270 247h267l-9 -43l-386 -235h-149z" />
    <glyph glyph-name="sacute" unicode="&#x15b;" horiz-adv-x="1139" 
d="M1000 334q0 -174 -128.5 -264t-374.5 -90q-201 0 -317 71t-157 220l251 36q21 -75 77 -108t166 -33q109 0 165.5 35t56.5 101q0 52 -41.5 79.5t-182.5 57.5q-199 45 -280.5 124.5t-81.5 205.5q0 160 125.5 245t358.5 85q206 0 307 -70.5t125 -217.5l-251 -29
q-17 69 -66 100t-134 31q-205 0 -205 -120q0 -33 20 -55t57 -38t178 -49q182 -41 257 -117t75 -200zM543 1183l6 31l247 288h277l-8 -43l-376 -276h-146z" />
    <glyph glyph-name="Scircumflex" unicode="&#x15c;" horiz-adv-x="1366" 
d="M600 -20q-267 0 -407 94.5t-168 290.5l289 49q21 -111 93.5 -162t212.5 -51q345 0 345 199q0 80 -60 126.5t-238 91.5q-184 49 -272.5 102t-135 129.5t-46.5 187.5q0 177 157 285t416 108q238 0 382 -86.5t177 -252.5l-288 -67q-22 90 -95.5 143.5t-191.5 53.5
q-124 0 -195 -46.5t-71 -127.5q0 -47 26 -80t76 -57.5t198 -64.5q159 -44 235 -82.5t121.5 -86.5t69.5 -110t24 -143q0 -216 -166 -329.5t-488 -113.5zM1206 1559l-5 -29h-149l-174 151h-4l-240 -151h-169l5 29l311 276h229z" />
    <glyph glyph-name="scircumflex" unicode="&#x15d;" horiz-adv-x="1139" 
d="M1000 334q0 -174 -128.5 -264t-374.5 -90q-201 0 -317 71t-157 220l251 36q21 -75 77 -108t166 -33q109 0 165.5 35t56.5 101q0 52 -41.5 79.5t-182.5 57.5q-199 45 -280.5 124.5t-81.5 205.5q0 160 125.5 245t358.5 85q206 0 307 -70.5t125 -217.5l-251 -29
q-17 69 -66 100t-134 31q-205 0 -205 -120q0 -33 20 -55t57 -38t178 -49q182 -41 257 -117t75 -200zM1016 1211l-5 -28h-150l-166 192h-4l-248 -192h-169l5 28l320 318h229z" />
    <glyph glyph-name="Scedilla" unicode="&#x15e;" horiz-adv-x="1366" 
d="M600 -20q-267 0 -407 94.5t-168 290.5l289 49q21 -111 93.5 -162t212.5 -51q345 0 345 199q0 80 -60 126.5t-238 91.5q-184 49 -272.5 102t-135 129.5t-46.5 187.5q0 177 157 285t416 108q238 0 382 -86.5t177 -252.5l-288 -67q-22 90 -95.5 143.5t-191.5 53.5
q-124 0 -195 -46.5t-71 -127.5q0 -47 26 -80t76 -57.5t198 -64.5q159 -44 235 -82.5t121.5 -86.5t69.5 -110t24 -143q0 -216 -166 -329.5t-488 -113.5zM465 -425q-50 0 -106 6l29 117q42 -7 82 -7q81 0 118 17.5t37 59.5q0 63 -110 63h-25l-28 -2l98 171h141l-48 -83
q70 -1 113.5 -33.5t43.5 -98.5q0 -97 -84 -153.5t-261 -56.5z" />
    <glyph glyph-name="scedilla" unicode="&#x15f;" horiz-adv-x="1139" 
d="M1000 334q0 -174 -128.5 -264t-374.5 -90q-201 0 -317 71t-157 220l251 36q21 -75 77 -108t166 -33q109 0 165.5 35t56.5 101q0 52 -41.5 79.5t-182.5 57.5q-199 45 -280.5 124.5t-81.5 205.5q0 160 125.5 245t358.5 85q206 0 307 -70.5t125 -217.5l-251 -29
q-17 69 -66 100t-134 31q-205 0 -205 -120q0 -33 20 -55t57 -38t178 -49q182 -41 257 -117t75 -200zM340 -425q-50 0 -106 6l29 117q42 -7 82 -7q81 0 118 17.5t37 59.5q0 63 -110 63h-25l-28 -2l98 171h141l-48 -83q70 -1 113.5 -33.5t43.5 -98.5q0 -97 -84 -153.5
t-261 -56.5z" />
    <glyph glyph-name="Scaron" unicode="&#x160;" horiz-adv-x="1366" 
d="M600 -20q-267 0 -407 94.5t-168 290.5l289 49q21 -111 93.5 -162t212.5 -51q345 0 345 199q0 80 -60 126.5t-238 91.5q-184 49 -272.5 102t-135 129.5t-46.5 187.5q0 177 157 285t416 108q238 0 382 -86.5t177 -252.5l-288 -67q-22 90 -95.5 143.5t-191.5 53.5
q-124 0 -195 -46.5t-71 -127.5q0 -47 26 -80t76 -57.5t198 -64.5q159 -44 235 -82.5t121.5 -86.5t69.5 -110t24 -143q0 -216 -166 -329.5t-488 -113.5zM934 1530h-229l-204 276l5 29h150l182 -152h4l232 152h169l-6 -29z" />
    <glyph glyph-name="scaron" unicode="&#x161;" horiz-adv-x="1139" 
d="M1000 334q0 -174 -128.5 -264t-374.5 -90q-201 0 -317 71t-157 220l251 36q21 -75 77 -108t166 -33q109 0 165.5 35t56.5 101q0 52 -41.5 79.5t-182.5 57.5q-199 45 -280.5 124.5t-81.5 205.5q0 160 125.5 245t358.5 85q206 0 307 -70.5t125 -217.5l-251 -29
q-17 69 -66 100t-134 31q-205 0 -205 -120q0 -33 20 -55t57 -38t178 -49q182 -41 257 -117t75 -200zM776 1183h-229l-197 317l6 29h150l174 -193h4l240 193h169l-6 -29z" />
    <glyph glyph-name="Tcommaaccent" unicode="&#x162;" 
d="M895 1181l-230 -1181h-295l230 1181h-455l44 228h1206l-44 -228h-456zM352 -425q-50 0 -106 6l29 117q42 -7 82 -7q81 0 118 17.5t37 59.5q0 63 -110 63h-25l-28 -2l98 171h141l-48 -83q70 -1 113.5 -33.5t43.5 -98.5q0 -97 -84 -153.5t-261 -56.5z" />
    <glyph glyph-name="tcommaaccent" unicode="&#x163;" horiz-adv-x="682" 
d="M376 -16q-124 0 -192 58.5t-68 166.5q0 71 16 157l102 526h-148l37 190h162l137 254h176l-48 -254h202l-35 -190h-205l-104 -535q-11 -56 -11 -89q0 -46 23.5 -68.5t63.5 -22.5q32 0 108 13l-32 -182q-81 -24 -184 -24zM164 -425q-50 0 -106 6l29 117q42 -7 82 -7
q81 0 118 17.5t37 59.5q0 63 -110 63h-25l-28 -2l98 171h141l-48 -83q70 -1 113.5 -33.5t43.5 -98.5q0 -97 -84 -153.5t-261 -56.5z" />
    <glyph glyph-name="Tcaron" unicode="&#x164;" 
d="M895 1181l-230 -1181h-295l230 1181h-455l44 228h1206l-44 -228h-456zM915 1530h-229l-204 276l5 29h150l182 -152h4l232 152h169l-6 -29z" />
    <glyph glyph-name="tcaron" unicode="&#x165;" horiz-adv-x="981" 
d="M376 -16q-124 0 -192 58.5t-68 166.5q0 71 16 157l102 526h-148l37 190h162l137 254h176l-48 -254h202l-35 -190h-205l-104 -535q-11 -56 -11 -89q0 -46 23.5 -68.5t63.5 -22.5q32 0 108 13l-32 -182q-81 -24 -184 -24zM966 1087h-137q114 101 131 190h-108l40 207h245
l-28 -146q-15 -70 -45 -126.5t-98 -124.5z" />
    <glyph glyph-name="Tbar" unicode="&#x166;" 
d="M895 1181l-71 -365h228l-37 -190h-228l-122 -626h-295l122 626h-227l37 190h227l71 365h-455l44 228h1206l-44 -228h-456z" />
    <glyph glyph-name="tbar" unicode="&#x167;" horiz-adv-x="682" 
d="M376 -16q-124 0 -192 58.5t-68 166.5q0 71 16 157l20 107h-126l36 190h127l45 229h-148l37 190h162l137 254h176l-48 -254h202l-35 -190h-205l-45 -229h185l-37 -190h-185l-22 -116q-11 -56 -11 -89q0 -46 23.5 -68.5t63.5 -22.5q32 0 108 13l-32 -182q-81 -24 -184 -24z
" />
    <glyph glyph-name="Utilde" unicode="&#x168;" horiz-adv-x="1479" 
d="M688 211q165 0 250.5 76t119.5 254l168 868h295l-171 -879q-55 -281 -220 -415.5t-458 -134.5q-264 0 -408.5 117.5t-144.5 333.5q0 44 7.5 105.5t15.5 98.5l148 774h295l-153 -810q-18 -87 -18 -172q0 -103 73 -159.5t201 -56.5zM1075 1529q-44 0 -84.5 19t-78 42.5
t-71.5 42.5t-64 19q-42 0 -69.5 -25.5t-52.5 -97.5h-136q39 158 108.5 225.5t172.5 67.5q45 0 86.5 -19t78.5 -42.5t70 -42.5t62 -19q43 0 71 28t52 95h135q-39 -158 -108.5 -225.5t-171.5 -67.5z" />
    <glyph glyph-name="utilde" unicode="&#x169;" 
d="M512 1082l-118 -595q-26 -123 -26 -165q0 -129 152 -129q101 0 186.5 81t108.5 202l118 606h282l-166 -851q-16 -79 -38 -231h-268q0 9 9.5 84t14.5 101h-3q-76 -107 -166.5 -155.5t-206.5 -48.5q-152 0 -229 73t-77 211q0 25 7 80.5t14 83.5l127 653h279zM906 1183
q-44 0 -84.5 19t-78 42.5t-71.5 42.5t-64 19q-42 0 -69.5 -25.5t-52.5 -97.5h-136q39 158 108.5 225.5t172.5 67.5q45 0 86.5 -19t78.5 -42.5t70 -42.5t62 -19q43 0 71 28t52 95h135q-39 -158 -108.5 -225.5t-171.5 -67.5z" />
    <glyph glyph-name="Umacron" unicode="&#x16a;" horiz-adv-x="1479" 
d="M688 211q165 0 250.5 76t119.5 254l168 868h295l-171 -879q-55 -281 -220 -415.5t-458 -134.5q-264 0 -408.5 117.5t-144.5 333.5q0 44 7.5 105.5t15.5 98.5l148 774h295l-153 -810q-18 -87 -18 -172q0 -103 73 -159.5t201 -56.5zM1214 1532h-586l33 168h590z" />
    <glyph glyph-name="umacron" unicode="&#x16b;" 
d="M512 1082l-118 -595q-26 -123 -26 -165q0 -129 152 -129q101 0 186.5 81t108.5 202l118 606h282l-166 -851q-16 -79 -38 -231h-268q0 9 9.5 84t14.5 101h-3q-76 -107 -166.5 -155.5t-206.5 -48.5q-152 0 -229 73t-77 211q0 25 7 80.5t14 83.5l127 653h279zM1029 1203
h-586l33 168h590z" />
    <glyph glyph-name="Ubreve" unicode="&#x16c;" horiz-adv-x="1479" 
d="M688 211q165 0 250.5 76t119.5 254l168 868h295l-171 -879q-55 -281 -220 -415.5t-458 -134.5q-264 0 -408.5 117.5t-144.5 333.5q0 44 7.5 105.5t15.5 98.5l148 774h295l-153 -810q-18 -87 -18 -172q0 -103 73 -159.5t201 -56.5zM910 1520q-142 0 -227.5 81t-85.5 222
h165q0 -75 45.5 -119.5t124.5 -44.5q78 0 131 38t80 126h164q-42 -153 -139 -228t-258 -75z" />
    <glyph glyph-name="ubreve" unicode="&#x16d;" 
d="M512 1082l-118 -595q-26 -123 -26 -165q0 -129 152 -129q101 0 186.5 81t108.5 202l118 606h282l-166 -851q-16 -79 -38 -231h-268q0 9 9.5 84t14.5 101h-3q-76 -107 -166.5 -155.5t-206.5 -48.5q-152 0 -229 73t-77 211q0 25 7 80.5t14 83.5l127 653h279zM737 1183
q-140 0 -226.5 78.5t-86.5 206.5l2 38h163q0 -74 45.5 -120t118.5 -46q78 0 135.5 43.5t81.5 122.5h164q-43 -164 -140 -243.5t-257 -79.5z" />
    <glyph glyph-name="Uring" unicode="&#x16e;" horiz-adv-x="1479" 
d="M688 211q165 0 250.5 76t119.5 254l168 868h295l-171 -879q-55 -281 -220 -415.5t-458 -134.5q-264 0 -408.5 117.5t-144.5 333.5q0 44 7.5 105.5t15.5 98.5l148 774h295l-153 -810q-18 -87 -18 -172q0 -103 73 -159.5t201 -56.5zM1182 1724q0 -105 -73.5 -179.5
t-180.5 -74.5t-180.5 74.5t-73.5 179.5t74.5 179.5t179.5 74.5t179.5 -74.5t74.5 -179.5zM1055 1724q0 51 -36.5 88t-90.5 37q-51 0 -88 -36t-37 -89q0 -56 37 -92t88 -36q53 0 90 37t37 91z" />
    <glyph glyph-name="uring" unicode="&#x16f;" 
d="M512 1082l-118 -595q-26 -123 -26 -165q0 -129 152 -129q101 0 186.5 81t108.5 202l118 606h282l-166 -851q-16 -79 -38 -231h-268q0 9 9.5 84t14.5 101h-3q-76 -107 -166.5 -155.5t-206.5 -48.5q-152 0 -229 73t-77 211q0 25 7 80.5t14 83.5l127 653h279zM984 1390
q0 -105 -73.5 -179.5t-180.5 -74.5t-180.5 74.5t-73.5 179.5t74.5 179.5t179.5 74.5t179.5 -74.5t74.5 -179.5zM857 1390q0 51 -36.5 88t-90.5 37q-51 0 -88 -36t-37 -89q0 -56 37 -92t88 -36q53 0 90 37t37 91z" />
    <glyph glyph-name="Uhungarumlaut" unicode="&#x170;" horiz-adv-x="1479" 
d="M688 211q165 0 250.5 76t119.5 254l168 868h295l-171 -879q-55 -281 -220 -415.5t-458 -134.5q-264 0 -408.5 117.5t-144.5 333.5q0 44 7.5 105.5t15.5 98.5l148 774h295l-153 -810q-18 -87 -18 -172q0 -103 73 -159.5t201 -56.5zM572 1530l10 31l227 248h261l-10 -43
l-352 -236h-136zM977 1530v31l237 248h261l-10 -43l-352 -236h-136z" />
    <glyph glyph-name="uhungarumlaut" unicode="&#x171;" 
d="M512 1082l-118 -595q-26 -123 -26 -165q0 -129 152 -129q101 0 186.5 81t108.5 202l118 606h282l-166 -851q-16 -79 -38 -231h-268q0 9 9.5 84t14.5 101h-3q-76 -107 -166.5 -155.5t-206.5 -48.5q-152 0 -229 73t-77 211q0 25 7 80.5t14 83.5l127 653h279zM407 1183
l10 31l257 288h261l-10 -43l-372 -276h-146zM812 1183l10 31l257 288h261l-10 -43l-372 -276h-146z" />
    <glyph glyph-name="Uogonek" unicode="&#x172;" horiz-adv-x="1479" 
d="M688 211q165 0 250.5 76t119.5 254l168 868h295l-171 -879q-55 -281 -220 -415.5t-458 -134.5q-264 0 -408.5 117.5t-144.5 333.5q0 44 7.5 105.5t15.5 98.5l148 774h295l-153 -810q-18 -87 -18 -172q0 -103 73 -159.5t201 -56.5zM713 -425q-90 0 -145 48t-55 131
q0 73 45.5 139.5t134.5 116.5h164q-61 -38 -103.5 -102t-42.5 -119q0 -38 22 -57t57 -19q49 0 102 23l-19 -127q-79 -34 -160 -34z" />
    <glyph glyph-name="uogonek" unicode="&#x173;" 
d="M512 1082l-118 -595q-26 -123 -26 -165q0 -129 152 -129q101 0 186.5 81t108.5 202l118 606h282l-166 -851q-16 -79 -38 -231h-268q0 9 9.5 84t14.5 101h-3q-76 -107 -166.5 -155.5t-206.5 -48.5q-152 0 -229 73t-77 211q0 25 7 80.5t14 83.5l127 653h279zM780 -425
q-90 0 -145 48t-55 131q0 73 45.5 139.5t134.5 116.5h164q-61 -38 -103.5 -102t-42.5 -119q0 -38 22 -57t57 -19q49 0 102 23l-19 -127q-79 -34 -160 -34z" />
    <glyph glyph-name="Wcircumflex" unicode="&#x174;" horiz-adv-x="1933" 
d="M1441 0h-350l-27 812l-4 220l-1 84q-60 -160 -91.5 -239t-373.5 -877h-355l-89 1409h280l36 -815q7 -168 7 -346l57 144l76 185l355 832h316l42 -1161q27 73 78.5 204.5t390.5 956.5h291zM1483 1559l-5 -29h-149l-174 151h-4l-240 -151h-169l5 29l311 276h229z" />
    <glyph glyph-name="wcircumflex" unicode="&#x175;" horiz-adv-x="1593" 
d="M1207 0h-297l-43 660l-5 230q-53 -142 -95 -232l-302 -658h-297l-69 1082h258l14 -696v-131l27 68l52 123l294 636h301l42 -636l5 -191l53 132l291 695h266zM1271 1211l-5 -28h-150l-166 192h-4l-248 -192h-169l5 28l320 318h229z" />
    <glyph glyph-name="Ycircumflex" unicode="&#x176;" horiz-adv-x="1366" 
d="M724 0h-294l112 578l-370 831h292l259 -605l474 605h323l-684 -831zM1214 1559l-5 -29h-149l-174 151h-4l-240 -151h-169l5 29l311 276h229z" />
    <glyph glyph-name="ycircumflex" unicode="&#x177;" horiz-adv-x="1139" 
d="M88 -425q-97 0 -173 18l38 196q40 -9 87 -9q78 0 137.5 46t118.5 150l28 48l-212 1058h291l71 -497q6 -31 21.5 -178t13.5 -156l17 37l139 293l259 501h300l-654 -1139q-107 -167 -174.5 -235t-141 -100.5t-166.5 -32.5zM1030 1211l-5 -28h-150l-166 192h-4l-248 -192
h-169l5 28l320 318h229z" />
    <glyph glyph-name="Ydieresis" unicode="&#x178;" horiz-adv-x="1366" 
d="M695 0h-294l112 578l-370 831h292l259 -605l474 605h323l-684 -831zM927 1530l43 219h217l-43 -219h-217zM494 1530l42 219h214l-43 -219h-213z" />
    <glyph glyph-name="Zacute" unicode="&#x179;" 
d="M1082 0h-1130l40 209l927 969h-663l45 231h1014l-40 -205l-930 -973h782zM663 1530l7 31l270 247h267l-9 -43l-386 -235h-149z" />
    <glyph glyph-name="zacute" unicode="&#x17a;" horiz-adv-x="1024" 
d="M-10 0l38 199l613 680h-440l40 203h769l-39 -201l-610 -676h527l-40 -205h-858zM504 1183l6 31l247 288h277l-8 -43l-376 -276h-146z" />
    <glyph glyph-name="Zdotaccent" unicode="&#x17b;" 
d="M1082 0h-1130l40 209l927 969h-663l45 231h1014l-40 -205l-930 -973h782zM657 1540l41 207h281l-41 -207h-281z" />
    <glyph glyph-name="zdotaccent" unicode="&#x17c;" horiz-adv-x="1024" 
d="M-10 0l38 199l613 680h-440l40 203h769l-39 -201l-610 -676h527l-40 -205h-858zM519 1277l41 207h281l-41 -207h-281z" />
    <glyph glyph-name="Zcaron" unicode="&#x17d;" 
d="M1082 0h-1130l40 209l927 969h-663l45 231h1014l-40 -205l-930 -973h782zM902 1530h-229l-204 276l5 29h150l182 -152h4l232 152h169l-6 -29z" />
    <glyph glyph-name="zcaron" unicode="&#x17e;" horiz-adv-x="1024" 
d="M-10 0l38 199l613 680h-440l40 203h769l-39 -201l-610 -676h527l-40 -205h-858zM742 1183h-229l-197 317l6 29h150l174 -193h4l240 193h169l-6 -29z" />
    <glyph glyph-name="longs" unicode="&#x17f;" horiz-adv-x="569" 
d="M659 1484q73 0 155 -17l-36 -181q-11 2 -43 6t-53 4q-67 0 -97 -32t-43 -97l-227 -1167h-280l233 1195q30 155 124.5 222t266.5 67z" />
    <glyph glyph-name="uni0180" unicode="&#x180;" 
d="M799 1175h-248q-59 -302 -63 -302h4q63 94 155 141.5t201 47.5q159 0 248 -94.5t89 -259.5q0 -221 -63.5 -390.5t-178 -253.5t-274.5 -84q-125 0 -203 52t-110 146h-2q-6 -26 -13.5 -55.5t-15 -55.5t-13 -44.5t-6.5 -22.5h-271q8 25 49 223l185 952h-141l33 170h142
l27 139h281l-27 -139h243zM728 867q-94 0 -147 -29.5t-91.5 -93t-60.5 -165t-22 -178.5q0 -107 53 -167.5t148 -60.5q133 0 208.5 129t75.5 352q0 111 -41 162t-123 51z" />
    <glyph glyph-name="uni0181" unicode="&#x181;" horiz-adv-x="1630" 
d="M475 1195h-20q-72 0 -110 -38t-38 -109q0 -37 12 -97l-225 -17q-5 38 -5 87q0 199 94.5 293.5t292.5 94.5h625q251 0 380 -82.5t129 -243.5q0 -137 -82.5 -224.5t-241.5 -120.5q136 -23 212.5 -105.5t76.5 -201.5q0 -211 -156.5 -321t-470.5 -110h-705zM580 219h328
q209 0 290 50.5t81 167.5q0 90 -68 138t-222 48h-330zM701 841h294q175 0 248.5 46t73.5 151q0 80 -57 116t-191 36h-301z" />
    <glyph glyph-name="uni0182" unicode="&#x182;" horiz-adv-x="1450" 
d="M869 848q232 0 366.5 -103.5t134.5 -282.5q0 -221 -162 -341.5t-452 -120.5h-720l273 1409h1059l-44 -227h-764l-65 -334h374zM375 230h391q145 0 222.5 55t77.5 156q0 89 -62 134.5t-199 45.5h-354z" />
    <glyph glyph-name="uni0183" unicode="&#x183;" 
d="M855 1102q159 0 248 -94.5t89 -259.5q0 -202 -62 -393.5t-174.5 -283t-286.5 -91.5q-125 0 -203 52t-110 146h-2q-6 -26 -13.5 -55.5t-15 -55.5t-13 -44.5t-6.5 -22.5h-271q6 17 25 108t270 1376h781l-36 -213h-506q-70 -358 -74 -358h4q63 94 155 141.5t201 47.5z
M735 907q-81 0 -139.5 -35t-99.5 -106.5t-65 -178.5t-24 -186q0 -107 53 -167.5t148 -60.5q101 0 158 62.5t95 212t38 246.5q0 105 -35.5 159t-128.5 54z" />
    <glyph glyph-name="uni0184" unicode="&#x184;" horiz-adv-x="1450" 
d="M36 0l194 1003l-118 203l6 36l411 167h75l-109 -561h374q232 0 366.5 -103.5t134.5 -282.5q0 -221 -162 -341.5t-452 -120.5h-720zM375 230h391q145 0 222.5 55t77.5 156q0 89 -62 134.5t-199 45.5h-354z" />
    <glyph glyph-name="uni0185" unicode="&#x185;" 
d="M35 0q3 9 8 30.5t11.5 51.5t14 66t15.5 75l170 874l-112 193l5 35l392 159h72q-26 -130 -44.5 -223.5t-31 -156.5t-20.5 -101t-12.5 -58t-6 -26l-1.5 -6h4q28 42 64.5 77t81 59.5t97.5 38.5t113 14q81 0 144 -25t105.5 -71t65 -111.5t22.5 -146.5v-14q0 -48 -5 -104
t-16 -114q-28 -142 -72 -243.5t-106.5 -166.5t-143 -95.5t-180.5 -30.5q-125 0 -203 52t-110 146h-2q-6 -26 -13.5 -55.5t-15 -55.5t-13 -44.5t-6.5 -22.5h-271zM735 907q-53 0 -100.5 -16.5t-87.5 -56.5t-71.5 -108.5t-51.5 -171.5q-8 -44 -12.5 -82t-4.5 -71
q0 -56 14.5 -98.5t41 -71.5t63.5 -43.5t82 -14.5q51 0 91.5 15.5t73 54t58 105t46.5 168.5q11 51 16.5 95.5t5.5 82.5q0 105 -35.5 159t-128.5 54z" />
    <glyph glyph-name="uni0186" unicode="&#x186;" horiz-adv-x="1479" 
d="M782 1198q-264 0 -423 -268l-238 97q126 211 299 307t407 96q191 0 331 -69.5t213.5 -196.5t73.5 -293q0 -259 -103 -463.5t-293.5 -316t-443.5 -111.5q-231 0 -381.5 103.5t-186.5 288.5l274 71q19 -105 109.5 -168t223.5 -63q152 0 264.5 81.5t172.5 229t60 337.5
q0 161 -95.5 249.5t-263.5 88.5z" />
    <glyph glyph-name="uni0187" unicode="&#x187;" horiz-adv-x="1479" 
d="M401 573q0 -173 85.5 -267.5t244.5 -94.5q266 0 418 258l227 -117q-104 -186 -272 -279t-393 -93q-192 0 -330 72t-209.5 206t-71.5 311q0 252 105 450.5t293.5 304.5t428.5 106q224 0 369 -93l15 80q28 143 124.5 216.5t245.5 73.5q75 0 149 -17l-40 -204q-55 12 -85 12
q-52 0 -88 -30t-52 -111l-62 -319l-274 -71q-29 107 -111.5 169t-199.5 62q-242 0 -379.5 -168t-137.5 -457z" />
    <glyph glyph-name="uni0188" unicode="&#x188;" horiz-adv-x="1139" 
d="M825 718q-11 191 -167 191q-107 0 -167.5 -73.5t-109.5 -260.5q-23 -115 -23 -168q0 -234 178 -234q83 0 137 52.5t86 155.5l271 -50q-105 -351 -510 -351q-220 0 -338.5 112.5t-118.5 312.5q0 195 79 366t210.5 251t327.5 80q136 0 238 -53q28 140 120.5 209.5
t233.5 69.5q76 0 148 -17l-39 -201q-55 12 -85 12q-52 0 -88 -30t-52 -111l-47 -240z" />
    <glyph glyph-name="uni0189" unicode="&#x189;" horiz-adv-x="1479" 
d="M734 1409q333 0 510 -155t177 -447q0 -236 -99 -417t-287 -285.5t-421 -104.5h-578l115 594h-128l42 219h129l116 596h424zM488 813h357l-44 -219h-355l-71 -366h230q160 0 283.5 68.5t190 197.5t66.5 300q0 189 -105.5 288t-303.5 99h-176z" />
    <glyph glyph-name="uni018A" unicode="&#x18a;" horiz-adv-x="1623" 
d="M906 1409q333 0 510 -155t177 -447q0 -236 -99 -417t-287 -285.5t-421 -104.5h-546l232 1195h-17q-72 0 -110 -38t-38 -109q0 -37 12 -97l-225 -17q-5 38 -5 87q0 199 94.5 293.5t292.5 94.5h430zM579 228h198q160 0 283.5 68.5t190 197.5t66.5 300q0 189 -105.5 288
t-303.5 99h-144z" />
    <glyph glyph-name="uni018B" unicode="&#x18b;" horiz-adv-x="1366" 
d="M33 370q0 144 72.5 251t202.5 163.5t303 56.5h409l66 341h-706l44 227h1001l-273 -1409h-672q-137 0 -238 46t-155 130t-54 194zM641 623q-151 0 -228.5 -59.5t-77.5 -171.5q0 -173 235 -173h329l79 404h-337z" />
    <glyph glyph-name="uni018C" unicode="&#x18c;" 
d="M749 160q-71 -93 -153.5 -137t-203.5 -44q-154 0 -244 102t-90 273q0 191 64 374t179.5 278.5t278.5 95.5q124 0 204.5 -50.5t109.5 -147.5h5q3 32 11.5 82.5t55.5 284.5h-506l46 213h780l-238 -1253q-20 -112 -29 -231h-281q0 31 4.5 80.5t10.5 79.5h-4zM515 172
q80 0 138 34.5t99 106t65.5 179.5t24.5 189q0 120 -47 174.5t-141 54.5q-102 0 -166.5 -69t-98.5 -202t-34 -246q0 -221 160 -221z" />
    <glyph glyph-name="uni018D" unicode="&#x18d;" horiz-adv-x="1250" 
d="M1203 678q0 -260 -144.5 -437.5t-403.5 -231.5l298 -253l-35 -180h-923l40 203h537l-299 262q-78 70 -113 124.5t-56 122.5t-21 156q0 189 82.5 339.5t233.5 234.5t346 84q219 0 338.5 -112t119.5 -312zM567 192q102 0 178 60t121 177.5t45 259.5q0 105 -56 162.5
t-157 57.5q-103 0 -174.5 -62.5t-109 -173.5t-37.5 -251q0 -116 51.5 -173t138.5 -57z" />
    <glyph glyph-name="uni018E" unicode="&#x18e;" horiz-adv-x="1366" 
d="M1401 1409l-273 -1409h-1108l44 228h813l69 354h-752l44 228h752l72 371h-854l45 228h1148z" />
    <glyph glyph-name="uni018F" unicode="&#x18f;" horiz-adv-x="1531" 
d="M700 206q152 0 261.5 107t157.5 300h-710q-7 -44 -7 -93q0 -145 78.5 -229.5t219.5 -84.5zM265 1070q87 188 233.5 274t374.5 86q270 0 432 -159.5t162 -433.5q0 -244 -107.5 -441t-295.5 -306.5t-421 -109.5q-162 0 -283 72.5t-187 203t-66 289.5q0 152 48 303h1006
l2 55q0 129 -83 213t-211 84q-84 0 -142 -18.5t-102.5 -57t-100.5 -127.5z" />
    <glyph glyph-name="uni018F" unicode="&#x4d8;" horiz-adv-x="1531" 
d="M700 206q152 0 261.5 107t157.5 300h-710q-7 -44 -7 -93q0 -145 78.5 -229.5t219.5 -84.5zM265 1070q87 188 233.5 274t374.5 86q270 0 432 -159.5t162 -433.5q0 -244 -107.5 -441t-295.5 -306.5t-421 -109.5q-162 0 -283 72.5t-187 203t-66 289.5q0 152 48 303h1006
l2 55q0 129 -83 213t-211 84q-84 0 -142 -18.5t-102.5 -57t-100.5 -127.5z" />
    <glyph glyph-name="uni0190" unicode="&#x190;" horiz-adv-x="1316" 
d="M563 -20q-145 0 -259 47t-176 129.5t-62 186.5q0 157 100 257t288 126q-105 31 -165 100.5t-60 168.5q0 127 70.5 226.5t198.5 153.5t285 54q218 0 350 -100t172 -293l-272 -60q-27 127 -92.5 181.5t-174.5 54.5q-117 0 -185.5 -54t-68.5 -157q0 -77 65 -124.5t197 -47.5
h59l-44 -227h-59q-199 0 -284.5 -50.5t-85.5 -164.5q0 -83 68 -131t185 -48q122 0 211.5 62.5t154.5 190.5l247 -132q-100 -187 -257 -268t-406 -81z" />
    <glyph glyph-name="uni0191" unicode="&#x191;" 
d="M560 1181l-85 -436h668l-44 -228h-668l-118 -603q-36 -181 -129.5 -260t-278.5 -79q-74 0 -160 20l42 220q65 -13 93 -13q64 0 98.5 38.5t49.5 117.5l281 1451h986l-44 -228h-691z" />
    <glyph glyph-name="florin" unicode="&#x192;" horiz-adv-x="1139" 
d="M756 892l-258 -1317h-280l258 1317h-158l37 190h158l22 113q30 155 124.5 222t266.5 67q73 0 155 -17l-36 -181q-11 2 -43 6t-53 4q-67 0 -97 -32t-43 -97l-16 -85h213l-37 -190h-213z" />
    <glyph glyph-name="uni0193" unicode="&#x193;" horiz-adv-x="1593" 
d="M740 -19q-300 0 -470 158.5t-170 443.5q0 249 103.5 442t296 299t442.5 106q228 0 379 -102l17 89q28 143 124.5 216.5t245.5 73.5q75 0 149 -17l-40 -204q-55 12 -85 12q-52 0 -88 -30t-52 -111l-62 -318l-282 -78q-29 113 -112 175t-210 62q-160 0 -280 -75.5
t-183.5 -213t-63.5 -317.5q0 -177 95 -279t270 -102q108 0 210 26t174 70l46 228h-342l39 208h614l-105 -568q-147 -103 -304 -148.5t-356 -45.5z" />
    <glyph glyph-name="uni0194" unicode="&#x194;" horiz-adv-x="1271" 
d="M179 1409h308l165 -866l500 866h305l-710 -1139q62 -175 78 -244.5t16 -121.5q0 -152 -98 -240.5t-273 -88.5q-123 0 -198 68t-75 178q0 85 53 184t198 265zM505 -218q52 0 76 36t24 87q0 63 -14 109t-26 81l-40 -51q-86 -108 -86 -184q0 -32 17 -55t49 -23z" />
    <glyph glyph-name="uni0195" unicode="&#x195;" horiz-adv-x="1912" 
d="M812 296q0 62 11 130.5t24 132t24 116.5t11 85q0 129 -152 129q-101 0 -186.5 -81t-108.5 -202l-118 -606h-282l286 1484h280l-79 -405l-39 -182h3q76 107 166.5 155.5t206.5 48.5q152 0 229 -73t77 -211q0 -79 -36 -255q-36 -171 -36 -205q0 -87 37.5 -126.5
t112.5 -39.5q189 0 238 257l124 634h280l-122 -626q-48 -246 -178.5 -361t-357.5 -115q-198 0 -306.5 82t-108.5 234z" />
    <glyph glyph-name="uni0196" unicode="&#x196;" horiz-adv-x="569" 
d="M36 0l273 1409h295l-274 -1409h-294z" />
    <glyph glyph-name="uni0197" unicode="&#x197;" horiz-adv-x="569" 
d="M53 847h143l109 562h296l-110 -562h155l-43 -221h-155l-122 -626h-295l122 626h-143z" />
    <glyph glyph-name="uni0198" unicode="&#x198;" horiz-adv-x="1479" 
d="M995 0l-355 640l-211 -123l-101 -517h-292l220 1127q28 150 122.5 226.5t262.5 76.5q86 0 160 -17l-40 -204q-55 12 -85 12q-52 0 -85.5 -30t-50.5 -111l-66 -310l760 639h369l-747 -616l465 -793h-326z" />
    <glyph glyph-name="uni0199" unicode="&#x199;" horiz-adv-x="1139" 
d="M728 0l-188 497l-140 -75l-85 -422h-280l229 1181q29 154 119.5 228.5t254.5 74.5q86 0 160 -17l-40 -204q-55 12 -85 12q-52 0 -87 -30t-52 -111l-97 -500l465 448h322l-473 -422l275 -660h-298z" />
    <glyph glyph-name="uni019A" unicode="&#x19a;" horiz-adv-x="569" 
d="M35 0l121 623h-153l41 204h151l128 657h281l-128 -657h171l-41 -204h-170l-121 -623h-280z" />
    <glyph glyph-name="uni019B" unicode="&#x19b;" horiz-adv-x="1139" 
d="M178 1159l307 121l-42 204h298l18 -96l196 78l41 -173l-203 -80l233 -1213h-294l-114 724l-407 -724h-296l616 1034l-9 72l-304 -120z" />
    <glyph glyph-name="uni019C" unicode="&#x19c;" horiz-adv-x="1865" 
d="M1240 1409l-181 -933q-26 -133 -26 -173q0 -53 31.5 -82.5t87.5 -29.5q98 0 177.5 93.5t110.5 249.5l170 875h295l-273 -1408h-302l20 168h-4q-60 -98 -136.5 -143.5t-189.5 -45.5q-73 0 -120.5 22t-78.5 62t-54 121h-7q-70 -84 -123.5 -123.5t-118 -60.5t-143.5 -21
q-150 0 -227 74.5t-77 221.5q0 57 12 120l197 1013h295l-181 -933q-23 -117 -23 -163q0 -63 29 -92.5t89 -29.5q104 0 178 82t100 217l178 919h295z" />
    <glyph glyph-name="uni019D" unicode="&#x19d;" horiz-adv-x="1479" 
d="M310 1409h350l377 -1141q17 135 41 256l174 885h262l-274 -1409h-356l-374 1131q-23 -162 -38 -239l-190 -969q-39 -197 -124 -272.5t-254 -75.5q-74 0 -160 20l45 230q62 -13 91 -13q64 0 99 38.5t50 117.5z" />
    <glyph glyph-name="uni019E" unicode="&#x19e;" 
d="M653 -425l203 1020q26 124 26 165q0 129 -152 129q-101 0 -186.5 -81t-108.5 -202l-118 -606h-282l166 851q16 79 38 231h268q0 -9 -9.5 -84t-14.5 -101h3q76 107 166.5 155.5t206.5 48.5q152 0 229 -73t77 -211q0 -20 -4 -53.5t-8.5 -62t-220.5 -1126.5h-279z" />
    <glyph glyph-name="uni019F" unicode="&#x19f;" horiz-adv-x="1593" 
d="M928 1430q293 0 462 -155.5t169 -423.5q0 -246 -105 -449t-294.5 -312.5t-432.5 -109.5q-193 0 -335.5 72t-217 206.5t-74.5 314.5q0 235 105.5 438.5t292.5 311t430 107.5zM741 212q372 0 483 390h-824v-21q0 -185 90 -277t251 -92zM914 1197q-360 0 -474 -362h815
q-2 173 -90.5 267.5t-250.5 94.5z" />
    <glyph glyph-name="Ohorn" unicode="&#x1a0;" horiz-adv-x="1715" 
d="M727 -20q-193 0 -335.5 72t-217 206.5t-74.5 314.5q0 235 105.5 438.5t292.5 311t430 107.5q255 0 419.5 -120.5t201.5 -340.5q82 28 119 73t50 107h-127l51 260h287l-42 -212q-28 -142 -106 -232t-222 -133q-5 -245 -111.5 -442.5t-293.5 -303.5t-427 -106zM914 1197
q-162 0 -276 -75t-176 -226t-62 -315q0 -185 90 -277t251 -92t275 75t176.5 223t62.5 317q0 176 -87.5 273t-253.5 97z" />
    <glyph glyph-name="ohorn" unicode="&#x1a1;" horiz-adv-x="1375" 
d="M1185 683l-1 -43q71 18 108 60.5t51 121.5h-107l51 260h267l-42 -212q-32 -161 -116.5 -253.5t-229.5 -119.5q-48 -236 -218 -376.5t-413 -140.5q-218 0 -345 117t-127 322q0 201 79.5 356t227 240.5t334.5 85.5q233 0 357 -109.5t124 -308.5zM891 662q0 247 -208 247
q-116 0 -184 -62.5t-104.5 -183t-36.5 -232.5q0 -259 208 -259q112 0 177.5 56.5t103 171.5t44.5 262z" />
    <glyph glyph-name="uni01A2" unicode="&#x1a2;" horiz-adv-x="1851" 
d="M1266 -425l312 1606h-255l-216 -1119q-71 -35 -191.5 -58.5t-229.5 -23.5q-278 0 -430.5 152t-152.5 426q0 260 101 458.5t289.5 306t443.5 107.5q101 0 203.5 -23t170.5 -60l524 78h73l-360 -1850h-282zM737 207q62 0 118 14l188 967q-58 15 -119 15q-155 0 -274 -82.5
t-182.5 -230t-63.5 -328.5q0 -355 333 -355z" />
    <glyph glyph-name="uni01A3" unicode="&#x1a3;" horiz-adv-x="1502" 
d="M515 -20q-206 0 -322 118.5t-116 321.5q0 198 77.5 354.5t219.5 242t332 85.5q104 0 198.5 -25.5t145.5 -62.5l400 88h77l-297 -1527h-253l253 1302h-194l-153 -826q-161 -71 -368 -71zM552 172q57 0 95 7l139 720q-27 10 -95 10q-94 0 -168 -64.5t-115.5 -179.5
t-41.5 -253q0 -240 186 -240z" />
    <glyph glyph-name="uni01A4" unicode="&#x1a4;" horiz-adv-x="1516" 
d="M1023 1409q246 0 382.5 -112t136.5 -310q0 -225 -153.5 -358t-410.5 -133h-338l-98 -496h-294l231 1195h-24q-72 0 -110 -38t-38 -109q0 -37 12 -97l-225 -17q-5 38 -5 87q0 199 94.5 293.5t292.5 94.5h547zM683 723h250q154 0 232 58t78 190q0 102 -64 155.5t-184 53.5
h-223z" />
    <glyph glyph-name="uni01A5" unicode="&#x1a5;" 
d="M493 913q73 103 157 146t198 43q159 0 248 -94.5t89 -259.5q0 -202 -62 -393.5t-174.5 -283t-286.5 -91.5q-125 0 -203 52t-110 146h-2q-3 -29 -8.5 -61.5t-103.5 -541.5h-280l307 1606q29 155 120.5 229t257.5 74q79 0 179 -20l-40 -204q-69 15 -101 15
q-118 0 -146 -141l-43 -221h4zM728 907q-81 0 -139.5 -35t-99.5 -106.5t-65 -178.5t-24 -186q0 -107 53 -167.5t148 -60.5q103 0 162 65t92.5 206t33.5 250q0 106 -38.5 159.5t-122.5 53.5z" />
    <glyph glyph-name="uni01A6" unicode="&#x1a6;" horiz-adv-x="1366" 
d="M965 -329l-311 688h-252l-71 -359h-295l271 1410h285l-33 -176h279q159 0 272.5 -49t172.5 -140t59 -214q0 -165 -108.5 -280t-294.5 -143l352 -737h-326zM749 589q145 0 219.5 58.5t74.5 166.5q0 92 -63.5 141.5t-178.5 49.5h-273l-81 -416h302z" />
    <glyph glyph-name="uni01A7" unicode="&#x1a7;" horiz-adv-x="1366" 
d="M58 345q0 188 109.5 299t369.5 166l149 32q191 40 254.5 67.5t96.5 67t33 100.5q0 144 -238 144q-126 0 -202.5 -46t-116.5 -137l-278 39q79 194 224 273.5t402 79.5q228 0 363 -91t135 -250q0 -88 -23 -152t-63 -111t-97 -80.5t-132.5 -59t-236.5 -61.5
q-89 -21 -171 -40.5t-145 -46.5t-101 -67t-38 -101q0 -92 69 -130.5t203 -38.5q149 0 242.5 50t144.5 163l289 -50q-161 -384 -709 -384q-254 0 -393.5 97t-139.5 268z" />
    <glyph glyph-name="uni01A8" unicode="&#x1a8;" horiz-adv-x="1139" 
d="M35 270q0 110 46 182.5t134.5 119t294.5 87.5l125 24q97 19 141.5 47.5t44.5 77.5q0 62 -45.5 85t-135.5 23q-101 0 -154.5 -32t-78.5 -99l-244 26q53 146 177.5 219t329.5 73q196 0 302 -73.5t106 -220.5q0 -99 -49.5 -167.5t-143.5 -113.5t-363 -103
q-117 -25 -171 -59.5t-54 -86.5q0 -113 200 -113q108 0 173 32t106 109l240 -37q-63 -157 -186.5 -223.5t-349.5 -66.5q-209 0 -327 77.5t-118 212.5z" />
    <glyph glyph-name="uni01A9" unicode="&#x1a9;" horiz-adv-x="1209" 
d="M-47 0l50 251l545 507l-346 435l41 216h999l-44 -228h-697l299 -373l-27 -134l-480 -446h781l-45 -228h-1076z" />
    <glyph glyph-name="uni01AA" unicode="&#x1aa;" horiz-adv-x="737" 
d="M152 1259q0 111 72 168t204 57q139 0 212.5 -71t73.5 -196q0 -62 -13 -127l-227 -1158q-5 -23 -5 -50q0 -91 96 -91q18 0 58.5 4t58.5 8l-41 -211q-71 -17 -186 -17q-276 0 -276 230q0 40 11 99l232 1188q-39 -11 -93 -11q-76 0 -126.5 48.5t-50.5 129.5zM284 1277
q0 -42 25 -67t67 -25t67 25t25 67t-25 67t-67 25t-67 -25t-25 -67z" />
    <glyph glyph-name="uni01AB" unicode="&#x1ab;" horiz-adv-x="682" 
d="M43 -206q69 -15 107 -15q52 0 90.5 30t54.5 111l13 69q-90 14 -141 68.5t-51 151.5q0 71 16 157l102 526h-148l37 190h162l137 254h176l-48 -254h202l-35 -190h-205l-104 -535q-11 -56 -11 -89q0 -46 23.5 -68.5t63.5 -22.5q32 0 108 13l-58 -314q-28 -143 -119.5 -223
t-247.5 -80q-79 0 -163 20z" />
    <glyph glyph-name="uni01AC" unicode="&#x1ac;" 
d="M1351 1181h-438l-230 -1181h-295l230 1181h-183q-148 0 -148 -133q0 -50 12 -110l-225 -17q-5 35 -5 100q0 199 94.5 293.5t292.5 94.5h939z" />
    <glyph glyph-name="uni01AD" unicode="&#x1ad;" horiz-adv-x="682" 
d="M376 -16q-124 0 -192 58.5t-68 166.5q0 71 16 157l102 526h-148l37 190h148l19 99q29 155 120.5 229t257.5 74q79 0 179 -20l-40 -194q-69 15 -101 15q-118 0 -146 -141l-10 -62h202l-35 -190h-205l-104 -535q-11 -56 -11 -89q0 -46 23.5 -68.5t63.5 -22.5q32 0 108 13
l-32 -182q-81 -24 -184 -24z" />
    <glyph glyph-name="uni01AE" unicode="&#x1ae;" 
d="M895 1181l-239 -1223q-7 -35 -7 -63q0 -48 22.5 -70.5t72.5 -22.5q28 0 98 13l-43 -220q-95 -20 -169 -20q-142 0 -212 62.5t-70 195.5q0 68 14 131l238 1217h-455l44 228h1206l-44 -228h-456z" />
    <glyph glyph-name="Uhorn" unicode="&#x1af;" horiz-adv-x="1656" 
d="M688 211q165 0 250.5 76t119.5 254l168 868h295l-92 -472q124 16 194.5 70t84.5 142h-127l51 260h287l-42 -212q-35 -176 -151 -277.5t-324 -122.5l-52 -267q-55 -281 -220 -415.5t-458 -134.5q-264 0 -408.5 117.5t-144.5 333.5q0 89 23 204l148 774h295l-153 -810
q-18 -87 -18 -172q0 -103 73 -159.5t201 -56.5z" />
    <glyph glyph-name="uhorn" unicode="&#x1b0;" horiz-adv-x="1462" 
d="M512 1082l-118 -595q-26 -123 -26 -165q0 -129 152 -129q101 0 187 82t108 201l118 606h282l-90 -459q135 10 204 59.5t84 139.5h-127l51 260h267l-42 -212q-26 -130 -85.5 -212t-147.5 -124.5t-231 -50.5q-34 -174 -53 -272t-34 -211h-268q0 9 9.5 84t14.5 101h-3
q-75 -104 -165.5 -154t-207.5 -50q-152 0 -229 73t-77 211q0 25 7 79.5t14 84.5l127 653h279z" />
    <glyph glyph-name="uni01B1" unicode="&#x1b1;" horiz-adv-x="1599" 
d="M697 -22q-175 0 -312.5 65.5t-212 184t-74.5 267.5q0 234 131.5 403t415.5 293q-114 -11 -176 -11h-270l44 228h636l-60 -309q-201 -90 -308 -227.5t-107 -310.5q0 -171 85.5 -261t248.5 -90q140 0 249 61.5t169 171t60 245.5q0 145 -58 242.5t-187 168.5l60 309h644
l-44 -228h-268q-59 0 -184 11q153 -78 238 -214t85 -298q0 -209 -101 -368.5t-286 -246t-418 -86.5z" />
    <glyph glyph-name="uni01B2" unicode="&#x1b2;" horiz-adv-x="1479" 
d="M611 -20q-235 0 -362 103t-127 294q0 71 16 151l172 881h295l-167 -858q-13 -64 -13 -119q0 -221 212 -221q120 0 206.5 57.5t152.5 181t115.5 320t49.5 276.5q0 76 -33 115.5t-107 39.5q-45 0 -113 -13l42 220q94 20 236 20q137 0 207.5 -78t70.5 -229
q0 -145 -72.5 -397t-182 -415.5t-258.5 -246t-340 -82.5z" />
    <glyph glyph-name="uni01B3" unicode="&#x1b3;" horiz-adv-x="1466" 
d="M724 0h-294l112 578l-370 831h292l259 -605l330 435q72 96 147 143.5t165 47.5q164 0 281 -129l-145 -185q-57 62 -124 62q-38 0 -68 -20.5t-63 -63.5l-410 -516z" />
    <glyph glyph-name="uni01B4" unicode="&#x1b4;" horiz-adv-x="1139" 
d="M88 -425q-97 0 -173 18l38 196q40 -9 87 -9q53 0 95.5 20t80 61.5t108.5 162.5l-212 1058h291l71 -497q1 -11 4.5 -37t7 -59.5t7.5 -70.5t7.5 -70.5t5.5 -59.5t3 -37l17 37l120 255l357 676q54 105 103.5 157t113 80t144.5 28q69 0 138 -19.5t119 -54.5l-133 -196
q-50 36 -103 36q-44 0 -74.5 -26t-61.5 -80l-679 -1201q-107 -167 -174.5 -235t-141 -100.5t-166.5 -32.5z" />
    <glyph glyph-name="uni01B5" unicode="&#x1b5;" 
d="M1192 636h-460l-387 -405h782l-45 -231h-1130l40 209l408 427h-313l38 197h464l330 345h-663l45 231h1014l-40 -205l-355 -371h310z" />
    <glyph glyph-name="uni01B6" unicode="&#x1b6;" horiz-adv-x="1024" 
d="M-35 0l38 199l238 248h-188l38 197h339l226 235h-480l40 203h809l-39 -201l-228 -237h201l-38 -197h-353l-232 -242h567l-40 -205h-898z" />
    <glyph glyph-name="uni01B7" unicode="&#x1b7;" 
d="M437 -427q-210 0 -340 88.5t-188 266.5l261 110q40 -99 77 -144t88.5 -67t128.5 -22q99 0 181.5 57t130.5 152.5t48 194.5q0 161 -83.5 238t-266.5 77h-128l44 231l490 423h-680l45 231h1050l-40 -205l-549 -467q202 -23 308.5 -139t106.5 -312q0 -210 -87.5 -373.5
t-243 -251.5t-353.5 -88z" />
    <glyph glyph-name="uni01B8" unicode="&#x1b8;" 
d="M519 -427q-243 0 -384 139.5t-141 379.5q0 177 79.5 319t226 227.5t332.5 98.5l-378 467l40 205h1050l-45 -231h-683l327 -423l-44 -231h-128q-231 0 -357.5 -112t-126.5 -320q0 -139 67.5 -213t197.5 -74q217 0 348 244l232 -113q-108 -190 -255.5 -276.5t-357.5 -86.5z
" />
    <glyph glyph-name="uni01B9" unicode="&#x1b9;" horiz-adv-x="1078" 
d="M451 -234q110 0 177 51t88 150l270 -13q-45 -181 -188.5 -280t-359.5 -99q-146 0 -255 52.5t-167 148.5t-58 221q0 224 133 357.5t391 165.5l-291 367l38 195h902l-40 -203h-565l267 -349l-37 -189h-102q-221 0 -317 -80t-96 -246q0 -114 55.5 -181.5t154.5 -67.5z" />
    <glyph glyph-name="uni01BA" unicode="&#x1ba;" horiz-adv-x="1078" 
d="M893 -105q-138 -329 -558 -329q-196 0 -313.5 75.5t-117.5 204.5q0 62 18 109t50 83t78.5 63t105.5 47t223 59q149 35 197 54.5t74 45t26 62.5q0 36 -27 56t-84 28.5t-192 8.5h-102l28 144l356 273h-538l40 203h902l-32 -163l-403 -295q172 -4 257 -63t85 -168
q0 -71 -25 -125t-73 -95t-127 -73.5t-269 -76.5q-161 -37 -204.5 -55t-68 -42t-24.5 -58q0 -54 49 -81.5t140 -27.5q98 0 168 46t98 134z" />
    <glyph glyph-name="uni01BB" unicode="&#x1bb;" horiz-adv-x="1139" 
d="M1134 573h-385l-116 -80q-213 -146 -290 -262h654l-44 -231h-985l37 195q55 95 140 185.5t223 192.5h-280l37 191h508q102 78 149 150t47 149q0 143 -162 143q-88 0 -142 -44t-81 -140l-266 59q53 179 181 264t328 85q210 0 320.5 -88t110.5 -259q0 -173 -137 -319h186z
" />
    <glyph glyph-name="uni01BC" unicode="&#x1bc;" horiz-adv-x="1139" 
d="M211 1409h981l-44 -228h-525l-52 -238q239 0 359.5 -99t120.5 -289q0 -263 -156.5 -419t-428.5 -156q-196 0 -315 87.5t-146 248.5l279 61q9 -84 63 -129t146 -45q120 0 190.5 76t70.5 205q0 136 -73.5 188.5t-266.5 52.5h-164l97 456h-180z" />
    <glyph glyph-name="uni01BD" unicode="&#x1bd;" horiz-adv-x="1018" 
d="M164 1082h852l-40 -203h-442l-48 -184q228 0 338.5 -75.5t110.5 -238.5q0 -114 -60.5 -205.5t-173 -143.5t-271.5 -52q-186 0 -297.5 80t-129.5 225l266 47q10 -82 53.5 -121t137.5 -39q91 0 146 49t55 131q0 85 -56 121.5t-194 36.5h-207l84 369h-164z" />
    <glyph glyph-name="uni01BE" unicode="&#x1be;" horiz-adv-x="1139" 
d="M210 892h-137l37 190h151l137 254h176l-49 -254h225l-37 -190h-225q-18 -82 -18 -101q0 -31 17.5 -51t51 -34.5t165.5 -46.5q145 -34 208.5 -70.5t98.5 -93.5t35 -144q0 -165 -142.5 -268t-385.5 -103q-214 0 -327 69.5t-144 220.5l254 37q20 -77 72.5 -109t163.5 -32
q241 0 241 136q0 45 -43 74.5t-137 49.5q-198 42 -269 78t-107.5 90t-36.5 132q0 37 9 82z" />
    <glyph glyph-name="uni01BF" unicode="&#x1bf;" horiz-adv-x="1264" 
d="M267 1082h265q-4 -62 -20 -164h4q68 91 161.5 139t207.5 48q159 0 246 -89t87 -257q0 -325 -225.5 -562.5t-695.5 -400.5l-42 -221h-280zM926 732q0 178 -176 178q-111 0 -190 -87t-107 -228l-114 -580q291 130 439 311.5t148 405.5z" />
    <glyph glyph-name="uni01C0" unicode="&#x1c0;" horiz-adv-x="573" 
d="M164 0v1484h245v-1484h-245z" />
    <glyph glyph-name="uni01C1" unicode="&#x1c1;" horiz-adv-x="1019" 
d="M174 0v1484h240v-1484h-240zM605 0v1484h240v-1484h-240z" />
    <glyph glyph-name="uni01C1" unicode="&#x2016;" horiz-adv-x="1019" 
d="M174 0v1484h240v-1484h-240zM605 0v1484h240v-1484h-240z" />
    <glyph glyph-name="uni01C2" unicode="&#x1c2;" horiz-adv-x="1197" 
d="M82 1083h394v401h245v-401h394v-209h-394v-266h394v-209h-394v-399h-245v399h-394v209h394v266h-394v209z" />
    <glyph glyph-name="uni01C3" unicode="&#x1c3;" horiz-adv-x="682" 
d="M423 426h-230l160 983h294zM79 0l52 270h288l-52 -270h-288z" />
    <glyph glyph-name="uni01C4" unicode="&#x1c4;" horiz-adv-x="2730" 
d="M734 1409q333 0 510 -155t177 -447q0 -236 -99 -417t-287 -285.5t-421 -104.5h-578l274 1409h424zM375 228h230q160 0 283.5 68.5t190 197.5t66.5 300q0 189 -105.5 288t-303.5 99h-176zM2547 0h-1130l40 209l927 969h-663l45 231h1014l-40 -205l-930 -973h782z
M2415 1530h-229l-204 276l5 29h150l182 -152h4l232 152h169l-6 -29z" />
    <glyph glyph-name="uni01C5" unicode="&#x1c5;" horiz-adv-x="2503" 
d="M734 1409q333 0 510 -155t177 -447q0 -236 -99 -417t-287 -285.5t-421 -104.5h-578l274 1409h424zM375 228h230q160 0 283.5 68.5t190 197.5t66.5 300q0 189 -105.5 288t-303.5 99h-176zM1452 0l38 199l613 680h-440l40 203h769l-39 -201l-610 -676h527l-40 -205h-858z
M2220 1183h-229l-197 317l6 29h150l174 -193h4l240 193h169l-6 -29z" />
    <glyph glyph-name="uni01C6" unicode="&#x1c6;" horiz-adv-x="2275" 
d="M749 160q-71 -93 -153.5 -137t-203.5 -44q-154 0 -244 102t-90 273q0 191 64 374t179.5 278.5t278.5 95.5q256 0 314 -198h5q2 20 8 60t18 102l84 418h277l-238 -1253q-20 -112 -29 -231h-281q0 63 15 160h-4zM515 172q81 0 139 34.5t99 106t65 179.5t24 189
q0 120 -47 174.5t-141 54.5q-102 0 -166.5 -69t-98.5 -202t-34 -246q0 -221 160 -221zM1241 0l38 199l613 680h-440l40 203h769l-39 -201l-610 -676h527l-40 -205h-858zM2004 1183h-229l-197 317l6 29h150l174 -193h4l240 193h169l-6 -29z" />
    <glyph glyph-name="uni01C7" unicode="&#x1c7;" horiz-adv-x="2390" 
d="M36 0l273 1409h295l-229 -1181h756l-45 -228h-1050zM1714 -20q-190 0 -303.5 96t-151.5 303l267 58q46 -226 207 -226q54 0 91 24t61 68t42 137l143 738h-281l44 231h575l-193 -986q-45 -231 -165 -337t-336 -106z" />
    <glyph glyph-name="uni01C8" unicode="&#x1c8;" horiz-adv-x="1820" 
d="M36 0l273 1409h295l-229 -1181h756l-45 -228h-1050zM1534 1277l40 207h281l-40 -207h-281zM1197 -425q-95 0 -166 19l36 188l58 -4q67 0 98.5 34.5t49.5 127.5l223 1142h281l-236 -1210q-29 -144 -116.5 -220.5t-227.5 -76.5z" />
    <glyph glyph-name="uni01C9" unicode="&#x1c9;" horiz-adv-x="1138" 
d="M35 0l288 1484h281l-289 -1484h-280zM852 1277l40 207h281l-40 -207h-281zM515 -425q-95 0 -166 19l36 188l58 -4q67 0 98.5 34.5t49.5 127.5l223 1142h281l-236 -1210q-29 -144 -116.5 -220.5t-227.5 -76.5z" />
    <glyph glyph-name="uni01CA" unicode="&#x1ca;" horiz-adv-x="2618" 
d="M884 0l-374 1131q-23 -162 -38 -239l-174 -892h-262l274 1409h350l377 -1141l12 82q11 83 29 174l174 885h262l-274 -1409h-356zM1955 -20q-190 0 -303.5 96t-151.5 303l267 58q46 -226 207 -226q54 0 91 24t61 68t42 137l143 738h-281l44 231h575l-193 -986
q-45 -231 -165 -337t-336 -106z" />
    <glyph glyph-name="uni01CB" unicode="&#x1cb;" horiz-adv-x="2048" 
d="M884 0l-374 1131q-23 -162 -38 -239l-174 -892h-262l274 1409h350l377 -1141l12 82q11 83 29 174l174 885h262l-274 -1409h-356zM1762 1277l40 207h281l-40 -207h-281zM1425 -425q-95 0 -166 19l36 188l58 -4q67 0 98.5 34.5t49.5 127.5l223 1142h281l-236 -1210
q-29 -144 -116.5 -220.5t-227.5 -76.5z" />
    <glyph glyph-name="uni01CC" unicode="&#x1cc;" horiz-adv-x="1820" 
d="M738 0l118 595q26 124 26 165q0 129 -152 129q-101 0 -187 -82t-108 -201l-118 -606h-282l166 851q16 79 38 231h268q0 -9 -9.5 -84t-14.5 -101h3q75 104 165.5 154t207.5 50q152 0 229 -73t77 -211q0 -25 -7 -79.5t-14 -84.5l-127 -653h-279zM1534 1277l40 207h281
l-40 -207h-281zM1197 -425q-95 0 -166 19l36 188l58 -4q67 0 98.5 34.5t49.5 127.5l223 1142h281l-236 -1210q-29 -144 -116.5 -220.5t-227.5 -76.5z" />
    <glyph glyph-name="uni01CD" unicode="&#x1cd;" horiz-adv-x="1479" 
d="M1039 0l-55 360h-537l-195 -360h-294l787 1409h348l238 -1409h-292zM876 1192q-21 -64 -98 -212l-212 -398h395l-67 452q-18 135 -18 158zM1040 1530h-229l-204 276l5 29h150l182 -152h4l232 152h169l-6 -29z" />
    <glyph glyph-name="uni01CE" unicode="&#x1ce;" horiz-adv-x="1139" 
d="M892 -10q-100 0 -154 42t-54 111q0 37 5 64h-6q-84 -130 -166 -178.5t-200 -48.5q-140 0 -223.5 83.5t-83.5 214.5q0 185 127.5 279.5t413.5 99.5l191 3q21 95 21 131q0 128 -127 128q-94 0 -140 -36.5t-63 -105.5l-263 31q34 144 153.5 219t317.5 75q207 0 303.5 -73
t96.5 -222q0 -37 -24 -157l-71 -353q-8 -45 -8 -72q0 -24 10 -37t23 -19t26 -7.5t20 -1.5q30 0 62 7l-14 -155q-42 -16 -85 -19t-88 -3zM711 503h-162q-117 -2 -184.5 -48t-67.5 -130q0 -70 39.5 -109.5t106.5 -39.5q83 0 151 64.5t95 170.5zM783 1183h-229l-197 317l6 29
h150l174 -193h4l240 193h169l-6 -29z" />
    <glyph glyph-name="uni01CF" unicode="&#x1cf;" horiz-adv-x="569" 
d="M36 0l273 1409h295l-274 -1409h-294zM584 1530h-229l-204 276l5 29h150l182 -152h4l232 152h169l-6 -29z" />
    <glyph glyph-name="uni01D0" unicode="&#x1d0;" horiz-adv-x="569" 
d="M35 0l210 1082h281l-211 -1082h-280zM514 1183h-229l-197 317l6 29h150l174 -193h4l240 193h169l-6 -29z" />
    <glyph glyph-name="uni01D1" unicode="&#x1d1;" horiz-adv-x="1593" 
d="M928 1430q293 0 462 -155.5t169 -423.5q0 -247 -105.5 -450.5t-294.5 -312t-432 -108.5q-193 0 -335.5 72t-217 206.5t-74.5 314.5q0 235 105.5 438.5t292.5 311t430 107.5zM914 1197q-162 0 -276 -75t-176 -226t-62 -315q0 -184 90 -276.5t251 -92.5t275 75t176.5 223
t62.5 317q0 176 -87.5 273t-253.5 97zM1083 1530h-229l-204 276l5 29h150l182 -152h4l232 152h169l-6 -29z" />
    <glyph glyph-name="uni01D2" unicode="&#x1d2;" 
d="M1185 683q0 -207 -81.5 -368t-231 -248t-337.5 -87q-218 0 -345 117.5t-127 321.5q0 201 79.5 356t226.5 240.5t335 85.5q235 0 358 -109.5t123 -308.5zM891 662q0 247 -208 247q-114 0 -181.5 -60t-105.5 -182.5t-38 -235.5q0 -259 208 -259q112 0 177.5 56.5t103 171.5
t44.5 262zM841 1183h-229l-197 317l6 29h150l174 -193h4l240 193h169l-6 -29z" />
    <glyph glyph-name="uni01D3" unicode="&#x1d3;" horiz-adv-x="1479" 
d="M688 211q165 0 250.5 76t119.5 254l168 868h295l-171 -879q-55 -281 -220 -415.5t-458 -134.5q-264 0 -408.5 117.5t-144.5 333.5q0 44 7.5 105.5t15.5 98.5l148 774h295l-153 -810q-18 -87 -18 -172q0 -103 73 -159.5t201 -56.5zM1009 1530h-229l-204 276l5 29h150
l182 -152h4l232 152h169l-6 -29z" />
    <glyph glyph-name="uni01D4" unicode="&#x1d4;" 
d="M512 1082l-118 -595q-26 -123 -26 -165q0 -129 152 -129q101 0 186.5 81t108.5 202l118 606h282l-166 -851q-16 -79 -38 -231h-268q0 9 9.5 84t14.5 101h-3q-76 -107 -166.5 -155.5t-206.5 -48.5q-152 0 -229 73t-77 211q0 25 7 80.5t14 83.5l127 653h279zM832 1183h-229
l-197 317l6 29h150l174 -193h4l240 193h169l-6 -29z" />
    <glyph glyph-name="uni01D5" unicode="&#x1d5;" horiz-adv-x="1479" 
d="M688 211q165 0 250.5 76t119.5 254l168 868h295l-171 -879q-55 -281 -220 -415.5t-458 -134.5q-264 0 -408.5 117.5t-144.5 333.5q0 44 7.5 105.5t15.5 98.5l148 774h295l-153 -810q-18 -87 -18 -172q0 -103 73 -159.5t201 -56.5zM1159 1466h-160l29 152h160zM794 1466
h-160l29 152h160zM662 1835h611l-26 -138h-611z" />
    <glyph glyph-name="uni01D6" unicode="&#x1d6;" 
d="M512 1082l-118 -595q-26 -123 -26 -165q0 -129 152 -129q101 0 186.5 81t108.5 202l118 606h282l-166 -851q-16 -79 -38 -231h-268q0 9 9.5 84t14.5 101h-3q-76 -107 -166.5 -155.5t-206.5 -48.5q-152 0 -229 73t-77 211q0 25 7 80.5t14 83.5l127 653h279zM853 1199
l43 219h217l-43 -219h-217zM420 1199l42 219h214l-43 -219h-213zM1069 1503h-586l33 168h590z" />
    <glyph glyph-name="uni01D7" unicode="&#x1d7;" horiz-adv-x="1479" 
d="M688 211q165 0 250.5 76t119.5 254l168 868h295l-171 -879q-55 -281 -220 -415.5t-458 -134.5q-264 0 -408.5 117.5t-144.5 333.5q0 44 7.5 105.5t15.5 98.5l148 774h295l-153 -810q-18 -87 -18 -172q0 -103 73 -159.5t201 -56.5zM1250 1835l-3 -16l-260 -153h-149l2 14
l164 155h246zM1169 1466h-160l29 152h160zM804 1466h-160l29 152h160z" />
    <glyph glyph-name="uni01D8" unicode="&#x1d8;" 
d="M512 1082l-118 -595q-26 -123 -26 -165q0 -129 152 -129q101 0 186.5 81t108.5 202l118 606h282l-166 -851q-16 -79 -38 -231h-268q0 9 9.5 84t14.5 101h-3q-76 -107 -166.5 -155.5t-206.5 -48.5q-152 0 -229 73t-77 211q0 25 7 80.5t14 83.5l127 653h279zM853 1199
l43 219h217l-43 -219h-217zM420 1199l42 219h214l-43 -219h-213zM657 1501l7 31l270 247h267l-9 -43l-386 -235h-149z" />
    <glyph glyph-name="uni01D9" unicode="&#x1d9;" horiz-adv-x="1479" 
d="M688 211q165 0 250.5 76t119.5 254l168 868h295l-171 -879q-55 -281 -220 -415.5t-458 -134.5q-264 0 -408.5 117.5t-144.5 333.5q0 44 7.5 105.5t15.5 98.5l148 774h295l-153 -810q-18 -87 -18 -172q0 -103 73 -159.5t201 -56.5zM1166 1466h-160l29 152h160zM801 1466
h-160l29 152h160zM1125 1835h155l-2 -10l-235 -143h-194l-182 141l2 12h155l137 -67z" />
    <glyph glyph-name="uni01DA" unicode="&#x1da;" 
d="M512 1082l-118 -595q-26 -123 -26 -165q0 -129 152 -129q101 0 186.5 81t108.5 202l118 606h282l-166 -851q-16 -79 -38 -231h-268q0 9 9.5 84t14.5 101h-3q-76 -107 -166.5 -155.5t-206.5 -48.5q-152 0 -229 73t-77 211q0 25 7 80.5t14 83.5l127 653h279zM853 1199
l43 219h217l-43 -219h-217zM420 1199l42 219h214l-43 -219h-213zM899 1501h-229l-204 276l5 29h150l182 -152h4l232 152h169l-6 -29z" />
    <glyph glyph-name="uni01DB" unicode="&#x1db;" horiz-adv-x="1479" 
d="M688 211q165 0 250.5 76t119.5 254l168 868h295l-171 -879q-55 -281 -220 -415.5t-458 -134.5q-264 0 -408.5 117.5t-144.5 333.5q0 44 7.5 105.5t15.5 98.5l148 774h295l-153 -810q-18 -87 -18 -172q0 -103 73 -159.5t201 -56.5zM947 1835l105 -155l-2 -14h-149
l-202 153l3 16h245zM670 1618h160l-29 -152h-160zM1035 1618h160l-29 -152h-160z" />
    <glyph glyph-name="uni01DC" unicode="&#x1dc;" 
d="M512 1082l-118 -595q-26 -123 -26 -165q0 -129 152 -129q101 0 186.5 81t108.5 202l118 606h282l-166 -851q-16 -79 -38 -231h-268q0 9 9.5 84t14.5 101h-3q-76 -107 -166.5 -155.5t-206.5 -48.5q-152 0 -229 73t-77 211q0 25 7 80.5t14 83.5l127 653h279zM853 1199
l43 219h217l-43 -219h-217zM420 1199l42 219h214l-43 -219h-213zM771 1501l-304 235l9 43h238l203 -247l-7 -31h-139z" />
    <glyph glyph-name="uni01DD" unicode="&#x1dd;" horiz-adv-x="1139" 
d="M787 606q7 39 7 89q0 106 -46.5 162.5t-137.5 56.5q-147 0 -213 -169l-245 74q75 159 186 221t291 62q213 0 333 -115.5t120 -322.5t-72 -362.5t-204.5 -238.5t-306.5 -83q-209 0 -322.5 107.5t-113.5 303.5q0 99 24 215h700zM323 419l-3 -56q0 -107 49.5 -156t129.5 -49
q96 0 161.5 66.5t93.5 194.5h-431z" />
    <glyph glyph-name="uni01DE" unicode="&#x1de;" horiz-adv-x="1479" 
d="M1039 0l-55 360h-537l-195 -360h-294l787 1409h348l238 -1409h-292zM876 1192q-21 -64 -98 -212l-212 -398h395l-67 452q-18 135 -18 158zM1194 1466h-160l29 152h160zM829 1466h-160l29 152h160zM697 1835h611l-26 -138h-611z" />
    <glyph glyph-name="uni01DF" unicode="&#x1df;" horiz-adv-x="1139" 
d="M892 -10q-100 0 -154 42t-54 111q0 37 5 64h-6q-84 -130 -166 -178.5t-200 -48.5q-140 0 -223.5 83.5t-83.5 214.5q0 185 127.5 279.5t413.5 99.5l191 3q21 95 21 131q0 128 -127 128q-94 0 -140 -36.5t-63 -105.5l-263 31q34 144 153.5 219t317.5 75q207 0 303.5 -73
t96.5 -222q0 -37 -24 -157l-71 -353q-8 -45 -8 -72q0 -24 10 -37t23 -19t26 -7.5t20 -1.5q30 0 62 7l-14 -155q-42 -16 -85 -19t-88 -3zM711 503h-162q-117 -2 -184.5 -48t-67.5 -130q0 -70 39.5 -109.5t106.5 -39.5q83 0 151 64.5t95 170.5zM783 1199l43 219h217l-43 -219
h-217zM350 1199l42 219h214l-43 -219h-213zM1004 1513h-586l33 168h590z" />
    <glyph glyph-name="uni01E0" unicode="&#x1e0;" horiz-adv-x="1479" 
d="M1039 0l-55 360h-537l-195 -360h-294l787 1409h348l238 -1409h-292zM876 1192q-21 -64 -98 -212l-212 -398h395l-67 452q-18 135 -18 158zM1011 1466h-159l29 152h159zM698 1835h611l-26 -138h-611z" />
    <glyph glyph-name="uni01E1" unicode="&#x1e1;" horiz-adv-x="1139" 
d="M892 -10q-100 0 -154 42t-54 111q0 37 5 64h-6q-84 -130 -166 -178.5t-200 -48.5q-140 0 -223.5 83.5t-83.5 214.5q0 185 127.5 279.5t413.5 99.5l191 3q21 95 21 131q0 128 -127 128q-94 0 -140 -36.5t-63 -105.5l-263 31q34 144 153.5 219t317.5 75q207 0 303.5 -73
t96.5 -222q0 -37 -24 -157l-71 -353q-8 -45 -8 -72q0 -24 10 -37t23 -19t26 -7.5t20 -1.5q30 0 62 7l-14 -155q-42 -16 -85 -19t-88 -3zM711 503h-162q-117 -2 -184.5 -48t-67.5 -130q0 -70 39.5 -109.5t106.5 -39.5q83 0 151 64.5t95 170.5zM552 1238l41 207h281l-41 -207
h-281zM1030 1533h-586l33 168h590z" />
    <glyph glyph-name="uni01E2" unicode="&#x1e2;" horiz-adv-x="2048" 
d="M837 0l70 360h-450l-242 -360h-312l965 1409h1231l-45 -227h-701l-69 -355h639l-43 -221h-639l-73 -379h742l-44 -227h-1029zM1068 1192h-61l-136 -209l-269 -401h348zM1776 1539h-586l33 168h590z" />
    <glyph glyph-name="uni01E3" unicode="&#x1e3;" horiz-adv-x="1821" 
d="M1027 476q-7 -38 -7 -89q0 -106 46.5 -162.5t137.5 -56.5q147 0 213 169l245 -74q-75 -159 -186 -221t-291 -62q-297 0 -394 219q-51 -80 -113.5 -127.5t-136 -69.5t-192.5 -22q-140 0 -223.5 83.5t-83.5 214.5q0 382 541 382h191q21 95 21 131q0 128 -127 128
q-94 0 -140 -36.5t-63 -105.5l-263 31q34 144 153.5 219t317.5 75q207 0 300 -113q140 113 342 113q209 0 322.5 -107.5t113.5 -303.5q0 -99 -24 -215h-700zM743 500h-161q-113 0 -177 -46t-64 -129q0 -72 34.5 -110.5t99.5 -38.5q83 0 151 64.5t95 170.5zM1491 663l3 56
q0 107 -49.5 156t-129.5 49q-96 0 -161.5 -66.5t-93.5 -194.5h431zM1276 1203h-586l33 168h590z" />
    <glyph glyph-name="uni01E4" unicode="&#x1e4;" horiz-adv-x="1593" 
d="M846 484h337l16 86h-342l39 208h614l-54 -294h136l-29 -150h-134l-29 -159q-147 -103 -304 -148.5t-356 -45.5q-300 0 -470 158.5t-170 443.5q0 249 103.5 442t296 299t442.5 106q228 0 382 -103t206 -288l-282 -78q-29 113 -112 175t-210 62q-160 0 -280 -75.5
t-183.5 -213t-63.5 -317.5q0 -177 95 -279t270 -102q107 0 206.5 22t177.5 62l7 39h-340z" />
    <glyph glyph-name="uni01E5" unicode="&#x1e5;" 
d="M1175 -93h-201q-56 -172 -186 -252t-357 -80q-177 0 -281.5 55t-143.5 172l280 50q40 -91 178 -91q87 0 141 35.5t87 110.5h-695l19 93h707q10 31 55 279h-2q-58 -85 -106.5 -125.5t-109 -62t-138.5 -21.5q-155 0 -247.5 100t-92.5 264q0 302 135 484.5t369 182.5
q118 0 202.5 -55.5t112.5 -152.5h2q7 33 25 106.5t23 82.5h265l-7 -31l-42 -198l-167 -853h194zM846 686q0 104 -52 163.5t-146 59.5q-133 0 -202.5 -112t-69.5 -323q0 -199 173 -199q109 0 170.5 48t94 146t32.5 217z" />
    <glyph glyph-name="uni01E6" unicode="&#x1e6;" horiz-adv-x="1593" 
d="M740 -19q-300 0 -470 158.5t-170 443.5q0 250 104.5 444t296 298.5t441.5 104.5q228 0 381.5 -103t206.5 -288l-282 -78q-29 113 -112 175t-210 62q-159 0 -279 -75t-184 -213t-64 -318q0 -178 95.5 -279.5t269.5 -101.5q108 0 210 26t174 70l46 228h-342l39 208h614
l-105 -568q-156 -107 -312 -150.5t-348 -43.5zM1075 1530h-229l-204 276l5 29h150l182 -152h4l232 152h169l-6 -29z" />
    <glyph glyph-name="uni01E7" unicode="&#x1e7;" 
d="M431 -425q-199 0 -306 69t-132 214l283 30q27 -127 188 -127q110 0 171 59t95 207q20 96 31 174h-2q-63 -89 -110.5 -128t-107 -60t-136.5 -21q-155 0 -247.5 100t-92.5 264q0 201 63.5 385.5t175 272t282.5 87.5q118 0 203 -56t112 -152h2q6 29 24.5 105t23.5 84h265
l-19 -83l-30 -146l-165 -843q-47 -233 -182 -334t-389 -101zM846 686q0 104 -52 163.5t-146 59.5q-76 0 -125.5 -32t-84 -103.5t-57 -188t-22.5 -189.5q0 -199 173 -199q89 0 162 67t112.5 182.5t39.5 239.5zM833 1183h-229l-197 317l6 29h150l174 -193h4l240 193h169
l-6 -29z" />
    <glyph glyph-name="uni01E8" unicode="&#x1e8;" horiz-adv-x="1479" 
d="M995 0l-355 640l-211 -123l-101 -517h-292l273 1409h295l-130 -639l760 639h369l-747 -616l465 -793h-326zM1024 1530h-229l-204 276l5 29h150l182 -152h4l232 152h169l-6 -29z" />
    <glyph glyph-name="uni01E9" unicode="&#x1e9;" horiz-adv-x="1139" 
d="M728 0l-188 497l-140 -75l-85 -422h-280l288 1484h281l-167 -850l465 448h322l-473 -422l275 -660h-298zM934 1530h-229l-204 276l5 29h150l182 -152h4l232 152h169l-6 -29z" />
    <glyph glyph-name="uni01EA" unicode="&#x1ea;" horiz-adv-x="1593" 
d="M928 1430q293 0 462 -155.5t169 -423.5q0 -247 -105.5 -450.5t-294.5 -312t-432 -108.5q-193 0 -335.5 72t-217 206.5t-74.5 314.5q0 235 105.5 438.5t292.5 311t430 107.5zM914 1197q-162 0 -276 -75t-176 -226t-62 -315q0 -184 90 -276.5t251 -92.5t275 75t176.5 223
t62.5 317q0 176 -87.5 273t-253.5 97zM816 -425q-90 0 -145 48t-55 131q0 73 45.5 139.5t134.5 116.5h164q-61 -38 -103.5 -102t-42.5 -119q0 -38 22 -57t57 -19q49 0 102 23l-19 -127q-79 -34 -160 -34z" />
    <glyph glyph-name="uni01EB" unicode="&#x1eb;" 
d="M1185 683q0 -207 -81.5 -368t-231 -248t-337.5 -87q-218 0 -345 117.5t-127 321.5q0 201 79.5 356t226.5 240.5t335 85.5q235 0 358 -109.5t123 -308.5zM891 662q0 247 -208 247q-114 0 -181.5 -60t-105.5 -182.5t-38 -235.5q0 -259 208 -259q112 0 177.5 56.5t103 171.5
t44.5 262zM596 -425q-90 0 -145 48t-55 131q0 73 45.5 139.5t134.5 116.5h164q-61 -38 -103.5 -102t-42.5 -119q0 -38 22 -57t57 -19q49 0 102 23l-19 -127q-79 -34 -160 -34z" />
    <glyph glyph-name="uni01EC" unicode="&#x1ec;" horiz-adv-x="1593" 
d="M928 1430q293 0 462 -155.5t169 -423.5q0 -247 -105.5 -450.5t-294.5 -312t-432 -108.5q-193 0 -335.5 72t-217 206.5t-74.5 314.5q0 235 105.5 438.5t292.5 311t430 107.5zM914 1197q-162 0 -276 -75t-176 -226t-62 -315q0 -184 90 -276.5t251 -92.5t275 75t176.5 223
t62.5 317q0 176 -87.5 273t-253.5 97zM816 -425q-90 0 -145 48t-55 131q0 73 45.5 139.5t134.5 116.5h164q-61 -38 -103.5 -102t-42.5 -119q0 -38 22 -57t57 -19q49 0 102 23l-19 -127q-79 -34 -160 -34zM1233 1554h-586l33 168h590z" />
    <glyph glyph-name="uni01ED" unicode="&#x1ed;" 
d="M1185 683q0 -207 -81.5 -368t-231 -248t-337.5 -87q-218 0 -345 117.5t-127 321.5q0 201 79.5 356t226.5 240.5t335 85.5q235 0 358 -109.5t123 -308.5zM891 662q0 247 -208 247q-114 0 -181.5 -60t-105.5 -182.5t-38 -235.5q0 -259 208 -259q112 0 177.5 56.5t103 171.5
t44.5 262zM596 -425q-90 0 -145 48t-55 131q0 73 45.5 139.5t134.5 116.5h164q-61 -38 -103.5 -102t-42.5 -119q0 -38 22 -57t57 -19q49 0 102 23l-19 -127q-79 -34 -160 -34zM1016 1203h-586l33 168h590z" />
    <glyph glyph-name="uni01EE" unicode="&#x1ee;" 
d="M437 -427q-210 0 -340 88.5t-188 266.5l261 110q40 -99 77 -144t88.5 -67t128.5 -22q99 0 181.5 57t130.5 152.5t48 194.5q0 161 -83.5 238t-266.5 77h-128l44 231l490 423h-680l45 231h1050l-40 -205l-549 -467q202 -23 308.5 -139t106.5 -312q0 -210 -87.5 -373.5
t-243 -251.5t-353.5 -88zM894 1530h-229l-204 276l5 29h150l182 -152h4l232 152h169l-6 -29z" />
    <glyph glyph-name="uni01EF" unicode="&#x1ef;" horiz-adv-x="1078" 
d="M393 -232q120 0 192.5 83t72.5 224q0 98 -32.5 157t-99 85t-188.5 26h-81l37 189l407 347h-568l39 203h902l-38 -195l-434 -365q165 -26 256 -140t91 -296q0 -145 -69.5 -263t-196 -183t-287.5 -65q-433 0 -497 353l272 41q27 -201 222 -201zM748 1183h-229l-197 317
l6 29h150l174 -193h4l240 193h169l-6 -29z" />
    <glyph glyph-name="uni01F0" unicode="&#x1f0;" horiz-adv-x="569" 
d="M-54 -425q-95 0 -166 19l36 188l58 -4q67 0 98.5 34.5t49.5 127.5l223 1142h281l-236 -1210q-29 -144 -116.5 -220.5t-227.5 -76.5zM514 1183h-229l-197 317l6 29h150l174 -193h4l240 193h169l-6 -29z" />
    <glyph glyph-name="uni01F1" unicode="&#x1f1;" horiz-adv-x="2730" 
d="M734 1409q333 0 510 -155t177 -447q0 -236 -99 -417t-287 -285.5t-421 -104.5h-578l274 1409h424zM375 228h230q160 0 283.5 68.5t190 197.5t66.5 300q0 189 -105.5 288t-303.5 99h-176zM2547 0h-1130l40 209l927 969h-663l45 231h1014l-40 -205l-930 -973h782z" />
    <glyph glyph-name="uni01F2" unicode="&#x1f2;" horiz-adv-x="2503" 
d="M734 1409q333 0 510 -155t177 -447q0 -236 -99 -417t-287 -285.5t-421 -104.5h-578l274 1409h424zM375 228h230q160 0 283.5 68.5t190 197.5t66.5 300q0 189 -105.5 288t-303.5 99h-176zM1469 0l38 199l613 680h-440l40 203h769l-39 -201l-610 -676h527l-40 -205h-858z
" />
    <glyph glyph-name="uni01F3" unicode="&#x1f3;" horiz-adv-x="2275" 
d="M749 160q-71 -93 -153.5 -137t-203.5 -44q-154 0 -244 102t-90 273q0 191 64 374t179.5 278.5t278.5 95.5q256 0 314 -198h5q2 20 8 60t18 102l84 418h277l-238 -1253q-20 -112 -29 -231h-281q0 63 15 160h-4zM515 172q81 0 139 34.5t99 106t65 179.5t24 189
q0 120 -47 174.5t-141 54.5q-102 0 -166.5 -69t-98.5 -202t-34 -246q0 -221 160 -221zM1241 0l38 199l613 680h-440l40 203h769l-39 -201l-610 -676h527l-40 -205h-858z" />
    <glyph glyph-name="uni01F4" unicode="&#x1f4;" horiz-adv-x="1593" 
d="M740 -19q-300 0 -470 158.5t-170 443.5q0 250 104.5 444t296 298.5t441.5 104.5q228 0 381.5 -103t206.5 -288l-282 -78q-29 113 -112 175t-210 62q-159 0 -279 -75t-184 -213t-64 -318q0 -178 95.5 -279.5t269.5 -101.5q108 0 210 26t174 70l46 228h-342l39 208h614
l-105 -568q-156 -107 -312 -150.5t-348 -43.5zM777 1530l7 31l270 247h267l-9 -43l-386 -235h-149z" />
    <glyph glyph-name="uni01F5" unicode="&#x1f5;" 
d="M431 -425q-199 0 -306 69t-132 214l283 30q27 -127 188 -127q110 0 171 59t95 207q20 96 31 174h-2q-63 -89 -110.5 -128t-107 -60t-136.5 -21q-155 0 -247.5 100t-92.5 264q0 201 63.5 385.5t175 272t282.5 87.5q118 0 203 -56t112 -152h2q6 29 24.5 105t23.5 84h265
l-19 -83l-30 -146l-165 -843q-47 -233 -182 -334t-389 -101zM846 686q0 104 -52 163.5t-146 59.5q-76 0 -125.5 -32t-84 -103.5t-57 -188t-22.5 -189.5q0 -199 173 -199q89 0 162 67t112.5 182.5t39.5 239.5zM515 1183l6 31l247 288h277l-8 -43l-376 -276h-146z" />
    <glyph glyph-name="uni01F6" unicode="&#x1f6;" horiz-adv-x="2120" 
d="M1318 349q0 -158 158 -158q99 0 153.5 59.5t80.5 197.5l123 634h280l-122 -626q-49 -249 -172.5 -362.5t-347.5 -113.5q-218 0 -330.5 86t-112.5 256q0 28 5.5 69.5t40.5 212.5h-626l-118 -604h-294l273 1409h295l-109 -561h626l109 561h284l-185 -961q-11 -59 -11 -99z
" />
    <glyph glyph-name="uni01F7" unicode="&#x1f7;" horiz-adv-x="1410" 
d="M-43 -424l356 1833h272l-33 -166q95 102 191 144.5t222 42.5q171 0 273 -115t102 -306q0 -243 -121 -468t-369 -422.5t-558 -311.5l-45 -231h-290zM1041 981q0 99 -48.5 158t-149.5 59q-129 0 -221 -80.5t-115 -205.5l-169 -851q207 84 372.5 233.5t248 325.5t82.5 361z
" />
    <glyph glyph-name="uni01F8" unicode="&#x1f8;" horiz-adv-x="1479" 
d="M884 0l-374 1131q-23 -162 -38 -239l-174 -892h-262l274 1409h350l377 -1141l12 82q11 83 29 174l174 885h262l-274 -1409h-356zM941 1530l-304 235l9 43h238l203 -247l-7 -31h-139z" />
    <glyph glyph-name="uni01F9" unicode="&#x1f9;" 
d="M738 0l118 595q26 124 26 165q0 129 -152 129q-101 0 -187 -82t-108 -201l-118 -606h-282l166 851q16 79 38 231h268q0 -9 -9.5 -84t-14.5 -101h3q75 104 165.5 154t207.5 50q152 0 229 -73t77 -211q0 -25 -7 -79.5t-14 -84.5l-127 -653h-279zM796 1183l-307 276l8 43
h258l195 -288l-6 -31h-148z" />
    <glyph glyph-name="Aringacute" unicode="&#x1fa;" horiz-adv-x="1479" 
d="M1039 0l-55 360h-537l-195 -360h-294l787 1409h348l238 -1409h-292zM876 1192q-21 -64 -98 -212l-212 -398h395l-67 452q-18 135 -18 158zM1181 1537q0 -105 -73.5 -179.5t-180.5 -74.5t-180.5 74.5t-73.5 179.5t74.5 179.5t179.5 74.5t179.5 -74.5t74.5 -179.5z
M1054 1537q0 51 -36.5 88t-90.5 37q-51 0 -88 -36t-37 -89q0 -56 37 -92t88 -36q53 0 90 37t37 91zM856 1831l7 31l270 247h267l-9 -43l-386 -235h-149z" />
    <glyph glyph-name="aringacute" unicode="&#x1fb;" horiz-adv-x="1139" 
d="M892 -10q-100 0 -154 42t-54 111q0 37 5 64h-6q-84 -130 -166 -178.5t-200 -48.5q-140 0 -223.5 83.5t-83.5 214.5q0 185 127.5 279.5t413.5 99.5l191 3q21 95 21 131q0 128 -127 128q-94 0 -140 -36.5t-63 -105.5l-263 31q34 144 153.5 219t317.5 75q207 0 303.5 -73
t96.5 -222q0 -37 -24 -157l-71 -353q-8 -45 -8 -72q0 -24 10 -37t23 -19t26 -7.5t20 -1.5q30 0 62 7l-14 -155q-42 -16 -85 -19t-88 -3zM711 503h-162q-117 -2 -184.5 -48t-67.5 -130q0 -70 39.5 -109.5t106.5 -39.5q83 0 151 64.5t95 170.5zM957 1390q0 -105 -73.5 -179.5
t-180.5 -74.5t-180.5 74.5t-73.5 179.5t74.5 179.5t179.5 74.5t179.5 -74.5t74.5 -179.5zM830 1390q0 51 -36.5 88t-90.5 37q-51 0 -88 -36t-37 -89q0 -56 37 -92t88 -36q53 0 90 37t37 91zM655 1692l7 31l270 247h267l-9 -43l-386 -235h-149z" />
    <glyph glyph-name="AEacute" unicode="&#x1fc;" horiz-adv-x="2048" 
d="M837 0l70 360h-450l-242 -360h-312l965 1409h1231l-45 -227h-701l-69 -355h639l-43 -221h-639l-73 -379h742l-44 -227h-1029zM1068 1192h-61l-136 -209l-269 -401h348zM1273 1530l7 31l270 247h267l-9 -43l-386 -235h-149z" />
    <glyph glyph-name="aeacute" unicode="&#x1fd;" horiz-adv-x="1821" 
d="M1027 476q-7 -38 -7 -89q0 -106 46.5 -162.5t137.5 -56.5q147 0 213 169l245 -74q-75 -159 -186 -221t-291 -62q-297 0 -394 219q-51 -80 -113.5 -127.5t-136 -69.5t-192.5 -22q-140 0 -223.5 83.5t-83.5 214.5q0 382 541 382h191q21 95 21 131q0 128 -127 128
q-94 0 -140 -36.5t-63 -105.5l-263 31q34 144 153.5 219t317.5 75q207 0 300 -113q140 113 342 113q209 0 322.5 -107.5t113.5 -303.5q0 -99 -24 -215h-700zM743 500h-161q-113 0 -177 -46t-64 -129q0 -72 34.5 -110.5t99.5 -38.5q83 0 151 64.5t95 170.5zM1491 663l3 56
q0 107 -49.5 156t-129.5 49q-96 0 -161.5 -66.5t-93.5 -194.5h431zM898 1183l6 31l247 288h277l-8 -43l-376 -276h-146z" />
    <glyph glyph-name="Oslashacute" unicode="&#x1fe;" horiz-adv-x="1593" 
d="M928 1430q237 0 396 -104l131 140h203l-223 -239q124 -148 124 -376q0 -247 -105.5 -450.5t-294.5 -312t-432 -108.5q-222 0 -370 91l-115 -124h-207l205 220q-140 158 -140 406q0 235 105.5 438.5t292.5 311t430 107.5zM914 1197q-162 0 -276 -75t-176 -226t-62 -315
q0 -121 39 -202l699 748q-87 70 -224 70zM1255 827q0 100 -29 175l-688 -738q79 -52 203 -52q161 0 275 75t176.5 223t62.5 317zM815 1530l7 31l270 247h267l-9 -43l-386 -235h-149z" />
    <glyph glyph-name="oslashacute" unicode="&#x1ff;" 
d="M42 -38l131 152q-110 114 -110 305q0 201 79.5 356t226.5 240.5t335 85.5q159 0 273 -54l60 69h189l-134 -156q93 -105 93 -277q0 -207 -81.5 -368t-231 -248t-337.5 -87q-138 0 -244 49l-58 -67h-191zM358 431q0 -50 8 -93l455 527q-50 44 -138 44q-114 0 -181.5 -60
t-105.5 -182.5t-38 -235.5zM891 662q0 32 -4 60l-444 -516q49 -34 123 -34q112 0 177.5 56.5t103 171.5t44.5 262zM619 1183l6 31l247 288h277l-8 -43l-376 -276h-146z" />
    <glyph glyph-name="uni0200" unicode="&#x200;" horiz-adv-x="1479" 
d="M1039 0l-55 360h-537l-195 -360h-294l787 1409h348l238 -1409h-292zM876 1192q-21 -64 -98 -212l-212 -398h395l-67 452q-18 135 -18 158zM1096 1517l-307 276l9 43h256l197 -288l-8 -31h-147zM691 1517l-307 276l9 43h256l197 -288l-8 -31h-147z" />
    <glyph glyph-name="uni0201" unicode="&#x201;" horiz-adv-x="1139" 
d="M892 -10q-100 0 -154 42t-54 111q0 37 5 64h-6q-84 -130 -166 -178.5t-200 -48.5q-140 0 -223.5 83.5t-83.5 214.5q0 185 127.5 279.5t413.5 99.5l191 3q21 95 21 131q0 128 -127 128q-94 0 -140 -36.5t-63 -105.5l-263 31q34 144 153.5 219t317.5 75q207 0 303.5 -73
t96.5 -222q0 -37 -24 -157l-71 -353q-8 -45 -8 -72q0 -24 10 -37t23 -19t26 -7.5t20 -1.5q30 0 62 7l-14 -155q-42 -16 -85 -19t-88 -3zM711 503h-162q-117 -2 -184.5 -48t-67.5 -130q0 -70 39.5 -109.5t106.5 -39.5q83 0 151 64.5t95 170.5zM866 1183l-307 276l9 43h256
l197 -288l-8 -31h-147zM461 1183l-307 276l9 43h256l197 -288l-8 -31h-147z" />
    <glyph glyph-name="uni0202" unicode="&#x202;" horiz-adv-x="1479" 
d="M1039 0l-55 360h-537l-195 -360h-294l787 1409h348l238 -1409h-292zM876 1192q-21 -64 -98 -212l-212 -398h395l-67 452q-18 135 -18 158zM973 1826q143 0 228 -76t85 -199l-2 -38h-163q0 73 -44.5 114.5t-119.5 41.5q-82 0 -138 -40t-79 -116h-164q42 161 139 237
t258 76z" />
    <glyph glyph-name="uni0203" unicode="&#x203;" horiz-adv-x="1139" 
d="M892 -10q-100 0 -154 42t-54 111q0 37 5 64h-6q-84 -130 -166 -178.5t-200 -48.5q-140 0 -223.5 83.5t-83.5 214.5q0 185 127.5 279.5t413.5 99.5l191 3q21 95 21 131q0 128 -127 128q-94 0 -140 -36.5t-63 -105.5l-263 31q34 144 153.5 219t317.5 75q207 0 303.5 -73
t96.5 -222q0 -37 -24 -157l-71 -353q-8 -45 -8 -72q0 -24 10 -37t23 -19t26 -7.5t20 -1.5q30 0 62 7l-14 -155q-42 -16 -85 -19t-88 -3zM711 503h-162q-117 -2 -184.5 -48t-67.5 -130q0 -70 39.5 -109.5t106.5 -39.5q83 0 151 64.5t95 170.5zM706 1496q143 0 228 -76
t85 -199l-2 -38h-163q0 73 -44.5 114.5t-119.5 41.5q-82 0 -138 -40t-79 -116h-164q42 161 139 237t258 76z" />
    <glyph glyph-name="uni0204" unicode="&#x204;" horiz-adv-x="1366" 
d="M36 0l273 1409h1108l-44 -228h-813l-69 -354h752l-44 -228h-752l-72 -371h854l-45 -228h-1148zM1056 1517l-307 276l9 43h256l197 -288l-8 -31h-147zM651 1517l-307 276l9 43h256l197 -288l-8 -31h-147z" />
    <glyph glyph-name="uni0205" unicode="&#x205;" horiz-adv-x="1139" 
d="M358 476q-7 -38 -7 -89q0 -106 46.5 -162.5t137.5 -56.5q147 0 213 169l245 -74q-75 -159 -186 -221t-291 -62q-213 0 -333 115.5t-120 322.5t72 362.5t204.5 238.5t306.5 83q209 0 322.5 -107.5t113.5 -303.5q0 -99 -24 -215h-700zM822 663l3 56q0 107 -49.5 156
t-129.5 49q-96 0 -161.5 -66.5t-93.5 -194.5h431zM846 1183l-307 276l9 43h256l197 -288l-8 -31h-147zM441 1183l-307 276l9 43h256l197 -288l-8 -31h-147z" />
    <glyph glyph-name="uni0206" unicode="&#x206;" horiz-adv-x="1366" 
d="M36 0l273 1409h1108l-44 -228h-813l-69 -354h752l-44 -228h-752l-72 -371h854l-45 -228h-1148zM916 1826q143 0 228 -76t85 -199l-2 -38h-163q0 73 -44.5 114.5t-119.5 41.5q-82 0 -138 -40t-79 -116h-164q42 161 139 237t258 76z" />
    <glyph glyph-name="uni0207" unicode="&#x207;" horiz-adv-x="1139" 
d="M358 476q-7 -38 -7 -89q0 -106 46.5 -162.5t137.5 -56.5q147 0 213 169l245 -74q-75 -159 -186 -221t-291 -62q-213 0 -333 115.5t-120 322.5t72 362.5t204.5 238.5t306.5 83q209 0 322.5 -107.5t113.5 -303.5q0 -99 -24 -215h-700zM822 663l3 56q0 107 -49.5 156
t-129.5 49q-96 0 -161.5 -66.5t-93.5 -194.5h431zM696 1496q143 0 228 -76t85 -199l-2 -38h-163q0 73 -44.5 114.5t-119.5 41.5q-82 0 -138 -40t-79 -116h-164q42 161 139 237t258 76z" />
    <glyph glyph-name="uni0208" unicode="&#x208;" horiz-adv-x="569" 
d="M36 0l273 1409h295l-274 -1409h-294zM646 1517l-307 276l9 43h256l197 -288l-8 -31h-147zM241 1517l-307 276l9 43h256l197 -288l-8 -31h-147z" />
    <glyph glyph-name="uni0209" unicode="&#x209;" horiz-adv-x="569" 
d="M35 0l210 1082h281l-211 -1082h-280zM596 1183l-307 276l9 43h256l197 -288l-8 -31h-147zM191 1183l-307 276l9 43h256l197 -288l-8 -31h-147z" />
    <glyph glyph-name="uni020A" unicode="&#x20a;" horiz-adv-x="569" 
d="M36 0l273 1409h295l-274 -1409h-294zM531 1858q143 0 228 -76t85 -199l-2 -38h-163q0 73 -44.5 114.5t-119.5 41.5q-82 0 -138 -40t-79 -116h-164q42 161 139 237t258 76z" />
    <glyph glyph-name="uni020B" unicode="&#x20b;" horiz-adv-x="569" 
d="M35 0l210 1082h281l-211 -1082h-280zM447 1496q143 0 228 -76t85 -199l-2 -38h-163q0 73 -44.5 114.5t-119.5 41.5q-82 0 -138 -40t-79 -116h-164q42 161 139 237t258 76z" />
    <glyph glyph-name="uni020C" unicode="&#x20c;" horiz-adv-x="1593" 
d="M928 1430q293 0 462 -155.5t169 -423.5q0 -247 -105.5 -450.5t-294.5 -312t-432 -108.5q-193 0 -335.5 72t-217 206.5t-74.5 314.5q0 235 105.5 438.5t292.5 311t430 107.5zM914 1197q-162 0 -276 -75t-176 -226t-62 -315q0 -184 90 -276.5t251 -92.5t275 75t176.5 223
t62.5 317q0 176 -87.5 273t-253.5 97zM1096 1517l-307 276l9 43h256l197 -288l-8 -31h-147zM691 1517l-307 276l9 43h256l197 -288l-8 -31h-147z" />
    <glyph glyph-name="uni020D" unicode="&#x20d;" 
d="M1185 683q0 -207 -81.5 -368t-231 -248t-337.5 -87q-218 0 -345 117.5t-127 321.5q0 201 79.5 356t226.5 240.5t335 85.5q235 0 358 -109.5t123 -308.5zM891 662q0 247 -208 247q-114 0 -181.5 -60t-105.5 -182.5t-38 -235.5q0 -259 208 -259q112 0 177.5 56.5t103 171.5
t44.5 262zM876 1183l-307 276l9 43h256l197 -288l-8 -31h-147zM471 1183l-307 276l9 43h256l197 -288l-8 -31h-147z" />
    <glyph glyph-name="uni020E" unicode="&#x20e;" horiz-adv-x="1593" 
d="M928 1430q293 0 462 -155.5t169 -423.5q0 -247 -105.5 -450.5t-294.5 -312t-432 -108.5q-193 0 -335.5 72t-217 206.5t-74.5 314.5q0 235 105.5 438.5t292.5 311t430 107.5zM914 1197q-162 0 -276 -75t-176 -226t-62 -315q0 -184 90 -276.5t251 -92.5t275 75t176.5 223
t62.5 317q0 176 -87.5 273t-253.5 97zM976 1825q143 0 228 -76t85 -199l-2 -38h-163q0 73 -44.5 114.5t-119.5 41.5q-82 0 -138 -40t-79 -116h-164q42 161 139 237t258 76z" />
    <glyph glyph-name="uni020F" unicode="&#x20f;" 
d="M1185 683q0 -207 -81.5 -368t-231 -248t-337.5 -87q-218 0 -345 117.5t-127 321.5q0 201 79.5 356t226.5 240.5t335 85.5q235 0 358 -109.5t123 -308.5zM891 662q0 247 -208 247q-114 0 -181.5 -60t-105.5 -182.5t-38 -235.5q0 -259 208 -259q112 0 177.5 56.5t103 171.5
t44.5 262zM764 1496q143 0 228 -76t85 -199l-2 -38h-163q0 73 -44.5 114.5t-119.5 41.5q-82 0 -138 -40t-79 -116h-164q42 161 139 237t258 76z" />
    <glyph glyph-name="uni0210" unicode="&#x210;" horiz-adv-x="1479" 
d="M1010 0l-230 534h-346l-103 -534h-295l274 1409h651q159 0 272.5 -49t172.5 -140t59 -214q0 -165 -108.5 -280t-294.5 -143l274 -583h-326zM872 764q145 0 219.5 58.5t74.5 166.5q0 93 -63.5 142t-178.5 49h-364l-81 -416h393zM1056 1517l-307 276l9 43h256l197 -288
l-8 -31h-147zM651 1517l-307 276l9 43h256l197 -288l-8 -31h-147z" />
    <glyph glyph-name="uni0211" unicode="&#x211;" horiz-adv-x="797" 
d="M844 853q-69 15 -114 15q-123 0 -200.5 -87t-112.5 -267l-101 -514h-281l161 830q24 120 42 252h268l-22 -172l-8 -49h4q73 134 144 187.5t163 53.5q47 0 103 -14zM796 1183l-307 276l9 43h256l197 -288l-8 -31h-147zM391 1183l-307 276l9 43h256l197 -288l-8 -31h-147z
" />
    <glyph glyph-name="uni0212" unicode="&#x212;" horiz-adv-x="1479" 
d="M1010 0l-230 534h-346l-103 -534h-295l274 1409h651q159 0 272.5 -49t172.5 -140t59 -214q0 -165 -108.5 -280t-294.5 -143l274 -583h-326zM872 764q145 0 219.5 58.5t74.5 166.5q0 93 -63.5 142t-178.5 49h-364l-81 -416h393zM916 1826q143 0 228 -76t85 -199l-2 -38
h-163q0 73 -44.5 114.5t-119.5 41.5q-82 0 -138 -40t-79 -116h-164q42 161 139 237t258 76z" />
    <glyph glyph-name="uni0213" unicode="&#x213;" horiz-adv-x="797" 
d="M844 853q-69 15 -114 15q-123 0 -200.5 -87t-112.5 -267l-101 -514h-281l161 830q24 120 42 252h268l-22 -172l-8 -49h4q73 134 144 187.5t163 53.5q47 0 103 -14zM619 1496q143 0 228 -76t85 -199l-2 -38h-163q0 73 -44.5 114.5t-119.5 41.5q-82 0 -138 -40t-79 -116
h-164q42 161 139 237t258 76z" />
    <glyph glyph-name="uni0214" unicode="&#x214;" horiz-adv-x="1479" 
d="M688 211q165 0 250.5 76t119.5 254l168 868h295l-171 -879q-55 -281 -220 -415.5t-458 -134.5q-264 0 -408.5 117.5t-144.5 333.5q0 44 7.5 105.5t15.5 98.5l148 774h295l-153 -810q-18 -87 -18 -172q0 -103 73 -159.5t201 -56.5zM1096 1517l-307 276l9 43h256l197 -288
l-8 -31h-147zM691 1517l-307 276l9 43h256l197 -288l-8 -31h-147z" />
    <glyph glyph-name="uni0215" unicode="&#x215;" 
d="M512 1082l-118 -595q-26 -123 -26 -165q0 -129 152 -129q101 0 186.5 81t108.5 202l118 606h282l-166 -851q-16 -79 -38 -231h-268q0 9 9.5 84t14.5 101h-3q-76 -107 -166.5 -155.5t-206.5 -48.5q-152 0 -229 73t-77 211q0 25 7 80.5t14 83.5l127 653h279zM920 1183
l-307 276l9 43h256l197 -288l-8 -31h-147zM515 1183l-307 276l9 43h256l197 -288l-8 -31h-147z" />
    <glyph glyph-name="uni0216" unicode="&#x216;" horiz-adv-x="1479" 
d="M688 211q165 0 250.5 76t119.5 254l168 868h295l-171 -879q-55 -281 -220 -415.5t-458 -134.5q-264 0 -408.5 117.5t-144.5 333.5q0 44 7.5 105.5t15.5 98.5l148 774h295l-153 -810q-18 -87 -18 -172q0 -103 73 -159.5t201 -56.5zM946 1826q143 0 228 -76t85 -199l-2 -38
h-163q0 73 -44.5 114.5t-119.5 41.5q-82 0 -138 -40t-79 -116h-164q42 161 139 237t258 76z" />
    <glyph glyph-name="uni0217" unicode="&#x217;" 
d="M512 1082l-118 -595q-26 -123 -26 -165q0 -129 152 -129q101 0 186.5 81t108.5 202l118 606h282l-166 -851q-16 -79 -38 -231h-268q0 9 9.5 84t14.5 101h-3q-76 -107 -166.5 -155.5t-206.5 -48.5q-152 0 -229 73t-77 211q0 25 7 80.5t14 83.5l127 653h279zM771 1496
q143 0 228 -76t85 -199l-2 -38h-163q0 73 -44.5 114.5t-119.5 41.5q-82 0 -138 -40t-79 -116h-164q42 161 139 237t258 76z" />
    <glyph glyph-name="Scommaaccent" unicode="&#x218;" horiz-adv-x="1366" 
d="M600 -20q-267 0 -407 94.5t-168 290.5l289 49q21 -111 93.5 -162t212.5 -51q345 0 345 199q0 80 -60 126.5t-238 91.5q-184 49 -272.5 102t-135 129.5t-46.5 187.5q0 177 157 285t416 108q238 0 382 -86.5t177 -252.5l-288 -67q-22 90 -95.5 143.5t-191.5 53.5
q-124 0 -195 -46.5t-71 -127.5q0 -47 26 -80t76 -57.5t198 -64.5q159 -44 235 -82.5t121.5 -86.5t69.5 -110t24 -143q0 -216 -166 -329.5t-488 -113.5zM577 -455h-137q112 100 127 170h-108l40 207h245l-24 -126q-14 -70 -45 -127t-98 -124z" />
    <glyph glyph-name="scommaaccent" unicode="&#x219;" horiz-adv-x="1139" 
d="M1000 334q0 -174 -128.5 -264t-374.5 -90q-201 0 -317 71t-157 220l251 36q21 -75 77 -108t166 -33q109 0 165.5 35t56.5 101q0 52 -41.5 79.5t-182.5 57.5q-199 45 -280.5 124.5t-81.5 205.5q0 160 125.5 245t358.5 85q206 0 307 -70.5t125 -217.5l-251 -29
q-17 69 -66 100t-134 31q-205 0 -205 -120q0 -33 20 -55t57 -38t178 -49q182 -41 257 -117t75 -200zM467 -455h-137q112 100 127 170h-108l40 207h245l-24 -126q-14 -70 -45 -127t-98 -124z" />
    <glyph glyph-name="uni021A" unicode="&#x21a;" 
d="M895 1181l-230 -1181h-295l230 1181h-455l44 228h1206l-44 -228h-456zM464 -455h-137q112 100 127 170h-108l40 207h245l-24 -126q-14 -70 -45 -127t-98 -124z" />
    <glyph glyph-name="uni021B" unicode="&#x21b;" horiz-adv-x="682" 
d="M376 -16q-124 0 -192 58.5t-68 166.5q0 71 16 157l102 526h-148l37 190h162l137 254h176l-48 -254h202l-35 -190h-205l-104 -535q-11 -56 -11 -89q0 -46 23.5 -68.5t63.5 -22.5q32 0 108 13l-32 -182q-81 -24 -184 -24zM287 -455h-137q112 100 127 170h-108l40 207h245
l-24 -126q-14 -70 -45 -127t-98 -124z" />
    <glyph glyph-name="uni021C" unicode="&#x21c;" horiz-adv-x="1182" 
d="M780 411q0 83 -24 127q-163 -88 -695 -234l44 233q252 73 409.5 130.5t229.5 104.5t109.5 107.5t37.5 142.5t-57 129t-158 47q-98 0 -148.5 -16.5t-87.5 -53t-64 -103.5l-265 49q34 93 83.5 159.5t113.5 109.5t151 65t232 22q240 0 375.5 -95t135.5 -261
q0 -77 -19 -136.5t-58 -112.5t-128 -130q80 -103 80 -248q0 -166 -68 -298.5t-196 -235t-338 -185t-555 -155.5l46 243q84 20 176.5 43t183 55.5t173 75.5t145 102.5t99.5 138t37 180.5z" />
    <glyph glyph-name="uni021D" unicode="&#x21d;" horiz-adv-x="1065" 
d="M766 779q0 66 -45.5 102.5t-127.5 36.5q-85 0 -152 -45.5t-102 -125.5l-218 54q52 145 183 223t315 78q210 0 316.5 -79.5t106.5 -233.5q0 -192 -194 -334q38 -36 60 -97t22 -124q0 -147 -66 -261.5t-188 -195t-318 -135t-468 -73.5l42 217q360 30 537 142t177 298
q0 61 -25 106q-181 -68 -611 -140l41 214q162 26 260.5 46t201 55t151.5 68.5t75.5 82t26.5 121.5z" />
    <glyph glyph-name="uni021E" unicode="&#x21e;" horiz-adv-x="1479" 
d="M956 0l118 604h-626l-118 -604h-294l273 1409h295l-109 -561h626l109 561h284l-274 -1409h-284zM1024 1530h-229l-204 276l5 29h150l182 -152h4l232 152h169l-6 -29z" />
    <glyph glyph-name="uni021F" unicode="&#x21f;" 
d="M601 1484l-79 -405l-39 -182h3q75 104 165.5 154t207.5 50q152 0 229 -73t77 -211q0 -25 -7 -79.5t-14 -84.5l-127 -653h-279l118 595q26 124 26 165q0 129 -152 129q-101 0 -187 -82t-108 -201l-118 -606h-282l286 1484h280zM964 1530h-229l-204 276l5 29h150l182 -152
h4l232 152h169l-6 -29z" />
    <glyph glyph-name="uni0220" unicode="&#x220;" horiz-adv-x="1450" 
d="M1118 -425h-291l230 1179q30 137 30 221q0 117 -52.5 170.5t-162.5 53.5q-171 0 -331 -130l-208 -1069h-291l274 1409h272l-26 -130q93 72 202 111.5t221 39.5q199 0 302 -94t103 -283q0 -84 -27 -219z" />
    <glyph glyph-name="uni0221" unicode="&#x221;" horiz-adv-x="1620" 
d="M749 160q-71 -93 -153.5 -137t-203.5 -44q-154 0 -244 102t-90 273q0 191 64 374t179.5 278.5t278.5 95.5q124 0 204.5 -50.5t109.5 -147.5h5q3 32 11.5 83.5t98.5 496.5h277l-241 -1268l-16 -104q130 80 273 80q140 0 221.5 -70t81.5 -190q0 -166 -115 -261.5
t-310 -95.5q-107 0 -203.5 35t-172.5 105l-138 -134l-139 151q49 57 214 200l-2 31v31q0 94 14 166h-4zM515 172q80 0 138 34.5t99 106t65.5 179.5t24.5 189q0 120 -47 174.5t-141 54.5q-102 0 -166.5 -69t-98.5 -202t-34 -246q0 -221 160 -221zM1202 -229q74 0 117.5 32.5
t43.5 86.5q0 45 -34 71.5t-84 26.5q-137 0 -232 -95q6 -51 61 -86.5t128 -35.5z" />
    <glyph glyph-name="uni0222" unicode="&#x222;" horiz-adv-x="1292" 
d="M496 991q0 -73 56.5 -113t161.5 -40q263 0 263 233q0 149 -141 160l34 198q191 -9 289.5 -95.5t98.5 -238.5q0 -257 -300 -352l-1 -4q100 -23 157 -98t57 -189q0 -143 -74.5 -250t-217 -164.5t-334.5 -57.5q-236 0 -364.5 98t-128.5 281q0 145 88 244t254 134l1 4
q-182 88 -182 261q0 170 134 262.5t380 92.5l-35 -199q-107 0 -151.5 -44t-44.5 -123zM582 178q142 0 220.5 70.5t78.5 192.5q0 106 -56.5 153t-177.5 47q-95 0 -162 -34.5t-103 -93t-36 -132.5q0 -100 60 -151.5t176 -51.5z" />
    <glyph glyph-name="uni0223" unicode="&#x223;" horiz-adv-x="1292" 
d="M555 -20q-241 0 -371 98t-130 278q0 156 91.5 265.5t257.5 147.5l1 4q-81 40 -130 117.5t-49 169.5q0 155 98.5 263t281.5 166l77 -152q-81 -33 -130 -101t-49 -156q0 -101 54 -156.5t161 -55.5q130 0 208.5 74.5t78.5 195.5q0 125 -87 199l135 152q109 -57 169 -144
t60 -194q0 -132 -75 -225.5t-231 -152.5l-1 -4q99 -29 155 -111.5t56 -193.5q0 -143 -77.5 -253.5t-222 -170.5t-331.5 -60zM596 178q136 0 218 76.5t82 203.5q0 213 -241 213q-100 0 -167 -35.5t-102.5 -97t-35.5 -139.5q0 -115 61 -168t185 -53z" />
    <glyph glyph-name="uni0224" unicode="&#x224;" 
d="M919 1178h-663l45 231h1014l-40 -205l-930 -973h546q133 0 200 -58.5t67 -164.5q0 -60 -21.5 -146t-52.5 -144l-243 38q55 95 55 161q0 83 -104 83h-840l40 209z" />
    <glyph glyph-name="uni0225" unicode="&#x225;" horiz-adv-x="1024" 
d="M656 879h-480l40 203h809l-39 -201l-650 -676h371q127 0 196 -56t69 -157q0 -72 -24 -151t-51 -125l-231 36q20 37 38 75.5t18 78.5q0 46 -28 70t-77 24h-652l38 199z" />
    <glyph glyph-name="uni0226" unicode="&#x226;" horiz-adv-x="1479" 
d="M1039 0l-55 360h-537l-195 -360h-294l787 1409h348l238 -1409h-292zM876 1192q-21 -64 -98 -212l-212 -398h395l-67 452q-18 135 -18 158zM793 1547l41 207h281l-41 -207h-281z" />
    <glyph glyph-name="uni0227" unicode="&#x227;" horiz-adv-x="1139" 
d="M892 -10q-100 0 -154 42t-54 111q0 37 5 64h-6q-84 -130 -166 -178.5t-200 -48.5q-140 0 -223.5 83.5t-83.5 214.5q0 185 127.5 279.5t413.5 99.5l191 3q21 95 21 131q0 128 -127 128q-94 0 -140 -36.5t-63 -105.5l-263 31q34 144 153.5 219t317.5 75q207 0 303.5 -73
t96.5 -222q0 -37 -24 -157l-71 -353q-8 -45 -8 -72q0 -24 10 -37t23 -19t26 -7.5t20 -1.5q30 0 62 7l-14 -155q-42 -16 -85 -19t-88 -3zM711 503h-162q-117 -2 -184.5 -48t-67.5 -130q0 -70 39.5 -109.5t106.5 -39.5q83 0 151 64.5t95 170.5zM550 1277l41 207h281l-41 -207
h-281z" />
    <glyph glyph-name="uni0228" unicode="&#x228;" horiz-adv-x="1366" 
d="M36 0l273 1409h1108l-44 -228h-813l-69 -354h752l-44 -228h-752l-72 -371h854l-45 -228h-1148zM670 -58q80 0 124 -42t44 -108q0 -110 -83.5 -163.5t-261.5 -53.5q-46 0 -100 6l23 118q34 -7 83 -7q82 0 117 19.5t35 57.5q0 61 -102 61h-25l-26 -2l59 109q53 5 113 5z
" />
    <glyph glyph-name="uni0229" unicode="&#x229;" horiz-adv-x="1139" 
d="M358 476q-7 -38 -7 -89q0 -106 46.5 -162.5t137.5 -56.5q147 0 213 169l245 -74q-75 -159 -186 -221t-291 -62q-213 0 -333 115.5t-120 322.5t72 362.5t204.5 238.5t306.5 83q209 0 322.5 -107.5t113.5 -303.5q0 -99 -24 -215h-700zM822 663l3 56q0 107 -49.5 156
t-129.5 49q-96 0 -161.5 -66.5t-93.5 -194.5h431zM540 -58q80 0 124 -42t44 -108q0 -110 -83.5 -163.5t-261.5 -53.5q-46 0 -100 6l23 118q34 -7 83 -7q82 0 117 19.5t35 57.5q0 61 -102 61h-25l-26 -2l59 109q53 5 113 5z" />
    <glyph glyph-name="uni022A" unicode="&#x22a;" horiz-adv-x="1593" 
d="M928 1430q293 0 462 -155.5t169 -423.5q0 -247 -105.5 -450.5t-294.5 -312t-432 -108.5q-193 0 -335.5 72t-217 206.5t-74.5 314.5q0 235 105.5 438.5t292.5 311t430 107.5zM914 1197q-162 0 -276 -75t-176 -226t-62 -315q0 -184 90 -276.5t251 -92.5t275 75t176.5 223
t62.5 317q0 176 -87.5 273t-253.5 97zM1217 1466h-160l29 152h160zM852 1466h-160l29 152h160zM720 1835h611l-26 -138h-611z" />
    <glyph glyph-name="uni022B" unicode="&#x22b;" 
d="M1185 683q0 -207 -81.5 -368t-231 -248t-337.5 -87q-218 0 -345 117.5t-127 321.5q0 201 79.5 356t226.5 240.5t335 85.5q235 0 358 -109.5t123 -308.5zM891 662q0 247 -208 247q-114 0 -181.5 -60t-105.5 -182.5t-38 -235.5q0 -259 208 -259q112 0 177.5 56.5t103 171.5
t44.5 262zM858 1199l43 219h217l-43 -219h-217zM425 1199l42 219h214l-43 -219h-213zM1079 1508h-586l33 168h590z" />
    <glyph glyph-name="uni022C" unicode="&#x22c;" horiz-adv-x="1593" 
d="M928 1430q293 0 462 -155.5t169 -423.5q0 -247 -105.5 -450.5t-294.5 -312t-432 -108.5q-193 0 -335.5 72t-217 206.5t-74.5 314.5q0 235 105.5 438.5t292.5 311t430 107.5zM914 1197q-162 0 -276 -75t-176 -226t-62 -315q0 -184 90 -276.5t251 -92.5t275 75t176.5 223
t62.5 317q0 176 -87.5 273t-253.5 97zM695 1835h611l-27 -138h-611zM1064 1461q-51 0 -132 38q-82 37 -118 37q-45 0 -71 -17.5t-42 -57.5h-91q28 85 55 120.5t67.5 54.5t101.5 19q36 0 69.5 -11.5t64 -26t58.5 -26t54 -11.5q48 0 73 19t39 56h92q-32 -92 -57 -125
t-63.5 -51t-99.5 -18z" />
    <glyph glyph-name="uni022D" unicode="&#x22d;" 
d="M1185 683q0 -207 -81.5 -368t-231 -248t-337.5 -87q-218 0 -345 117.5t-127 321.5q0 201 79.5 356t226.5 240.5t335 85.5q235 0 358 -109.5t123 -308.5zM891 662q0 247 -208 247q-114 0 -181.5 -60t-105.5 -182.5t-38 -235.5q0 -259 208 -259q112 0 177.5 56.5t103 171.5
t44.5 262zM892 1183q-44 0 -84.5 19t-78 42.5t-71.5 42.5t-64 19q-42 0 -69.5 -25.5t-52.5 -97.5h-136q39 158 108.5 225.5t172.5 67.5q45 0 86.5 -19t78.5 -42.5t70 -42.5t62 -19q43 0 71 28t52 95h135q-39 -158 -108.5 -225.5t-171.5 -67.5zM1060 1553h-586l33 168h590z
" />
    <glyph glyph-name="uni022E" unicode="&#x22e;" horiz-adv-x="1593" 
d="M928 1430q293 0 462 -155.5t169 -423.5q0 -247 -105.5 -450.5t-294.5 -312t-432 -108.5q-193 0 -335.5 72t-217 206.5t-74.5 314.5q0 235 105.5 438.5t292.5 311t430 107.5zM914 1197q-162 0 -276 -75t-176 -226t-62 -315q0 -184 90 -276.5t251 -92.5t275 75t176.5 223
t62.5 317q0 176 -87.5 273t-253.5 97zM805 1547l41 207h281l-41 -207h-281z" />
    <glyph glyph-name="uni022F" unicode="&#x22f;" 
d="M1185 683q0 -207 -81.5 -368t-231 -248t-337.5 -87q-218 0 -345 117.5t-127 321.5q0 201 79.5 356t226.5 240.5t335 85.5q235 0 358 -109.5t123 -308.5zM891 662q0 247 -208 247q-114 0 -181.5 -60t-105.5 -182.5t-38 -235.5q0 -259 208 -259q112 0 177.5 56.5t103 171.5
t44.5 262zM595 1277l41 207h281l-41 -207h-281z" />
    <glyph glyph-name="uni0230" unicode="&#x230;" horiz-adv-x="1593" 
d="M928 1430q293 0 462 -155.5t169 -423.5q0 -247 -105.5 -450.5t-294.5 -312t-432 -108.5q-193 0 -335.5 72t-217 206.5t-74.5 314.5q0 235 105.5 438.5t292.5 311t430 107.5zM914 1197q-162 0 -276 -75t-176 -226t-62 -315q0 -184 90 -276.5t251 -92.5t275 75t176.5 223
t62.5 317q0 176 -87.5 273t-253.5 97zM1025 1466h-159l29 152h159zM712 1835h611l-26 -138h-611z" />
    <glyph glyph-name="uni0231" unicode="&#x231;" 
d="M1185 683q0 -207 -81.5 -368t-231 -248t-337.5 -87q-218 0 -345 117.5t-127 321.5q0 201 79.5 356t226.5 240.5t335 85.5q235 0 358 -109.5t123 -308.5zM891 662q0 247 -208 247q-114 0 -181.5 -60t-105.5 -182.5t-38 -235.5q0 -259 208 -259q112 0 177.5 56.5t103 171.5
t44.5 262zM592 1222l41 207h281l-41 -207h-281zM1052 1511h-586l33 168h590z" />
    <glyph glyph-name="uni0232" unicode="&#x232;" horiz-adv-x="1366" 
d="M724 0h-294l112 578l-370 831h292l259 -605l474 605h323l-684 -831zM1136 1525h-586l33 168h590z" />
    <glyph glyph-name="uni0233" unicode="&#x233;" horiz-adv-x="1139" 
d="M88 -425q-97 0 -173 18l38 196q40 -9 87 -9q78 0 137.5 46t118.5 150l28 48l-212 1058h291l71 -497q6 -31 21.5 -178t13.5 -156l17 37l139 293l259 501h300l-654 -1139q-107 -167 -174.5 -235t-141 -100.5t-166.5 -32.5zM969 1203h-586l33 168h590z" />
    <glyph glyph-name="uni0234" unicode="&#x234;" horiz-adv-x="926" 
d="M336 111q129 81 278 81q140 0 221.5 -70t81.5 -190q0 -166 -115 -261.5t-310 -95.5q-107 0 -203.5 35t-172.5 105l-138 -134l-139 151q49 57 214 200q-5 25 -5 62q0 77 15 152l260 1338h281zM514 -229q74 0 117.5 32.5t43.5 86.5q0 45 -34 71.5t-84 26.5q-137 0 -232 -95
q6 -51 61 -86.5t128 -35.5z" />
    <glyph glyph-name="uni0235" unicode="&#x235;" horiz-adv-x="1608" 
d="M1039 111q129 81 279 81q140 0 221.5 -70t81.5 -190q0 -166 -115 -261.5t-310 -95.5q-107 0 -203.5 35t-172.5 105l-138 -134l-139 151q49 57 214 200q-5 25 -5 62q0 77 15 152l89 449q26 124 26 165q0 129 -152 129q-101 0 -186.5 -81t-108.5 -202l-118 -606h-282
l166 851q16 79 38 231h268q0 -9 -9.5 -84t-14.5 -101h3q76 107 166.5 155.5t206.5 48.5q152 0 229 -73t77 -211q0 -25 -7 -80.5t-14 -83.5zM1218 -229q74 0 117.5 32.5t43.5 86.5q0 45 -34 71.5t-84 26.5q-137 0 -232 -95q6 -51 61 -86.5t128 -35.5z" />
    <glyph glyph-name="uni0236" unicode="&#x236;" horiz-adv-x="1043" 
d="M234 892h-148l37 190h162l137 254h176l-48 -254h202l-35 -190h-205l-73 -376q130 81 274 81q140 0 221.5 -70t81.5 -190q0 -166 -115 -261.5t-310 -95.5q-107 0 -203.5 35t-172.5 105l-138 -134l-139 151q32 38 220 200q-5 25 -5 62q0 77 15 152zM613 176
q74 0 117.5 32.5t43.5 86.5q0 45 -34 71.5t-84 26.5q-137 0 -232 -95q6 -51 61 -86.5t128 -35.5z" />
    <glyph glyph-name="j.dotless" unicode="&#x237;" horiz-adv-x="569" 
d="M-54 -425q-95 0 -166 19l36 188l58 -4q67 0 98.5 34.5t49.5 127.5l223 1142h281l-236 -1210q-29 -144 -116.5 -220.5t-227.5 -76.5z" />
    <glyph glyph-name="uni0238" unicode="&#x238;" horiz-adv-x="1953" 
d="M757 160q-71 -93 -153.5 -137t-203.5 -44q-154 0 -244 102t-90 273q0 191 64 374t179.5 278.5t278.5 95.5q124 0 204.5 -50.5t109.5 -147.5h5q3 32 11.5 83.5t98.5 496.5h277l-109 -572l3 1h4q63 94 155 141.5t201 47.5q159 0 248 -94.5t89 -259.5v-14q0 -188 -62 -379.5
t-174.5 -283t-286.5 -91.5q-125 0 -203 52t-110 146h-4l-38 -178h-261l15 160h-4zM1428 907q-81 0 -139.5 -35t-99.5 -106.5t-65 -178.5t-24 -186q0 -107 53 -167.5t148 -60.5q101 0 158 62.5t95 212t38 246.5q0 105 -35.5 159t-128.5 54zM523 172q80 0 138 34.5t99 106
t65.5 179.5t24.5 189q0 120 -47 174.5t-141 54.5q-102 0 -166.5 -69t-98.5 -202t-34 -246q0 -221 160 -221z" />
    <glyph glyph-name="uni0239" unicode="&#x239;" horiz-adv-x="1949" 
d="M901 903l38 179h261l-18 -169h3q73 103 157 146t198 43q159 0 248 -94.5t89 -259.5q0 -202 -62 -393.5t-174.5 -283t-286.5 -91.5q-125 0 -203 52t-110 146h-4l-116 -603h-281l85 432l36 156h-4q-73 -95 -157 -139.5t-203 -44.5q-152 0 -243.5 98t-91.5 271q0 196 64 379
t180 279t277 96q130 0 201 -45.5t112 -153.5h5zM521 172q109 0 179 65t108 195t38 248q0 230 -174 230q-110 0 -176 -64.5t-101.5 -200.5t-35.5 -259q0 -214 162 -214zM1420 907q-81 0 -139.5 -35t-99.5 -106.5t-65 -178.5t-24 -186q0 -107 53 -167.5t148 -60.5
q103 0 162 65t92.5 206t33.5 250q0 106 -38.5 159.5t-122.5 53.5z" />
    <glyph glyph-name="uni023A" unicode="&#x23a;" horiz-adv-x="1479" 
d="M1039 0l-55 360h-343l-314 -442h-161l58 82h-266l787 1409h348l25 -151l161 226h161l-291 -409l182 -1075h-292zM566 582h72l267 376q-29 200 -29 234q-21 -64 -98 -212zM933 771l-134 -189h162zM324 132l160 228h-45z" />
    <glyph glyph-name="uni023B" unicode="&#x23b;" horiz-adv-x="1479" 
d="M298 104q-102 81 -150 201.5t-48 263.5q0 252 105 450.5t293.5 304.5t428.5 106q161 0 280 -48l72 102h161l-118 -166q134 -98 181 -280l-274 -71q-20 73 -67 126l-601 -845q72 -37 170 -37q266 0 418 258l227 -117q-104 -186 -272 -279t-393 -93q-172 0 -300 57
l-84 -119h-161zM401 573q0 -147 61 -238l594 836q-60 27 -138 27q-242 0 -379.5 -168t-137.5 -457z" />
    <glyph glyph-name="uni023C" unicode="&#x23c;" horiz-adv-x="1139" 
d="M536 173q83 0 137 52.5t86 155.5l271 -50q-105 -351 -510 -351q-128 0 -229 42l-304 -447h-161l354 519q-117 111 -117 311q0 195 79 366t210.5 251t327.5 80q89 0 170 -24l277 406h161l-319 -467q125 -96 140 -276l-284 -23q-3 38 -12 70l-393 -577q42 -38 116 -38z
M358 407q0 -37 2 -48l366 537q-31 13 -68 13q-107 0 -167.5 -73.5t-109.5 -260.5q-23 -115 -23 -168z" />
    <glyph glyph-name="uni023D" unicode="&#x23d;" 
d="M43 0l126 653h-126l39 203h127l107 553h295l-107 -553h366l-40 -203h-366l-82 -425h756l-44 -228h-1051z" />
    <glyph glyph-name="uni023E" unicode="&#x23e;" 
d="M1149 1181l-347 -475l-137 -706h-295l30 155l-173 -237h-161l393 538l141 725h-455l44 228h965l55 75h161l-55 -75h80l-44 -228h-202zM861 1007l127 174h-93z" />
    <glyph glyph-name="uni023F" unicode="&#x23f;" horiz-adv-x="1139" 
d="M497 -20l-72 10q121 -128 155.5 -156t65 -40.5t63.5 -12.5q17 0 55.5 3.5t60.5 8.5l-39 -201q-89 -17 -154 -17q-80 0 -146.5 35t-127 94.5t-194 244t-163.5 241.5l194 151q49 -82 133 -128.5t189 -46.5q109 0 165.5 35t56.5 101q0 51 -39.5 78.5t-184.5 58.5
q-198 45 -280 123t-82 207q0 160 125.5 245t358.5 85q205 0 305.5 -69t126.5 -219l-251 -29q-17 69 -66 100t-134 31q-205 0 -205 -120q0 -33 20.5 -55.5t60 -39t174.5 -47.5q182 -41 257 -117t75 -200q0 -174 -128.5 -264t-374.5 -90z" />
    <glyph glyph-name="uni0240" unicode="&#x240;" horiz-adv-x="1024" 
d="M-35 0l38 199l653 680h-480l40 203h809l-39 -201l-650 -676q73 -6 144.5 -56.5t155.5 -153.5q84 -105 143.5 -150.5t116.5 -45.5q40 0 100 12l-43 -219q-89 -17 -154 -17q-91 0 -172 52t-167 161q-89 112 -158.5 162t-143.5 50h-193z" />
    <glyph glyph-name="uni0241" unicode="&#x241;" horiz-adv-x="1321" 
d="M557 546q211 0 316 97t105 282q0 128 -79.5 202.5t-217.5 74.5q-110 0 -188.5 -57t-133.5 -183l-245 76q80 202 224.5 297t382.5 95q261 0 409 -131.5t148 -368.5q0 -261 -154.5 -420.5t-422.5 -177.5l-64 -332h-295l108 559q55 -13 107 -13z" />
    <glyph glyph-name="uni0242" unicode="&#x242;" horiz-adv-x="991" 
d="M201 0l88 448q173 0 270 76t97 214q0 88 -44.5 136.5t-121.5 48.5q-156 0 -196 -144l-232 20q83 303 459 303q196 0 302 -95t106 -265q0 -122 -47 -211.5t-133.5 -145t-204.5 -72.5l-61 -313h-282z" />
    <glyph glyph-name="uni0243" unicode="&#x243;" horiz-adv-x="1479" 
d="M19 519h118l173 890h584q251 0 380 -82.5t129 -243.5q0 -137 -82.5 -224.5t-241.5 -120.5q136 -23 212.5 -105.5t76.5 -201.5q0 -211 -156.5 -321t-470.5 -110h-705l63 324h-118zM431 519h273l-39 -195h-272l-20 -105h328q209 0 290 50.5t81 167.5q0 90 -68 138t-222 48
h-330zM494 841h294q175 0 248.5 46t73.5 151q0 80 -57 116t-191 36h-301z" />
    <glyph glyph-name="uni0244" unicode="&#x244;" horiz-adv-x="1479" 
d="M47 878h141l102 531h295l-100 -531h638l103 531h295l-104 -531h142l-39 -203h-142l-28 -145q-55 -281 -220 -415.5t-458 -134.5q-264 0 -408.5 117.5t-144.5 333.5q0 73 30 244h-141zM688 211q165 0 250.5 76t119.5 254l26 134h-638l-14 -76q-18 -87 -18 -172
q0 -103 73 -159.5t201 -56.5z" />
    <glyph glyph-name="uni0245" unicode="&#x245;" horiz-adv-x="1366" 
d="M1244 1h-295l-117 885q-17 153 -20 266l-40 -88l-86 -178l-462 -885h-317l794 1409h299z" />
    <glyph glyph-name="uni0246" unicode="&#x246;" horiz-adv-x="1366" 
d="M345 0l-75 -110h-166l75 110h-143l273 1409h832l65 95h166l-65 -95h110l-44 -228h-222l-242 -354h334l-44 -228h-445l-254 -371h729l-45 -228h-839zM491 827h252l242 354h-425zM391 310l197 289h-141z" />
    <glyph glyph-name="uni0247" unicode="&#x247;" horiz-adv-x="1139" 
d="M594 476l-181 -267q46 -41 122 -41q147 0 213 169l245 -74q-72 -157 -183.5 -220t-293.5 -63q-131 0 -229 45l-307 -452h-161l359 528q-115 115 -115 317q0 206 72 362t205 239t306 83q110 0 193 -30l280 412h161l-325 -478q127 -107 127 -315q0 -99 -24 -215h-464z
M560 663l167 245q-35 16 -81 16q-96 0 -163 -68.5t-92 -192.5h169zM825 719q0 47 -10 81l-94 -137h101zM351 387q0 -23 1 -31l81 120h-75q-7 -38 -7 -89z" />
    <glyph glyph-name="uni0248" unicode="&#x248;" horiz-adv-x="1139" 
d="M523 878h255l58 300h-281l44 231h575l-104 -531h128l-39 -203h-129l-49 -252q-45 -231 -165 -337t-336 -106q-386 0 -455 399l267 58q46 -226 207 -226q53 0 90.5 24t61 67.5t42.5 137.5l45 235h-254z" />
    <glyph glyph-name="uni0249" unicode="&#x249;" horiz-adv-x="569" 
d="M35 658h127l83 424h281l-83 -424h129l-39 -203h-130l-113 -583q-29 -144 -116.5 -220.5t-227.5 -76.5q-95 0 -166 19l36 188l58 -4q67 0 98.5 34.5t49.5 127.5l100 515h-126zM283 1277l40 207h281l-40 -207h-281z" />
    <glyph glyph-name="uni024A" unicode="&#x24a;" horiz-adv-x="1599" 
d="M1251 -425q-133 0 -192 53.5t-59 170.5q0 64 17 149l19 100q-156 -68 -336 -68q-276 0 -438 160.5t-162 432.5q0 235 105.5 438.5t292.5 311t430 107.5q236 0 398 -106l192 85h64l-280 -1441q-7 -37 -7 -63q0 -47 21.5 -70t68.5 -23q28 0 101 13l-45 -230q-37 -8 -94 -14
t-96 -6zM741 212q207 0 341 89l140 779q-119 117 -308 117q-162 0 -276 -75t-176 -226t-62 -315q0 -185 90 -277t251 -92z" />
    <glyph glyph-name="uni024B" unicode="&#x24b;" 
d="M898 903q7 46 23.5 104t23.5 75h270q-15 -43 -61 -287l-155 -809q-8 -40 -8 -70q0 -104 89 -104q28 0 101 13l-45 -230q-37 -8 -94 -14t-96 -6q-119 0 -182 67t-63 197q0 76 19 160l38 164h-4q-73 -95 -157 -139.5t-203 -44.5q-152 0 -243.5 98t-91.5 271q0 196 64 379
t180 279t277 96q130 0 201 -45.5t112 -153.5h5zM518 172q109 0 179 65t108 195t38 248q0 230 -174 230q-110 0 -176 -64.5t-101.5 -200.5t-35.5 -259q0 -214 162 -214z" />
    <glyph glyph-name="uni024C" unicode="&#x24c;" horiz-adv-x="1479" 
d="M12 764h187l126 645h651q159 0 272.5 -49t172.5 -140t59 -214q0 -165 -108.5 -280t-294.5 -143l274 -583h-326l-230 534h-346l-103 -534h-295l104 535h-187zM887 764q145 0 219.5 58.5t74.5 166.5q0 92 -63.5 141.5t-178.5 49.5h-364l-81 -416h393z" />
    <glyph glyph-name="uni024D" unicode="&#x24d;" horiz-adv-x="797" 
d="M844 853q-69 15 -114 15q-225 0 -301 -300h151l-39 -203h-154l-71 -365h-281l71 365h-116l39 203h116q61 316 75.5 400.5t17.5 113.5h268q-21 -161 -30 -221h4q73 134 144 187.5t163 53.5q47 0 103 -14z" />
    <glyph glyph-name="uni024E" unicode="&#x24e;" horiz-adv-x="1366" 
d="M1404 1268h121l-39 -203h-249l-401 -487l-112 -578h-294l112 578l-217 487h-244l38 203h116l-63 141h292l60 -141h562l111 141h323zM723 804l204 261h-316z" />
    <glyph glyph-name="uni024F" unicode="&#x24f;" horiz-adv-x="1139" 
d="M1049 778h132l-39 -203h-209l-363 -632q-107 -167 -174.5 -235t-141 -100.5t-166.5 -32.5q-97 0 -173 18l38 196q40 -9 87 -9q53 0 95.5 20t80 61.5t108.5 162.5l-111 551h-195l38 203h117l-61 304h291l43 -304h321l157 304h300zM662 575h-186l33 -324z" />
    <glyph glyph-name="uni0250" unicode="&#x250;" horiz-adv-x="1139" 
d="M252 1092q100 0 154 -42t54 -111q0 -37 -5 -64h6q84 130 166 178.5t200 48.5q140 0 223.5 -83.5t83.5 -214.5q0 -188 -130 -281t-411 -97l-191 -4q-21 -94 -21 -131q0 -128 127 -128q94 0 140 36.5t63 105.5l263 -31q-34 -144 -153.5 -219t-317.5 -75q-207 0 -303.5 73
t-96.5 222q0 37 24 157l71 353q8 45 8 72q0 30 -20 47.5t-59 17.5q-30 0 -62 -7l14 155q42 16 85 19t88 3zM433 579h162q118 0 185 46.5t67 131.5q0 70 -39.5 109.5t-106.5 39.5q-83 0 -151 -64.5t-95 -170.5z" />
    <glyph glyph-name="uni0251" unicode="&#x251;" 
d="M749 160q-71 -93 -153.5 -137t-203.5 -44q-154 0 -244 102t-90 273q0 191 64 374t179.5 278.5t278.5 95.5q124 0 204.5 -50.5t109.5 -147.5h5q14 62 50 178h265l-50 -243l-116 -608q-20 -112 -29 -231h-281q0 31 4.5 80.5t10.5 79.5h-4zM515 172q80 0 138 34.5t99 106
t65.5 179.5t24.5 189q0 120 -47 174.5t-141 54.5q-102 0 -166.5 -69t-98.5 -202t-34 -246q0 -221 160 -221z" />
    <glyph glyph-name="uni0252" unicode="&#x252;" 
d="M503 921q71 93 153.5 137t203.5 44q154 0 244 -102t90 -273q0 -191 -64 -374t-179.5 -278.5t-278.5 -95.5q-256 0 -314 198h-5q-14 -62 -50 -178h-265l50 243l116 608q20 112 29 231h281q0 -62 -15 -160h4zM737 909q-81 0 -139 -34.5t-99 -106t-65 -179.5t-24 -189
q0 -120 47 -174.5t141 -54.5q102 0 166.5 69t98.5 202t34 246q0 221 -160 221z" />
    <glyph glyph-name="uni0253" unicode="&#x253;" 
d="M855 1102q159 0 248 -94.5t89 -259.5v-14q0 -188 -62 -379.5t-174.5 -283t-286.5 -91.5q-125 0 -203 52t-110 146h-2q-6 -26 -13.5 -55.5t-15 -55.5t-13 -44.5t-6.5 -22.5h-271q8 25 49 223l188 958q29 154 121 228.5t257 74.5q79 0 179 -20l-40 -204q-69 15 -101 15
q-58 0 -93.5 -33.5t-51.5 -107.5l-48 -221h4q63 94 155 141.5t201 47.5zM735 907q-81 0 -139.5 -35t-99.5 -106.5t-65 -178.5t-24 -186q0 -107 53 -167.5t148 -60.5q101 0 158 62.5t95 212t38 246.5q0 105 -35.5 159t-128.5 54z" />
    <glyph glyph-name="uni0254" unicode="&#x254;" horiz-adv-x="1139" 
d="M600 909q-83 0 -137 -52.5t-86 -155.5l-271 50q107 351 510 351q220 0 338.5 -112.5t118.5 -312.5q0 -195 -79 -366t-210.5 -251t-327.5 -80q-189 0 -302 95.5t-127 265.5l284 23q11 -191 167 -191q107 0 167.5 73.5t109.5 260.5q23 115 23 168q0 234 -178 234z" />
    <glyph glyph-name="uni0255" unicode="&#x255;" horiz-adv-x="1139" 
d="M-75 89q97 109 164 172q-20 95 -20 182q0 187 73.5 338t208 236t307.5 85q407 0 452 -361l-284 -23q-5 95 -50 143t-125 48q-117 0 -192 -119t-96 -327q92 66 182.5 97t193.5 31q141 0 223.5 -67.5t82.5 -177.5q0 -164 -144 -265t-378 -101q-197 0 -320 107
q-96 -98 -141 -149zM789 297q0 38 -33.5 64.5t-109.5 26.5q-65 0 -139.5 -34t-124.5 -87q26 -46 80.5 -72.5t113.5 -26.5q100 0 156.5 34.5t56.5 94.5z" />
    <glyph glyph-name="uni0256" unicode="&#x256;" 
d="M756 160q-71 -93 -157 -137t-207 -44q-154 0 -244 102t-90 273q0 191 64 374t179.5 278.5t278.5 95.5q124 0 204.5 -50.5t109.5 -147.5h5q3 32 11.5 83.5t98.5 496.5h277l-290 -1530q-7 -35 -7 -63q0 -93 101 -93q28 0 98 13l-43 -216q-94 -20 -155 -20q-142 0 -212 62.5
t-70 195.5q0 31 5.5 72t46.5 255h-4zM515 172q80 0 138 34.5t99 106t65.5 179.5t24.5 189q0 120 -47 174.5t-141 54.5q-102 0 -166.5 -69t-98.5 -202t-34 -246q0 -221 160 -221z" />
    <glyph glyph-name="uni0257" unicode="&#x257;" 
d="M749 160q-71 -93 -153.5 -137t-203.5 -44q-154 0 -244 102t-90 273q0 191 64 374t179.5 278.5t278.5 95.5q124 0 204.5 -50.5t109.5 -147.5h5l52 277q29 155 120.5 229t255.5 74q79 0 179 -20l-40 -204q-69 15 -101 15q-52 0 -90.5 -30t-54.5 -111l-172 -903
q-20 -112 -29 -231h-281q0 31 4.5 80.5t10.5 79.5h-4zM515 172q80 0 138 34.5t99 106t65.5 179.5t24.5 189q0 120 -47 174.5t-141 54.5q-102 0 -166.5 -69t-98.5 -202t-34 -246q0 -221 160 -221z" />
    <glyph glyph-name="uni0258" unicode="&#x258;" horiz-adv-x="1139" 
d="M459 -20q-169 0 -283.5 79t-140.5 215l269 23q21 -60 65.5 -94.5t126.5 -34.5q106 0 167.5 78.5t90.5 240.5h-689q25 300 168 457.5t386 157.5q130 0 234.5 -51t162 -145.5t57.5 -220.5q0 -206 -79.5 -370t-217 -249.5t-317.5 -85.5zM605 925q-206 0 -247 -262h425
q7 41 7 79q0 85 -50 134t-135 49z" />
    <glyph glyph-name="uni0259" unicode="&#x259;" horiz-adv-x="1139" 
d="M787 606q7 39 7 89q0 106 -46.5 162.5t-137.5 56.5q-147 0 -213 -169l-245 74q75 159 186 221t291 62q213 0 333 -115.5t120 -322.5t-72 -362.5t-204.5 -238.5t-306.5 -83q-209 0 -322.5 107.5t-113.5 303.5q0 99 24 215h700zM323 419l-3 -56q0 -107 49.5 -156t129.5 -49
q96 0 161.5 66.5t93.5 194.5h-431z" />
    <glyph glyph-name="uni0259" unicode="&#x4d9;" horiz-adv-x="1139" 
d="M787 606q7 39 7 89q0 106 -46.5 162.5t-137.5 56.5q-147 0 -213 -169l-245 74q75 159 186 221t291 62q213 0 333 -115.5t120 -322.5t-72 -362.5t-204.5 -238.5t-306.5 -83q-209 0 -322.5 107.5t-113.5 303.5q0 99 24 215h700zM323 419l-3 -56q0 -107 49.5 -156t129.5 -49
q96 0 161.5 66.5t93.5 194.5h-431z" />
    <glyph glyph-name="uni025A" unicode="&#x25a;" horiz-adv-x="1516" 
d="M644 1102q374 0 424 -345l199 38v-137q0 -76 22.5 -105.5t85.5 -29.5q52 0 107 25l34 -182q-102 -36 -217 -36q-116 0 -173 55t-70 175q-56 -285 -204 -432.5t-389 -147.5q-192 0 -299.5 114t-107.5 320q0 90 19 181l706 101q0 84 -17.5 127t-55.5 67t-102 24
q-150 0 -213 -129l-261 23q76 153 203.5 223.5t308.5 70.5zM483 157q248 0 277 343l-445 -65l-4 -69q0 -209 172 -209z" />
    <glyph glyph-name="uni025B" unicode="&#x25b;" horiz-adv-x="980" 
d="M462 170q89 0 163.5 39.5t143.5 100.5l128 -151q-102 -95 -214 -137t-263 -42q-176 0 -285 87t-109 225q0 122 82.5 196.5t240.5 90.5l1 2q-88 25 -138.5 85t-50.5 140q0 140 115 217.5t326 77.5q147 0 243.5 -52.5t153.5 -160.5l-192 -84q-66 119 -204 119
q-83 0 -130.5 -34t-47.5 -95q0 -69 76 -105.5t222 -36.5l-24 -175q-163 0 -234 -16.5t-109.5 -53.5t-38.5 -103q0 -59 39.5 -96.5t105.5 -37.5z" />
    <glyph glyph-name="uni025C" unicode="&#x25c;" horiz-adv-x="1045" 
d="M448 -20q-186 0 -297 80t-140 229l252 44q35 -164 200 -164q89 0 136 39.5t47 113.5q0 81 -68 115t-193 34l28 177q173 0 245 39.5t72 120.5q0 57 -42.5 86t-113.5 29q-156 0 -196 -144l-232 20q83 303 459 303q180 0 289 -71t109 -188q0 -78 -41 -140.5t-109 -99.5
t-152 -46v-4q109 -17 170.5 -80t61.5 -160q0 -155 -129 -244t-356 -89z" />
    <glyph glyph-name="uni025D" unicode="&#x25d;" horiz-adv-x="1372" 
d="M419 -20q-186 0 -297 80t-140 229l252 44q35 -164 200 -164q91 0 137 40.5t46 112.5q0 81 -68 115t-193 34l28 177q173 0 245 39.5t72 120.5q0 57 -42.5 86t-113.5 29q-156 0 -196 -144l-232 20q83 303 459 303q141 0 239 -44.5t137 -120.5l192 31v-130
q0 -76 22.5 -105.5t85.5 -29.5q52 0 107 25l34 -182q-102 -36 -217 -36q-108 0 -165 47t-74 151q-38 -63 -112 -104t-153 -47v-4q110 -18 171 -81.5t61 -158.5q0 -155 -129 -244t-356 -89z" />
    <glyph glyph-name="uni025E" unicode="&#x25e;" horiz-adv-x="1171" 
d="M696 923q-97 0 -174 -62t-124 -180.5t-47 -241.5q0 -131 56.5 -204t156.5 -73q93 0 143 44.5t50 125.5q0 69 -49.5 101.5t-153.5 32.5l35 182q134 0 189.5 41.5t55.5 127.5q0 49 -38 77.5t-100 28.5zM727 1102q106 0 194 -34.5t137.5 -94.5t49.5 -131q0 -224 -282 -277
q99 -10 158 -67.5t59 -143.5q0 -109 -63.5 -195t-181.5 -132.5t-271 -46.5q-138 0 -243.5 56t-162 157.5t-56.5 231.5q0 193 80.5 349.5t231 242t350.5 85.5z" />
    <glyph glyph-name="uni025F" unicode="&#x25f;" horiz-adv-x="682" 
d="M170 190l174 892h280l-174 -892h158l-37 -190h-158l-27 -136q-32 -157 -126.5 -223t-264.5 -66q-73 0 -155 17l36 181q11 -2 43 -6t53 -4q67 0 97 32t43 97l21 108h-213l37 190h213z" />
    <glyph glyph-name="uni0260" unicode="&#x260;" 
d="M431 -425q-199 0 -306 69t-132 214l283 30q27 -127 188 -127q91 0 147.5 40t90 128t59.5 272h-2q-58 -85 -106.5 -125.5t-109 -62t-138.5 -21.5q-155 0 -247.5 100t-92.5 264q0 199 62 382.5t175 273t284 89.5q118 0 202.5 -55.5t112.5 -152.5h2l78 322q32 130 122 199.5
t232 69.5q76 0 148 -17l-39 -201q-55 12 -85 12q-52 0 -88 -30t-52 -111l-217 -1127q-45 -231 -180.5 -333t-390.5 -102zM846 686q0 104 -52 163.5t-146 59.5q-76 0 -125.5 -32t-84 -103.5t-57 -188t-22.5 -189.5q0 -199 173 -199q89 0 162 67t112.5 182.5t39.5 239.5z" />
    <glyph glyph-name="uni0261" unicode="&#x261;" 
d="M431 -425q-199 0 -306 69t-132 214l283 30q27 -127 188 -127q110 0 171 59t95 207q20 96 31 174h-2q-63 -89 -110.5 -128t-107 -60t-136.5 -21q-155 0 -247.5 100t-92.5 264q0 201 63.5 385.5t175 272t282.5 87.5q118 0 203 -56t112 -152h2q6 29 24.5 105t23.5 84h265
l-19 -83l-30 -146l-165 -843q-47 -233 -182 -334t-389 -101zM846 686q0 104 -52 163.5t-146 59.5q-76 0 -125.5 -32t-84 -103.5t-57 -188t-22.5 -189.5q0 -199 173 -199q89 0 162 67t112.5 182.5t39.5 239.5z" />
    <glyph glyph-name="uni0262" unicode="&#x262;" horiz-adv-x="1221" 
d="M821 357h-202l40 209h471l-92 -474q-205 -112 -478 -112q-497 0 -497 475q0 182 81.5 331t231 232.5t340.5 83.5q387 0 442 -336l-285 -39q-2 81 -56 124t-142 43q-93 0 -164 -54t-112 -163t-41 -248q0 -122 60.5 -185.5t166.5 -63.5q103 0 210 40z" />
    <glyph glyph-name="uni0263" unicode="&#x263;" horiz-adv-x="1139" 
d="M690 271q57 -166 75 -248.5t18 -130.5q0 -141 -101.5 -229t-275.5 -88q-142 0 -223 67t-81 188q0 81 48.5 176t180.5 249l-220 827h297l140 -615l391 615h294zM423 -238q52 0 79 35.5t27 115.5q0 89 -44 215q-67 -87 -90.5 -127t-37.5 -79t-14 -74q0 -42 23 -64t57 -22z
" />
    <glyph glyph-name="uni0264" unicode="&#x264;" horiz-adv-x="1230" 
d="M543 172q45 0 69.5 34t24.5 88q0 73 -46 171q-19 -23 -41 -49t-40.5 -54t-31 -56t-12.5 -55q0 -40 22.5 -59.5t54.5 -19.5zM517 -20q-133 0 -211 63.5t-78 173.5q0 126 150 298l80 91l-51 171q-27 88 -113 88q-81 0 -179 -71l-33 198q145 110 288 110q192 0 249 -178
l39 -118l97 136q59 83 125 121.5t159 38.5q147 0 244 -105l-109 -198q-66 66 -148 66q-35 0 -65 -17.5t-66 -70.5l-117 -171q56 -148 71 -215.5t15 -126.5q0 -90 -42.5 -155.5t-120.5 -97t-184 -31.5z" />
    <glyph glyph-name="uni0265" unicode="&#x265;" 
d="M647 -424l84 427l39 182h-3q-75 -104 -165.5 -154t-207.5 -50q-152 0 -229 73t-77 211q0 25 7 79.5t14 84.5l127 653h279l-118 -595q-26 -123 -26 -165q0 -129 152 -129q101 0 187 82t108 201l118 606h282l-291 -1506h-280z" />
    <glyph glyph-name="uni0266" unicode="&#x266;" 
d="M483 897h3q76 107 166.5 155.5t206.5 48.5q152 0 229 -73t77 -211q0 -19 -3.5 -50.5t-7.5 -58.5t-137 -708h-279l118 595q26 124 26 165q0 129 -152 129q-101 0 -186.5 -81t-108.5 -202l-118 -606h-282l245 1215q26 131 127.5 200t272.5 69q76 0 148 -17l-39 -201
q-55 12 -85 12q-142 0 -170 -141z" />
    <glyph glyph-name="uni0267" unicode="&#x267;" 
d="M882 760q0 129 -152 129q-101 0 -186.5 -81t-108.5 -202l-118 -606h-282l245 1215q26 131 127.5 200t272.5 69q76 0 148 -17l-39 -201q-55 12 -85 12q-72 0 -113 -34.5t-57 -106.5l-51 -240h3q76 107 166.5 155.5t206.5 48.5q152 0 229 -73t77 -211q0 -25 -7 -80.5
t-14 -83.5l-142 -730q-34 -177 -128 -262.5t-260 -85.5q-47 0 -103.5 5.5t-85.5 11.5l41 211q48 -12 103 -12q126 0 152 125l135 679q26 124 26 165z" />
    <glyph glyph-name="uni0268" unicode="&#x268;" horiz-adv-x="569" 
d="M22 653h139l84 429h281l-84 -429h159l-37 -189h-159l-90 -464h-280l90 464h-139zM282 1277l41 207h281l-41 -207h-281z" />
    <glyph glyph-name="uni0269" unicode="&#x269;" horiz-adv-x="569" 
d="M232 1082h281l-151 -746l-5 -43q0 -81 96 -81q30 0 66 6l-44 -225q-93 -13 -154 -13q-132 0 -193 56t-61 173q0 57 15 134z" />
    <glyph glyph-name="uni026A" unicode="&#x26a;" horiz-adv-x="830" 
d="M349 874h-206l41 208h694l-41 -208h-207l-129 -666h207l-41 -208h-693l40 208h206z" />
    <glyph glyph-name="uni026B" unicode="&#x26b;" horiz-adv-x="569" 
d="M37 0l142 731q-44 -2 -65.5 -25t-31.5 -77h-128q24 144 85.5 204.5t172.5 67.5l114 583h281l-137 -705q39 2 60.5 24t32.5 79h127q-25 -150 -82.5 -209t-170.5 -64l-119 -609h-281z" />
    <glyph glyph-name="uni026C" unicode="&#x26c;" horiz-adv-x="644" 
d="M653 487h-139l-95 -487h-281l95 488h-18q-106 0 -165 61t-59 164q0 133 84 213t224 80h35l93 478h281l-160 -820h139zM267 664l32 164h-18q-119 0 -119 -93q0 -31 23 -51t64 -20h18z" />
    <glyph glyph-name="uni026D" unicode="&#x26d;" horiz-adv-x="569" 
d="M272 -425q-130 0 -198.5 55t-68.5 178q0 50 12 115l303 1561h281l-305 -1568l-4 -37q0 -88 109 -88q47 0 107 12l-41 -211q-29 -6 -89.5 -11.5t-105.5 -5.5z" />
    <glyph glyph-name="uni026E" unicode="&#x26e;" horiz-adv-x="1219" 
d="M16 0l288 1484h281l-79 -402h759l-38 -195l-372 -378q140 -40 212.5 -145t72.5 -267q0 -148 -75 -268.5t-209 -187t-299 -66.5q-195 0 -315.5 57.5t-178.5 179.5l255 79q63 -123 251 -123q124 0 202 85t78 222q0 98 -32.5 156.5t-99.5 85t-199 26.5l37 189l337 347h-425
l-171 -879h-280z" />
    <glyph glyph-name="uni026F" unicode="&#x26f;" horiz-adv-x="1821" 
d="M499 190q91 0 158 77t93 208l119 607h279l-123 -635q-17 -91 -17 -136q0 -121 126 -121q88 0 156.5 75.5t95.5 212.5l118 604h282l-166 -851q-20 -95 -39 -231h-272q0 11 10.5 77.5t17.5 107.5h-3q-77 -116 -151.5 -160t-176.5 -44q-124 0 -196 59.5t-86 172.5
q-80 -125 -162.5 -178.5t-191.5 -53.5q-138 0 -211.5 73t-73.5 211q0 64 21 164l128 653h279l-122 -627q-18 -90 -18 -139v-5q3 -121 126 -121z" />
    <glyph glyph-name="uni0270" unicode="&#x270;" horiz-adv-x="1821" 
d="M499 190q91 0 158 77t93 208l119 607h279l-123 -635q-17 -91 -17 -136q0 -121 126 -121q88 0 156.5 75.5t95.5 212.5l118 604h282l-285 -1507h-282l118 610h-3q-77 -116 -151.5 -160t-176.5 -44q-124 0 -196 59.5t-86 172.5q-80 -125 -162.5 -178.5t-191.5 -53.5
q-138 0 -211.5 73t-73.5 211q0 64 21 164l128 653h279l-122 -627q-18 -90 -18 -139v-5q3 -121 126 -121z" />
    <glyph glyph-name="uni0271" unicode="&#x271;" horiz-adv-x="1821" 
d="M1322 892q-91 0 -158 -77t-93 -208l-119 -607h-279l123 635q17 91 17 136q0 121 -126 121q-88 0 -156.5 -75.5t-95.5 -212.5l-118 -604h-282l166 851q20 95 39 231h272q0 -11 -10.5 -77.5t-17.5 -107.5h3q77 116 151.5 160t176.5 44q124 0 196 -59.5t86 -172.5
q85 130 166.5 181t187.5 51q138 0 211.5 -73t73.5 -211q0 -64 -21 -164l-143 -730q-34 -177 -128 -262.5t-260 -85.5q-47 0 -103.5 5.5t-85.5 11.5l41 211q48 -12 103 -12q126 0 152 125l139 711q18 90 18 139v5q-3 121 -126 121z" />
    <glyph glyph-name="uni0272" unicode="&#x272;" 
d="M738 0l118 595q26 124 26 165q0 129 -152 129q-101 0 -186.5 -81t-108.5 -202l-133 -683q-34 -177 -128 -262.5t-260 -85.5q-47 0 -103.5 5.5t-85.5 11.5l41 211q48 -12 103 -12q126 0 152 125l180 935q16 79 38 231h268q0 -9 -9.5 -84t-14.5 -101h3q76 107 166.5 155.5
t206.5 48.5q152 0 229 -73t77 -211q0 -19 -3.5 -50.5t-7.5 -58.5t-137 -708h-279z" />
    <glyph glyph-name="uni0273" unicode="&#x273;" 
d="M882 760q0 129 -152 129q-101 0 -186.5 -81t-108.5 -202l-118 -606h-282l166 851q16 79 38 231h268q0 -9 -9.5 -84t-14.5 -101h3q76 107 166.5 155.5t206.5 48.5q152 0 229 -73t77 -211q0 -25 -7 -80.5t-14 -83.5l-143 -737l-4 -38q0 -87 108 -87q46 0 108 12l-41 -211
q-89 -17 -196 -17q-130 0 -198 54.5t-68 177.5q0 51 12 116l134 672q26 124 26 165z" />
    <glyph glyph-name="uni0274" unicode="&#x274;" horiz-adv-x="1328" 
d="M1058 0h-260l-359 748l-144 -748h-250l211 1082h286l333 -726l144 726h250z" />
    <glyph glyph-name="uni0275" unicode="&#x275;" 
d="M1185 683q0 -207 -81.5 -368t-231 -248t-337.5 -87q-218 0 -345 117t-127 322q0 201 79.5 356t227 240.5t334.5 85.5q233 0 357 -109.5t124 -308.5zM566 172q85 0 137 28.5t91.5 89t65.5 159.5h-502v-18q0 -259 208 -259zM892 684q0 109 -54 167t-155 58
q-121 0 -190 -68.5t-107 -205.5h504z" />
    <glyph glyph-name="uni0276" unicode="&#x276;" horiz-adv-x="1745" 
d="M806 53q-133 -73 -281 -73q-212 0 -336.5 122.5t-124.5 322.5q0 202 80 356.5t230 237.5t349 83q169 0 274 -67l9 47h730l-40 -203h-462l-43 -223h422l-40 -203h-422l-48 -248h462l-40 -205h-730zM565 172q159 0 248 139.5t89 364.5q0 110 -59 171.5t-161 61.5
q-152 0 -237 -130.5t-85 -359.5q0 -117 52.5 -182t152.5 -65z" />
    <glyph glyph-name="uni0277" unicode="&#x277;" horiz-adv-x="1709" 
d="M884 906q-265 0 -405.5 -125.5t-140.5 -363.5q0 -127 37 -186t115 -59q85 0 141 78.5t83 219.5l36 187h258q-41 -215 -45 -244.5t-4 -58.5q0 -88 39.5 -135t105.5 -47q71 0 127 49.5t88.5 146.5t32.5 200q0 182 -108 260t-360 78zM920 1102q359 0 537.5 -132t178.5 -400
q0 -158 -71.5 -300.5t-188.5 -216t-265 -73.5q-124 0 -200 54t-116 184h-4q-61 -125 -150.5 -181.5t-217.5 -56.5q-180 0 -273 106t-93 310q0 219 100.5 378t295.5 243.5t467 84.5z" />
    <glyph glyph-name="uni0278" unicode="&#x278;" horiz-adv-x="1551" 
d="M439 -425l79 405q-220 8 -338.5 121.5t-118.5 306.5q0 328 177 511t498 183l74 382h273l-74 -382q225 -12 341.5 -120t116.5 -299q0 -214 -82 -373t-235.5 -244.5t-358.5 -85.5l-79 -405h-273zM828 172q165 0 257 133.5t92 369.5q0 118 -54 172t-152 62zM698 909
q-172 0 -259.5 -127.5t-87.5 -364.5q0 -112 51.5 -175t152.5 -70z" />
    <glyph glyph-name="uni0279" unicode="&#x279;" horiz-adv-x="797" 
d="M-40 229q69 -15 114 -15q123 0 200.5 87t112.5 267l101 514h281l-161 -830q-24 -120 -42 -252h-268l23 173l7 48h-4q-73 -134 -144 -187.5t-163 -53.5q-47 0 -103 14z" />
    <glyph glyph-name="uni027A" unicode="&#x27a;" horiz-adv-x="797" 
d="M-40 229q69 -15 114 -15q123 0 200.5 87t112.5 267l178 916h281l-238 -1232q-24 -120 -42 -252h-268l23 173l7 48h-4q-73 -134 -144 -187.5t-163 -53.5q-47 0 -103 14z" />
    <glyph glyph-name="uni027B" unicode="&#x27b;" horiz-adv-x="797" 
d="M339 221h-4q-69 -126 -144.5 -183.5t-173.5 -57.5q-47 0 -103 14l46 235q69 -15 114 -15q123 0 200.5 87t112.5 267l101 514h281l-226 -1166l-4 -43q0 -42 25 -62t83 -20q46 0 108 12l-41 -211q-89 -17 -183 -17q-130 0 -196 54.5t-66 177.5q0 51 12 116z" />
    <glyph glyph-name="uni027C" unicode="&#x27c;" horiz-adv-x="797" 
d="M844 853q-69 15 -114 15q-123 0 -200.5 -87t-112.5 -267l-182 -939h-281l242 1255q25 121 42 252h268q-21 -161 -30 -221h4q73 134 144 187.5t163 53.5q47 0 103 -14z" />
    <glyph glyph-name="uni027D" unicode="&#x27d;" horiz-adv-x="797" 
d="M844 853q-69 15 -114 15q-123 0 -200.5 -87t-112.5 -267l-117 -598l-4 -43q0 -42 25 -62t83 -20q46 0 108 12l-41 -211q-89 -17 -183 -17q-278 0 -278 232q0 51 12 116l174 907q25 121 42 252h268q-21 -161 -30 -221h4q73 134 144 187.5t163 53.5q47 0 103 -14z" />
    <glyph glyph-name="uni027E" unicode="&#x27e;" horiz-adv-x="797" 
d="M833 845q-51 23 -134 23q-115 0 -178 -66.5t-91 -212.5l-114 -589h-281l120 614q52 263 175.5 375.5t354.5 112.5q110 0 193 -25z" />
    <glyph glyph-name="uni027F" unicode="&#x27f;" horiz-adv-x="797" 
d="M328 1102q184 0 274 -92.5t90 -267.5q0 -92 -26 -208l-214 -959h-281l226 994q16 68 16 125q0 174 -165 174q-101 0 -162 -23l45 232q79 25 197 25z" />
    <glyph glyph-name="uni0280" unicode="&#x280;" horiz-adv-x="1206" 
d="M399 435l-85 -435h-282l211 1082h487q202 0 311 -72.5t109 -212.5q0 -131 -75 -214t-220 -112l230 -471h-310l-187 435h-189zM430 607h208q106 0 164 37.5t58 127.5q0 135 -179 135h-192z" />
    <glyph glyph-name="uni0281" unicode="&#x281;" horiz-adv-x="1206" 
d="M629 647l357 435h310l-414 -471q82 -27 131 -96t49 -155q0 -179 -125.5 -269.5t-397.5 -90.5h-507l211 1082h282l-85 -435h189zM346 175h192q125 0 181.5 43.5t56.5 128.5q0 55 -39.5 91.5t-123.5 36.5h-208z" />
    <glyph glyph-name="uni0282" unicode="&#x282;" horiz-adv-x="1139" 
d="M1000 334q0 -174 -128.5 -264t-374.5 -90q-156 0 -260 51l-21 -115l-4 -38q0 -87 108 -87q46 0 108 12l-41 -211q-89 -17 -179 -17q-130 0 -198 54.5t-68 177.5q0 51 12 116l69 346v2h1l250 36q21 -75 77 -108t166 -33q109 0 165.5 35t56.5 101q0 51 -39.5 78.5
t-184.5 58.5q-198 45 -280 123t-82 207q0 160 125.5 245t358.5 85q205 0 305.5 -69t126.5 -219l-251 -29q-17 69 -66 100t-134 31q-205 0 -205 -120q0 -33 20.5 -55.5t60 -39t174.5 -47.5q182 -41 257 -117t75 -200z" />
    <glyph glyph-name="uni0283" unicode="&#x283;" horiz-adv-x="654" 
d="M-101 -425q-45 0 -95.5 7t-67.5 14l42 213q52 -21 123 -21q47 0 77.5 19t50 54.5t36.5 123.5l223 1146q26 135 77 208.5t139 109t223 35.5q30 0 82.5 -4.5t80.5 -13.5l-42 -215q-36 21 -115 21q-73 0 -114.5 -46.5t-59.5 -148.5l-226 -1154q-38 -192 -136 -270t-298 -78z
" />
    </font>
</defs>
</svg>
